<svg width="1590" height="1162" viewBox="0 0 1590 1162" fill="none" xmlns="http://www.w3.org/2000/svg">
<g opacity="0.3">
<path d="M527.24 670.69C522.318 667.849 517.7 664.784 513.441 661.53C504.51 654.703 497.076 646.98 491.345 638.578C485.183 629.546 480.931 619.633 478.703 609.11C474.224 587.961 477.59 567.672 480.843 548.051C481.482 544.197 482.141 540.213 482.726 536.316C486.705 509.744 486.852 484.541 483.179 459.27C475.85 408.856 454.486 357.109 421.395 309.621C383.126 254.703 333.779 209.861 282.442 183.357C252.269 167.781 205.866 158.52 175.556 170.958C157.568 178.34 148.2 192.649 148.468 212.336L148.259 212.298C148.12 201.973 150.573 193.121 155.553 185.986C160.121 179.441 166.81 174.326 175.437 170.786C189.156 165.156 207.306 163.623 227.923 166.355C246.974 168.878 266.361 174.862 282.517 183.202C309.382 197.074 335.624 215.862 360.513 239.049C383.074 260.069 403.617 283.788 421.568 309.55C454.679 357.065 476.056 408.841 483.388 459.285C487.063 484.573 486.916 509.789 482.935 536.375C482.353 540.274 481.692 544.26 481.052 548.112C477.799 567.718 474.437 587.993 478.91 609.111C483.234 629.537 494.893 647.13 513.561 661.398C539.412 681.158 577.726 693.167 616.048 693.517C671.274 694.022 719.948 676.451 767.02 659.461C775.271 656.483 783.801 653.403 792.164 650.5C813.875 642.962 842.769 633.633 873.757 628.352C905.432 622.954 934.732 622.468 963.336 626.867C980.842 629.559 998.157 634.559 1014.8 641.73C1030.17 648.352 1045.47 657.044 1060.27 667.563C1085.65 685.607 1110.44 709.485 1136.05 740.56C1186.48 801.75 1233.86 868.042 1276.89 937.597C1317.79 1003.71 1355.13 1073.36 1387.86 1144.6L1387.67 1144.64C1319.81 996.953 1235.1 861.032 1135.89 740.645C1079.84 672.63 1025.02 636.534 963.346 627.048C900.603 617.397 844.047 632.699 792.274 650.673C783.915 653.575 775.385 656.654 767.134 659.633C720.047 676.631 671.357 694.207 616.095 693.701C598.236 693.537 579.661 690.729 562.381 685.577C553.252 682.855 544.554 679.499 536.523 675.602C533.319 674.054 530.223 672.413 527.24 670.69Z" fill="#FFE492"/>
<path d="M536.819 665.213C524.268 657.967 513.711 649.405 505.429 639.755C496.195 628.995 489.84 616.914 486.54 603.848C486.248 602.691 485.976 601.512 485.733 600.342C481.354 579.33 484.315 559.098 487.181 539.532C487.759 535.577 488.358 531.487 488.882 527.486C491.997 503.654 492.166 481.162 489.393 458.726C489.05 455.964 488.661 453.167 488.226 450.413C480.324 400.066 458.432 348.512 424.918 301.326C386.027 246.61 336.228 202.183 284.691 176.232C254.557 161.08 208.209 152.138 177.924 164.361C159.789 171.68 150.054 185.817 149.766 205.24L149.557 205.198C149.707 195.017 152.398 186.281 157.554 179.236C162.29 172.766 169.102 167.703 177.805 164.189C191.594 158.623 209.711 157.058 230.193 159.663C249.124 162.071 268.501 167.899 284.759 176.075C311.745 189.663 338.168 208.21 363.294 231.195C386.054 252.016 406.844 275.588 425.086 301.255C458.62 348.468 480.524 400.05 488.432 450.428C488.864 453.183 489.256 455.982 489.598 458.746C492.372 481.197 492.203 503.701 489.086 527.544C488.565 531.547 487.965 535.637 487.386 539.594C484.524 559.149 481.564 579.366 485.938 600.348C486.18 601.515 486.452 602.694 486.742 603.847C493.561 630.853 512.592 651.225 536.878 665.247C537.011 665.324 537.142 665.399 537.275 665.476C537.124 665.387 536.97 665.3 536.819 665.213ZM542.058 668.1C565.154 680.238 592.33 686.972 618.087 688.518C673.697 691.765 723.983 676.227 772.615 661.199C774.618 660.579 776.619 659.962 778.62 659.344C783.015 657.99 788.221 656.389 793.511 654.799C817.238 647.669 845.531 639.77 875.474 635.246C907.336 630.43 936.583 630.094 964.888 634.212C982.277 636.75 999.509 641.414 1016.11 648.075C1031.48 654.246 1046.83 662.341 1061.7 672.127C1087.41 689.037 1112.61 711.433 1138.75 740.6C1164.25 769.02 1184.5 793.608 1202.49 817.979C1227.95 852.515 1250.5 888.387 1269.19 918.921C1312.6 990.003 1352.11 1065.08 1386.64 1142.06L1386.45 1142.09C1351.93 1065.12 1312.42 990.055 1269.01 918.977C1250.32 888.449 1227.78 852.586 1202.32 818.054C1184.34 793.69 1164.09 769.11 1138.6 740.696C1081.65 677.16 1026.45 643.38 964.899 634.395C900.999 625.094 842.98 640.142 793.614 654.976C788.322 656.565 783.119 658.166 778.723 659.522C776.723 660.138 774.72 660.757 772.718 661.377C724.071 676.409 673.766 691.953 618.117 688.704C604.331 687.875 590.495 685.552 576.992 681.795C564.424 678.295 552.698 673.697 542.058 668.1Z" fill="#FFE492"/>
<path d="M546.782 660.208C545.272 659.336 543.786 658.445 542.327 657.534C530.037 649.865 519.717 640.939 511.662 630.999C502.852 620.128 496.759 608.042 493.554 595.078C493.271 593.924 493.004 592.746 492.765 591.578C488.485 570.715 491.048 550.544 493.527 531.041C494.044 526.977 494.578 522.772 495.035 518.657C497.718 494.663 497.555 472.161 494.533 449.861C494.157 447.104 493.735 444.31 493.271 441.558C484.793 391.277 462.373 339.919 428.436 293.035C388.925 238.52 338.673 194.507 286.936 169.108C257.788 154.837 211.992 145.196 180.322 157.753C162.024 165.008 151.906 178.976 151.061 198.147L150.852 198.099C151.295 188.056 154.227 179.436 159.565 172.478C164.473 166.078 171.417 161.068 180.204 157.584C194.064 152.089 212.141 150.497 232.483 152.979C251.289 155.273 270.652 160.946 287.002 168.952C314.109 182.261 340.714 200.562 366.077 223.346C389.035 243.971 410.072 267.393 428.605 292.963C462.56 339.876 484.992 391.263 493.475 441.572C493.939 444.326 494.364 447.12 494.738 449.881C497.76 472.192 497.923 494.708 495.237 518.715C494.779 522.831 494.245 527.036 493.728 531.101C491.252 550.593 488.692 570.748 492.965 591.587C493.205 592.755 493.468 593.929 493.753 595.081C506.775 647.76 566.608 677.456 620.126 683.518C676.433 689.711 728.749 676.179 779.343 663.093L779.862 662.958C784.763 661.688 789.831 660.377 794.86 659.096C847.927 645.59 904.889 633.11 966.446 641.557C983.721 643.94 1000.87 648.268 1017.42 654.42C1032.81 660.142 1048.2 667.635 1063.15 676.691C1089.21 692.479 1114.83 713.396 1141.46 740.638C1169.46 769.235 1189.64 792.308 1206.88 815.45C1231.44 848.458 1252.8 884.59 1271.67 916.477C1313.54 987.649 1351.82 1062.69 1385.42 1139.5L1385.22 1139.53C1351.62 1062.73 1313.35 987.693 1271.49 916.529C1252.63 884.651 1231.26 848.522 1206.72 815.528C1189.48 792.389 1169.31 769.325 1141.31 740.738C1083.59 681.688 1028.03 650.229 966.459 641.735C904.943 633.295 848.004 645.768 794.958 659.27C789.928 660.551 784.859 661.863 779.959 663.132L779.44 663.266C754.227 669.788 728.157 676.531 701.766 680.761C672.108 685.516 645.409 686.476 620.145 683.696C593.759 680.707 567.925 672.415 546.782 660.208Z" fill="#FFE492"/>
<path d="M1384.02 1136.98C1351.33 1060.33 1314.3 985.336 1273.96 914.082C1272.24 911.075 1270.52 908.056 1268.81 905.031C1251.29 874.236 1233.17 842.393 1211.12 813.003C1189.7 784.521 1165.19 760.513 1144.03 740.785C1085.7 686.235 1029.77 657.097 968.026 649.078C904.605 640.91 844.556 653.473 796.307 663.569C793.411 664.175 790.517 664.786 787.618 665.396C785.479 665.847 783.338 666.297 781.198 666.746C753.715 672.511 728.863 677.503 703.015 680.227C673.485 683.338 647.045 682.836 622.176 678.692C598.869 674.81 576.207 666.792 557.168 655.801C553.699 653.798 550.354 651.7 547.143 649.505C535.418 641.496 525.576 632.329 517.891 622.259C509.504 611.271 503.675 599.176 500.563 586.306C500.287 585.153 500.026 583.977 499.792 582.81C495.615 562.102 497.781 542.008 499.877 522.576C500.328 518.391 500.794 514.061 501.186 509.823C503.434 485.659 502.938 463.144 499.674 440.992C499.268 438.235 498.81 435.446 498.315 432.697C489.261 382.483 466.315 331.319 431.957 284.737C391.828 230.425 341.124 186.829 289.187 161.977C253.651 145.04 209.888 140.579 182.764 151.128C164.284 158.315 153.773 172.119 152.363 191.046L152.154 190.994C152.893 181.084 156.069 172.574 161.597 165.701C166.685 159.371 173.768 154.411 182.647 150.957C196.573 145.539 214.609 143.923 234.801 146.285C253.478 148.47 272.815 153.985 289.252 161.82C316.48 174.848 343.264 192.905 368.863 215.486C392.019 235.915 413.305 259.19 432.127 284.662C466.507 331.273 489.465 382.465 498.524 432.709C499.02 435.461 499.476 438.252 499.883 441.008C503.15 463.173 503.644 485.7 501.395 509.876C501.004 514.116 500.539 518.444 500.087 522.631C497.992 542.051 495.828 562.133 500 582.815C500.235 583.981 500.494 585.155 500.769 586.305C514.154 641.663 574.534 670.574 622.171 678.511C679.007 687.98 733.25 676.604 781.111 666.566C783.252 666.116 785.391 665.665 787.531 665.216C790.428 664.604 793.324 663.994 796.22 663.388C823.761 657.627 850.812 652.192 878.928 649.026C911.262 645.384 940.403 645.343 968.013 648.897C985.181 651.127 1002.25 655.117 1018.74 660.762C1034.16 666.036 1049.59 672.931 1064.6 681.254C1091.08 695.933 1117.11 715.372 1144.17 740.676C1165.33 760.412 1189.86 784.43 1211.28 812.925C1233.36 842.334 1251.47 874.181 1268.99 904.979C1270.71 908.009 1272.43 911.023 1274.14 914.031C1314.49 985.298 1351.52 1060.3 1384.21 1136.95L1384.02 1136.98Z" fill="#FFE492"/>
<path d="M1382.79 1134.42C1350.43 1056.48 1314.64 981.525 1276.43 911.63C1274.14 907.449 1271.82 903.156 1269.56 899.002C1253.43 869.264 1236.74 838.508 1215.52 810.472C1194.3 782.521 1168.85 759.583 1146.75 740.829C1088 690.794 1031.7 663.972 969.59 656.419C910.305 649.29 855.407 658.341 802.318 667.095L796.488 668.055C791.884 668.815 787.123 669.599 782.438 670.358C729.41 678.922 677.408 685.619 624.208 673.686C611.298 670.791 598.702 666.676 586.762 661.459C573.941 655.856 562.232 649.122 551.961 641.442C540.805 633.101 531.439 623.701 524.126 613.506C516.166 602.41 510.598 590.306 507.58 577.534C507.31 576.379 507.057 575.205 506.827 574.042C502.751 553.501 504.526 533.496 506.243 514.148C506.626 509.831 507.021 505.365 507.343 500.993C509.149 476.652 508.325 454.126 504.821 432.127C504.382 429.377 503.893 426.589 503.365 423.841C493.738 373.694 470.264 322.726 435.482 276.443C394.729 222.335 343.573 179.153 291.434 154.85C256.017 138.422 212.35 134.162 185.243 144.494C166.566 151.612 155.645 165.255 153.66 183.95L153.451 183.894C154.489 174.113 157.917 165.708 163.637 158.916C168.912 152.656 176.142 147.745 185.124 144.322C199.118 138.99 217.102 137.356 237.136 139.598C255.678 141.673 274.983 147.034 291.494 154.692C318.843 167.44 345.808 185.25 371.644 207.632C394.999 227.865 416.532 250.989 435.645 276.366C470.448 322.675 493.934 373.674 503.568 423.85C504.095 426.6 504.585 429.391 505.024 432.139C508.532 454.151 509.356 476.69 507.547 501.043C507.226 505.415 506.831 509.882 506.447 514.199C504.732 533.536 502.958 553.532 507.029 574.049C507.259 575.207 507.513 576.38 507.781 577.534C520.634 631.922 576.353 662.773 624.212 673.508C677.369 685.431 729.35 678.736 782.355 670.177C787.04 669.417 791.8 668.634 796.405 667.874L802.235 666.913C828.295 662.618 855.241 658.173 883.157 655.683C914.775 652.864 943.041 653.046 969.57 656.234C986.639 658.31 1003.63 661.966 1020.06 667.1C1035.5 671.926 1050.98 678.222 1066.04 685.811C1093.01 699.392 1119.45 717.349 1146.88 740.709C1168.99 759.472 1194.45 782.421 1215.68 810.393C1236.92 838.443 1253.6 869.203 1269.74 898.951C1272 903.105 1274.33 907.401 1276.62 911.584C1314.83 981.482 1350.62 1056.45 1382.99 1134.4L1382.79 1134.42Z" fill="#FFE492"/>
<path d="M1381.58 1131.87C1350 1053.73 1315.45 978.804 1278.9 909.186C1276.16 903.957 1273.37 898.553 1270.66 893.325C1255.78 864.531 1240.39 834.751 1219.92 807.952C1198.71 780.277 1172.41 758.517 1149.47 740.879C1090.53 695.369 1033.87 670.866 971.15 663.766C916.372 657.649 864.812 664.034 814.949 670.206C809.702 670.855 804.276 671.526 798.997 672.164C792.8 672.914 788.074 673.473 783.673 673.975C760.113 676.658 732.337 679.374 704.957 679.164C675.942 678.939 650.192 675.512 626.235 668.685C613.637 665.095 601.45 660.382 590.01 654.673C577.727 648.545 566.543 641.38 556.774 633.38C546.189 624.712 537.302 615.081 530.356 604.756C522.823 593.559 517.52 581.449 514.593 568.765C514.332 567.617 514.083 566.443 513.856 565.279C509.887 544.921 511.275 525.016 512.615 505.766C512.927 501.301 513.249 496.685 513.496 492.164C514.859 467.638 513.703 445.102 509.963 423.261C509.492 420.515 508.97 417.731 508.41 414.985C498.208 364.906 474.205 314.131 439.002 268.149C397.63 214.246 346.021 171.48 293.682 147.725C263.866 134.268 219.552 125.995 187.768 137.845C168.87 144.891 157.522 158.38 154.958 176.854L154.751 176.793C156.092 167.133 159.777 158.832 165.703 152.12C171.174 145.925 178.558 141.064 187.653 137.673C201.711 132.433 219.639 130.786 239.505 132.912C257.909 134.881 277.17 140.086 293.743 147.565C321.213 160.033 348.36 177.599 374.43 199.777C397.982 219.814 419.763 242.79 439.166 268.071C474.39 314.079 498.406 364.883 508.614 414.991C509.174 417.737 509.697 420.526 510.166 423.273C513.909 445.124 515.065 467.673 513.703 492.211C513.457 496.735 513.135 501.351 512.824 505.815C511.481 525.055 510.096 544.949 514.061 565.285C514.288 566.447 514.537 567.619 514.799 568.765C525.31 614.327 566.977 651.615 626.259 668.508C679.944 683.808 733.427 679.506 783.605 673.79C788.005 673.288 792.73 672.728 798.928 671.979C804.205 671.34 809.632 670.669 814.878 670.02C839.425 666.981 864.808 663.839 890.878 662.224C920.358 660.399 946.612 660.843 971.135 663.581C988.116 665.505 1005.02 668.822 1021.38 673.446C1036.87 677.825 1052.38 683.522 1067.49 690.377C1095 702.86 1121.86 719.336 1149.59 740.748C1172.54 758.397 1198.86 780.174 1220.08 807.869C1240.57 834.685 1255.96 864.474 1270.85 893.277C1273.55 898.5 1276.34 903.905 1279.09 909.139C1315.64 978.761 1350.18 1053.69 1381.78 1131.84L1381.58 1131.87Z" fill="#FFE492"/>
<path d="M1380.36 1129.32C1349.56 1050.96 1316.25 976.073 1281.37 906.735C1278.4 900.836 1275.4 894.712 1272.48 888.781C1258.63 860.552 1244.3 831.357 1224.31 805.423C1203.01 777.876 1175.9 757.361 1152.19 740.922C1094.17 700.511 1035.46 677.674 972.711 671.105C922.702 665.956 874.898 670.092 828.667 674.093C819.329 674.901 809.674 675.738 800.34 676.459C794.629 676.902 789.582 677.272 784.906 677.589C763.171 679.045 734.549 680.478 705.919 678.625C677.152 676.761 651.748 671.873 628.259 663.678C602.638 654.742 579.582 641.473 561.579 625.309C551.57 616.32 543.16 606.46 536.579 596C529.475 584.708 524.437 572.592 521.601 559.993C521.345 558.848 521.103 557.676 520.88 556.514C517.019 536.355 518.024 516.569 518.997 497.437C519.232 492.809 519.476 488.025 519.643 483.335C520.556 458.616 519.071 436.066 515.099 414.397C514.596 411.654 514.041 408.873 513.449 406.13C502.673 356.117 478.146 305.537 442.518 259.858C400.526 206.163 348.465 163.811 295.925 140.602C260.272 124.951 217.838 121.167 190.335 131.185C171.196 138.156 159.409 151.495 156.251 169.761L156.045 169.695C157.695 160.15 161.644 151.946 167.782 145.313C173.454 139.181 181.004 134.369 190.221 131.012C204.34 125.868 222.207 124.215 241.89 126.227C260.148 128.095 279.36 133.141 295.983 140.439C323.574 152.626 350.902 169.949 377.209 191.924C400.96 211.765 422.989 234.593 442.682 259.776C478.329 305.481 502.872 356.091 513.656 406.134C514.247 408.878 514.801 411.66 515.305 414.406C519.277 436.087 520.764 458.648 519.851 483.379C519.685 488.068 519.439 492.855 519.205 497.482C518.232 516.605 517.227 536.381 521.085 556.52C521.308 557.682 521.55 558.849 521.805 559.995C531.952 605.092 571.762 643.788 628.296 663.509C679.835 681.486 733.996 680.811 784.844 677.405C789.518 677.089 794.566 676.72 800.275 676.276C809.608 675.554 819.263 674.72 828.6 673.911C874.841 669.911 922.655 665.771 972.686 670.924C989.597 672.694 1006.42 675.677 1022.68 679.789C1038.24 683.724 1053.8 688.822 1068.93 694.941C1097.07 706.322 1124.33 721.32 1152.29 740.787C1176.02 757.238 1203.15 777.77 1224.48 805.349C1244.48 831.301 1258.81 860.502 1272.68 888.747C1275.58 894.673 1278.59 900.801 1281.56 906.699C1316.44 976.04 1349.75 1050.93 1380.56 1129.29L1380.36 1129.32Z" fill="#FFE492"/>
<path d="M1379.14 1126.76C1349.14 1048.2 1317.07 973.348 1283.84 904.288C1280.79 897.941 1277.71 891.311 1274.73 884.896C1261.77 857.013 1248.38 828.18 1228.71 802.898C1207.23 775.379 1179.35 756.15 1154.9 740.966C1097.37 705.042 1038.28 684.591 974.274 678.446C929.341 674.215 885.768 676.535 843.629 678.778C829.14 679.549 815.454 680.278 801.686 680.755C796.085 680.951 791.002 681.098 786.144 681.201C754.811 681.851 729.628 680.861 706.888 678.082C678.359 674.596 653.304 668.248 630.29 658.672C621.362 654.956 612.777 650.717 604.653 646.027C590.252 637.712 577.291 627.981 566.391 617.234C546.666 597.785 533.957 575.575 528.617 551.22C528.367 550.068 528.131 548.899 527.915 547.744C524.163 527.805 524.792 508.164 525.402 489.168C525.556 484.355 525.717 479.381 525.8 474.502C526.26 449.58 524.44 427.017 520.245 405.529C519.71 402.788 519.123 400.011 518.5 397.271C507.148 347.326 482.092 296.939 446.042 251.561C403.431 198.073 350.919 156.136 298.178 133.473C262.176 118.106 220.877 114.585 192.966 124.504C173.564 131.399 161.321 144.594 157.556 162.662L157.349 162.592C159.316 153.157 163.536 145.048 169.895 138.488C175.781 132.417 183.504 127.654 192.855 124.333C207.03 119.294 224.824 117.638 244.317 119.541C262.425 121.308 281.572 126.199 298.234 133.31C325.946 145.218 353.456 162.296 379.996 184.068C403.946 203.715 426.221 226.394 446.206 251.479C482.276 296.884 507.347 347.298 518.706 397.273C519.329 400.015 519.916 402.793 520.452 405.536C524.651 427.037 526.47 449.612 526.01 474.543C525.926 479.421 525.767 484.399 525.611 489.21C525.002 508.196 524.371 527.829 528.121 547.751C528.338 548.905 528.573 550.072 528.823 551.223C538.793 596.705 575.796 635.809 630.342 658.506C682.268 680.112 738.213 682.008 786.095 681.015C790.95 680.911 796.032 680.765 801.633 680.569C815.399 680.092 829.086 679.364 843.574 678.592C885.719 676.348 929.301 674.029 974.251 678.262C991.114 679.881 1007.85 682.529 1024 686.13C1039.65 689.619 1055.25 694.118 1070.38 699.501C1099.23 709.769 1126.91 723.286 1155 740.821C1179.47 756.017 1207.38 775.267 1228.88 802.814C1248.56 828.119 1261.95 856.961 1274.92 884.859C1277.9 891.274 1280.98 897.904 1284.03 904.244C1317.27 973.312 1349.34 1048.17 1379.34 1126.74L1379.14 1126.76Z" fill="#FFE492"/>
<path d="M1377.93 1124.21C1348.31 1044.33 1318.34 971.588 1286.32 901.842C1283.26 895.185 1280.33 888.499 1277.22 881.418C1265.09 853.747 1252.55 825.134 1233.11 800.374C1211.29 772.66 1181.3 754.091 1157.62 741.013C1101.05 709.586 1041.59 691.523 975.834 685.792C936.343 682.423 897.545 683.359 860.023 684.265C840.303 684.741 821.678 685.19 803.028 685.053C797.49 685.015 792.371 684.936 787.378 684.815C756.443 684.046 731.175 681.733 707.852 677.538C679.544 672.444 654.837 664.635 632.317 653.666C620.747 648.03 609.789 641.507 599.748 634.279C589.119 626.626 579.514 618.174 571.201 609.159C552.776 589.176 540.808 566.733 535.629 542.451C535.387 541.301 535.156 540.134 534.943 538.981C531.305 519.29 531.567 499.819 531.82 480.988C531.889 475.964 531.958 470.769 531.952 465.674C531.95 440.541 529.803 417.968 525.386 396.666C524.817 393.927 524.197 391.153 523.545 388.417C511.619 338.54 486.037 288.349 449.565 243.272C415.86 201.735 376.233 167.336 335.321 143.715C323.754 137.038 312.095 131.226 300.427 126.351C264.662 111.512 223.535 108.162 195.647 117.817C175.964 124.632 163.24 137.687 158.853 155.571L158.647 155.495C160.936 146.163 165.437 138.143 172.025 131.657C178.131 125.644 186.041 120.929 195.535 117.641C209.762 112.716 227.476 111.063 246.767 112.859C264.977 114.553 283.551 119.162 300.476 126.186C328.31 137.814 356 154.648 382.778 176.217C406.926 195.666 429.451 218.198 449.725 243.185C486.219 288.289 511.817 338.509 523.751 388.416C524.406 391.153 525.026 393.93 525.594 396.671C530.013 417.983 532.162 440.567 532.164 465.713C532.17 470.806 532.102 476.003 532.034 481.028C531.78 499.851 531.517 519.314 535.152 538.99C535.366 540.141 535.596 541.307 535.837 542.456C545.523 587.862 580.714 628.337 632.388 653.508C684.677 678.978 742.665 683.518 787.343 684.629C792.336 684.751 797.454 684.828 802.99 684.868C821.636 685.006 840.261 684.556 859.977 684.08C897.504 683.175 936.308 682.236 975.814 685.607C1009.67 688.558 1041.07 694.597 1071.83 704.068C1101.49 713.201 1129.58 725.238 1157.71 740.863C1173.78 749.736 1186.44 757.749 1197.56 766.071C1211.93 776.823 1223.61 788.014 1233.28 800.29C1252.73 825.074 1265.28 853.701 1277.42 881.389C1280.53 888.47 1283.46 895.154 1286.51 901.806C1318.55 971.559 1348.51 1044.3 1378.13 1124.18L1377.93 1124.21Z" fill="#FFE492"/>
<path d="M1376.71 1121.65C1347.91 1041.55 1319.15 968.852 1288.78 899.389C1285.79 892.52 1282.92 885.571 1279.89 878.218C1268.52 850.662 1256.78 822.173 1237.51 797.843C1215.42 770.046 1184.66 752.893 1160.34 741.054C1105.38 714.134 1045.53 698.458 977.398 693.129C943.792 690.565 910.392 690.551 878.092 690.538C852.558 690.528 828.442 690.52 804.376 689.344C798.935 689.08 793.632 688.769 788.616 688.421C758.395 686.312 732.294 682.569 708.822 676.981C680.718 670.292 656.356 661.026 634.348 648.654C623.15 642.357 612.601 635.229 603.001 627.468C592.937 619.33 583.859 610.451 576.016 601.072C558.901 580.602 547.672 557.927 542.643 533.672C542.41 532.53 542.184 531.363 541.976 530.207C538.456 510.799 538.36 491.535 538.266 472.905C538.24 467.634 538.213 462.182 538.108 456.836C537.64 431.482 535.161 408.898 530.531 387.793C529.929 385.057 529.278 382.285 528.594 379.553C516.094 329.743 489.982 279.746 453.087 234.969C409.237 181.9 355.818 140.791 302.676 119.218C267.181 104.906 226.246 101.721 198.392 111.101C178.399 117.835 165.177 130.757 160.15 148.468L159.948 148.388C162.567 139.155 167.357 131.219 174.187 124.802C180.527 118.846 188.633 114.176 198.282 110.926C212.552 106.12 230.177 104.474 249.255 106.166C267.298 107.766 285.787 112.222 302.726 119.052C330.682 130.402 358.553 146.989 385.565 168.355C409.91 187.611 432.681 209.994 453.247 234.883C490.166 279.684 516.289 329.711 528.796 379.551C529.482 382.283 530.134 385.058 530.735 387.795C535.369 408.912 537.847 431.505 538.317 456.87C538.424 462.217 538.449 467.669 538.476 472.942C538.57 491.564 538.665 510.819 542.182 530.214C542.392 531.369 542.618 532.535 542.85 533.676C552.436 579.911 584.959 620.693 634.43 648.501C674.571 671.066 723.556 683.691 788.587 688.233C793.601 688.581 798.902 688.892 804.342 689.155C828.402 690.33 852.516 690.341 878.046 690.349C910.352 690.363 943.756 690.375 977.372 692.942C1011.73 695.627 1043.09 700.758 1073.27 708.624C1103.84 716.593 1132.35 727.148 1160.41 740.892C1184.76 752.743 1215.55 769.918 1237.67 797.757C1256.97 822.114 1268.72 850.62 1280.09 878.189C1283.12 885.542 1285.98 892.485 1288.98 899.351C1319.35 968.822 1348.11 1041.53 1376.91 1121.63L1376.71 1121.65Z" fill="#FFE492"/>
<path d="M1375.5 1119.1C1347.52 1038.78 1319.97 966.117 1291.26 896.943C1288.35 889.922 1285.59 882.781 1282.67 875.22C1272.05 847.717 1261.07 819.279 1241.91 795.318C1219.53 767.409 1188.02 751.683 1163.06 741.098C1109.84 718.38 1051.34 705.471 978.961 700.472C951.788 698.643 924.515 698.102 898.14 697.578C866.107 696.942 835.849 696.341 805.721 693.639C800.292 693.154 794.952 692.615 789.853 692.033C759.83 688.603 733.642 683.499 709.793 676.429C696.436 672.468 683.675 667.819 671.867 662.611C659.272 657.056 647.332 650.674 636.377 643.647C614.151 629.385 595.463 612.342 580.833 592.991C565.034 572.093 554.545 549.185 549.661 524.902C549.435 523.755 549.215 522.591 549.008 521.442C545.614 502.361 545.17 483.352 544.742 464.972C544.612 459.407 544.478 453.654 544.263 448.007C543.321 422.419 540.511 399.823 535.674 378.927C535.041 376.194 534.356 373.423 533.64 370.697C520.567 320.953 493.929 271.15 456.61 226.677C412.14 173.819 358.271 133.126 304.926 112.093C247.736 89.6942 176.621 94.5193 161.451 141.373L161.248 141.288C165.043 129.567 172.284 120.042 182.769 112.975C192.344 106.52 204.426 102.217 218.677 100.19C231.929 98.3038 246.437 98.4469 261.799 100.614C276.408 102.675 291.339 106.585 304.972 111.925C333.048 122.995 361.101 139.339 388.348 160.503C412.892 179.565 435.911 201.8 456.767 226.591C494.105 271.091 520.759 320.921 533.842 370.695C534.558 373.424 535.244 376.194 535.878 378.931C540.716 399.836 543.527 422.444 544.471 448.043C544.686 453.69 544.82 459.442 544.949 465.009C545.378 483.384 545.821 502.384 549.215 521.455C549.42 522.603 549.637 523.765 549.864 524.912C559.253 571.579 590.013 613.696 636.473 643.507C675.806 668.742 725.969 684.557 789.833 691.852C794.93 692.432 800.266 692.973 805.696 693.457C835.816 696.16 866.07 696.759 898.099 697.395C924.476 697.918 951.752 698.46 978.93 700.288C1051.34 705.29 1109.86 718.205 1163.12 740.935C1179.88 748.046 1193.2 754.912 1205.02 762.547C1220.14 772.306 1232.26 782.998 1242.07 795.235C1261.25 819.222 1272.23 847.675 1282.86 875.192C1285.78 882.751 1288.54 889.892 1291.45 896.911C1320.17 966.094 1347.71 1038.76 1375.69 1119.08L1375.5 1119.1Z" fill="#FFE492"/>
<path d="M1374.28 1116.55C1347.14 1036.02 1320.79 963.381 1293.73 894.498C1290.93 887.369 1288.3 880.08 1285.53 872.364C1275.62 844.865 1265.39 816.433 1246.31 792.795C1223.35 764.427 1189.35 749.729 1165.78 741.144C1101.87 717.714 1036.27 711.148 980.523 707.818C960.469 706.653 940.189 705.973 920.573 705.314C881.224 703.994 844.059 702.747 807.067 697.939C801.626 697.233 796.252 696.464 791.09 695.651C761.191 690.927 734.916 684.46 710.769 675.88C683.393 666.154 659.049 653.628 638.408 638.645C617.204 623.252 599.453 605.173 585.655 584.912C571.18 563.662 561.431 540.523 556.675 516.136C556.456 514.994 556.242 513.831 556.04 512.68C552.778 493.99 552.005 475.306 551.255 457.236C551.011 451.315 550.756 445.192 550.419 439.181C548.976 412.991 545.924 391.03 540.819 370.066C540.154 367.336 539.437 364.571 538.688 361.846C525.035 312.167 497.869 262.56 460.129 218.386C415.039 165.739 360.718 125.459 307.171 104.969C249.468 83.0243 179.671 87.9871 162.747 134.28L162.547 134.19C166.746 122.705 174.254 113.348 184.857 106.379C194.574 99.9937 206.704 95.707 220.909 93.6409C234.156 91.7136 248.634 91.778 263.944 93.8305C278.522 95.7847 293.486 99.5794 307.218 104.801C335.417 115.593 363.649 131.692 391.131 152.651C415.873 171.519 439.14 193.606 460.287 218.298C498.051 262.497 525.23 312.133 538.888 361.839C539.636 364.566 540.353 367.333 541.021 370.065C546.129 391.038 549.18 413.01 550.625 439.212C550.962 445.222 551.216 451.346 551.461 457.268C552.211 475.333 552.985 494.011 556.243 512.691C556.444 513.841 556.657 515.002 556.876 516.144C566.122 563.551 595.114 607.008 638.515 638.512C677.439 666.767 727.345 685.396 791.081 695.469C796.24 696.282 801.614 697.053 807.05 697.757C844.033 702.564 881.193 703.811 920.535 705.129C940.15 705.788 960.434 706.467 980.491 707.632C1017.98 709.872 1048.38 713.091 1076.16 717.757C1108.87 723.252 1138.19 730.846 1165.82 740.974C1182.68 747.116 1196.73 753.598 1208.75 760.789C1224.25 770.052 1236.58 780.491 1246.46 792.708C1265.57 816.377 1275.82 844.829 1285.73 872.344C1288.5 880.059 1291.13 887.348 1293.92 894.468C1320.98 963.358 1347.33 1036 1374.47 1116.53L1374.28 1116.55Z" fill="#FFE492"/>
<path d="M1373.06 1113.99C1346.76 1033.24 1321.62 960.641 1296.21 892.048C1293.54 884.852 1291.07 877.452 1288.45 869.614C1279.24 842.081 1269.73 813.615 1250.71 790.269C1227.41 761.736 1192.63 748.59 1168.5 741.187C1108.96 722.793 1048.85 718.517 982.089 715.158C970.038 714.571 957.792 714.074 945.947 713.596C900.393 711.754 853.291 709.849 808.413 702.233C802.96 701.31 797.547 700.309 792.327 699.261C762.897 693.339 735.786 685.285 711.744 675.322C684.508 664.035 660.519 650.009 640.435 633.634C620.261 617.186 603.452 598.072 590.472 576.823C577.336 555.321 568.323 531.95 563.683 507.362C563.471 506.221 563.263 505.06 563.065 503.912C559.95 485.7 558.865 467.429 557.816 449.761C557.437 443.395 557.046 436.812 556.565 430.351C554.627 403.898 551.254 381.925 545.953 361.199C545.257 358.479 544.508 355.715 543.726 352.987C529.507 303.376 501.817 253.964 463.649 210.09C417.942 157.657 363.169 117.793 309.419 97.8408C253.251 77.1068 183.213 80.343 164.043 127.181L163.846 127.087C168.451 115.836 176.223 106.647 186.945 99.7757C196.804 93.459 208.981 89.19 223.139 87.0845C249.257 83.2015 280.72 87.0601 309.461 97.6707C337.78 108.184 366.194 124.038 393.913 144.794C418.853 163.47 442.366 185.406 463.804 209.998C501.993 253.897 529.699 303.339 543.93 352.977C544.712 355.707 545.463 358.471 546.159 361.194C551.462 381.931 554.836 403.913 556.775 430.375C557.254 436.839 557.648 443.422 558.025 449.789C559.076 467.452 560.161 485.719 563.272 503.922C563.468 505.068 563.677 506.228 563.889 507.369C573.172 556.562 599.683 600.18 640.556 633.509C678.403 664.37 729.464 686.43 792.325 699.079C797.543 700.127 802.952 701.126 808.402 702.05C853.264 709.663 900.36 711.568 945.905 713.409C957.749 713.887 969.996 714.383 982.049 714.973C1011.27 716.442 1045.17 718.344 1077.6 722.319C1111.53 726.479 1141.27 732.593 1168.52 741.013C1185.7 746.284 1200.08 752.175 1212.48 759.027C1228.12 767.663 1241.04 778.148 1250.87 790.183C1259.38 800.638 1266.79 813.185 1273.51 828.538C1279.45 842.094 1284.13 856.077 1288.64 869.597C1291.26 877.434 1293.73 884.833 1296.4 892.023C1321.81 960.623 1346.95 1033.22 1373.26 1113.98L1373.06 1113.99Z" fill="#FFE492"/>
<path d="M1371.85 1111.44C1346.38 1030.47 1322.45 957.901 1298.67 889.598C1296.15 882.365 1293.85 874.88 1291.4 866.955C1282.89 839.36 1274.09 810.831 1255.1 787.743C1237.35 766.196 1209.91 750.982 1171.22 741.232C1117.16 727.525 1062.94 725.495 1005.53 723.346C998.38 723.079 990.99 722.803 983.648 722.504C980.771 722.39 977.891 722.278 975.014 722.166C920.363 720.033 863.851 717.83 809.757 706.533C804.288 705.391 798.839 704.162 793.562 702.876C764.135 695.701 736.938 686.244 712.725 674.768C685.613 661.918 661.973 646.395 642.468 628.631C623.325 611.197 607.456 591.048 595.301 568.744C583.52 547.124 575.243 523.524 570.701 498.597C570.495 497.457 570.294 496.298 570.101 495.151C567.152 477.549 565.787 459.829 564.463 442.691C563.929 435.751 563.374 428.573 562.725 421.524C560.28 394.797 556.589 372.812 551.103 352.338C550.373 349.617 549.592 346.858 548.779 344.135C533.978 294.588 505.76 245.369 467.17 201.798C420.845 149.58 365.62 110.128 311.666 90.7158C256.241 70.8643 186.12 74.4103 165.341 120.087L165.144 119.989C170.157 108.972 178.192 99.952 189.032 93.1809C199.033 86.9325 211.259 82.6777 225.367 80.5362C251.427 76.5798 282.895 80.2292 311.705 90.5476C340.147 100.782 368.741 116.39 396.694 136.943C421.833 155.423 445.596 177.213 467.325 201.706C505.936 245.304 534.173 294.551 548.978 344.121C549.79 346.845 550.574 349.608 551.303 352.329C556.79 372.815 560.487 394.809 562.931 421.545C563.582 428.595 564.134 435.772 564.671 442.714C565.992 459.847 567.358 477.565 570.307 495.159C570.5 496.306 570.7 497.463 570.906 498.603C580.142 549.29 604.934 594.211 642.601 628.514C679.784 662.375 730.58 687.333 793.576 702.695C798.848 703.978 804.294 705.208 809.76 706.35C863.836 717.645 920.338 719.848 974.978 721.979C977.858 722.091 980.736 722.202 983.612 722.317C990.953 722.615 998.343 722.891 1005.49 723.16C1062.91 725.309 1117.15 727.34 1171.23 741.054C1188.71 745.458 1203.43 750.766 1216.21 757.267C1232.22 765.413 1245.36 775.638 1255.27 787.659C1263.77 797.997 1271.02 810.491 1277.45 825.858C1283.11 839.413 1287.43 853.41 1291.6 866.944C1294.05 874.867 1296.36 882.351 1298.87 889.579C1322.65 957.887 1346.59 1030.45 1372.04 1111.42L1371.85 1111.44Z" fill="#FFE492"/>
<path d="M1370.62 1108.88C1347.94 1034.03 1324.56 959.424 1301.15 887.151C1298.75 879.816 1296.58 872.179 1294.29 864.091C1286.85 837.795 1278.41 807.983 1259.51 785.219C1241.47 763.531 1213.49 749.162 1173.93 741.273C1126.93 731.853 1080.85 731.296 1032.06 730.705C1016.78 730.521 1000.98 730.331 985.208 729.844C957.673 729.018 928.039 727.859 897.926 725.001C865.675 721.939 837.273 717.301 811.097 710.824C805.597 709.463 800.113 708.004 794.794 706.484C765.372 698.072 738.098 687.206 713.733 674.189C686.761 659.776 663.465 642.765 644.493 623.619C609.54 588.124 587.07 543.107 577.709 489.821C577.51 488.684 577.316 487.526 577.126 486.381C574.371 469.594 572.769 452.636 571.221 436.237C570.49 428.518 569.737 420.536 568.873 412.692C565.914 385.675 561.9 363.679 556.24 343.47C555.477 340.75 554.664 337.994 553.82 335.276C538.452 285.798 509.705 236.775 470.692 193.504C423.749 141.499 368.071 102.464 313.915 83.5892C257.863 64.1189 189.274 67.9656 166.638 112.991L166.444 112.887C171.866 102.102 180.169 93.252 191.122 86.5798C201.269 80.4 213.541 76.1603 227.598 73.9811C240.842 71.9279 255.233 71.7558 270.371 73.4674C285.069 75.1309 299.73 78.4778 313.95 83.4173C342.515 93.3739 371.291 108.738 399.478 129.086C424.814 147.375 448.824 169.015 470.843 193.408C509.88 236.705 538.643 285.757 554.021 335.261C554.864 337.981 555.681 340.74 556.443 343.46C562.105 363.679 566.122 385.684 569.082 412.711C569.947 420.557 570.7 428.538 571.429 436.259C572.978 452.657 574.579 469.612 577.333 486.393C577.519 487.538 577.717 488.695 577.914 489.831C587.268 543.076 609.717 588.055 644.636 623.515C680.69 659.896 732.621 688.527 794.817 706.309C800.132 707.827 805.615 709.286 811.11 710.647C869.635 725.13 929.189 727.98 985.169 729.658C1000.94 730.144 1016.73 730.335 1032.01 730.52C1080.82 731.11 1126.91 731.667 1173.94 741.092C1213.54 748.988 1241.59 763.393 1259.66 785.129C1268.13 795.326 1275.21 807.737 1281.32 823.072C1286.71 836.595 1290.67 850.57 1294.5 864.088C1296.79 872.17 1298.95 879.806 1301.34 887.134C1324.76 959.413 1348.14 1034.02 1370.82 1108.87L1370.62 1108.88Z" fill="#FFE492"/>
<path d="M1369.41 1106.33C1347.62 1031.65 1325.49 957.09 1303.62 884.701C1301.4 877.411 1299.44 869.775 1297.35 861.687C1290.54 835.241 1282.84 805.272 1263.9 782.687C1245.59 760.86 1217.05 747.329 1176.65 741.312C1134.34 734.992 1091.59 735.884 1050.25 736.747C1029.53 737.18 1008.09 737.628 986.77 737.184C953.11 736.497 925.428 734.814 899.647 731.89C867.858 728.283 839.332 722.796 812.443 715.118C806.922 713.542 801.4 711.851 796.03 710.093C768.054 700.933 742.023 689.442 718.586 675.911C717.284 675.16 715.994 674.404 714.709 673.641C687.81 657.654 664.869 639.139 646.524 618.61C637.681 608.681 629.626 597.907 622.586 586.591C615.969 575.954 610.043 564.503 604.971 552.558C595.844 531.066 589.22 507.673 584.721 481.048C584.529 479.903 584.34 478.758 584.156 477.612C581.646 461.987 579.883 446.149 578.178 430.833C577.193 421.991 576.176 412.849 575.026 403.857C571.494 376.16 567.287 354.8 561.381 334.6C560.586 331.882 559.741 329.131 558.864 326.415C542.922 277.008 513.649 228.18 474.213 185.209C426.653 133.42 370.523 94.8009 316.163 76.4626C260.879 57.8465 192.213 61.9789 167.937 105.894L167.746 105.786C179.053 85.3308 200.523 72.0676 229.832 67.4299C243.08 65.3338 257.44 65.083 272.52 66.6822C287.192 68.2388 301.887 71.4711 316.199 76.2907C344.884 85.9674 373.841 101.088 402.264 121.232C427.797 139.328 452.055 160.82 474.364 185.112C513.823 228.11 543.113 276.967 559.066 326.404C559.941 329.121 560.79 331.877 561.585 334.594C567.492 354.805 571.702 376.173 575.234 403.879C576.384 412.872 577.402 422.016 578.386 430.856C580.091 446.171 581.853 462.006 584.362 477.628C584.547 478.773 584.734 479.917 584.927 481.061C594.487 537.639 614.686 582.601 646.677 618.517C691.043 668.165 752.401 695.627 796.062 709.924C801.429 711.679 806.946 713.369 812.464 714.943C874.309 732.602 938.08 736.007 986.729 737.001C1008.05 737.446 1029.48 736.998 1050.2 736.566C1091.55 735.702 1134.31 734.809 1176.64 741.134C1194.72 743.827 1210.1 747.949 1223.67 753.747C1240.41 760.899 1253.99 770.606 1264.06 782.607C1272.53 792.715 1279.49 805.121 1285.31 820.518C1290.46 834.093 1294.07 848.121 1297.56 861.691C1299.64 869.771 1301.6 877.406 1303.82 884.692C1325.69 957.082 1347.83 1031.65 1369.62 1106.32L1369.41 1106.33Z" fill="#FFE492"/>
<path d="M1368.19 1103.77L1306.09 882.253C1304.07 875.021 1302.3 867.402 1300.43 859.34C1294.26 832.73 1287.27 802.574 1268.3 780.164C1249.96 758.493 1220.04 745.436 1179.37 741.358C1140.27 737.434 1101.24 739.7 1063.49 741.892C1038.89 743.322 1013.44 744.798 988.334 744.528C912.861 743.718 852.149 733.924 797.269 713.708C774.503 705.32 753.039 695.323 733.23 683.886C727.225 680.419 721.376 676.822 715.686 673.096C688.849 655.526 666.263 635.509 648.557 613.603C632.147 593.3 619.466 570.69 609.793 544.485C602.07 523.559 596.331 500.615 591.736 472.28C589.309 457.325 587.375 442.125 585.504 427.427C581.268 394.163 576.889 359.767 566.528 325.738C550.634 273.544 519.929 222.081 477.734 176.914C429.558 125.343 372.976 87.1366 318.412 69.3354C265.586 52.1007 196.371 53.9683 169.235 98.7972L169.046 98.6846C181.176 78.6472 202.968 65.5739 232.065 60.8768C258.374 56.6301 289.05 59.5728 318.445 69.1639C347.253 78.5632 376.392 93.4387 405.047 113.377C430.779 131.28 455.284 152.625 477.883 176.817C498.762 199.167 516.958 223.223 531.964 248.321C547.097 273.628 558.795 299.671 566.728 325.724C577.095 359.766 581.476 394.172 585.713 427.444C587.584 442.14 589.52 457.338 591.945 472.29C598.649 513.634 611.163 567.049 648.721 613.518C691.794 666.808 753.299 697.322 797.313 713.537C852.164 733.745 912.849 743.533 988.292 744.341C1013.39 744.611 1038.83 743.133 1063.44 741.706C1101.19 739.514 1140.23 737.248 1179.35 741.173C1220.1 745.261 1250.08 758.35 1268.46 780.073C1276.95 790.107 1283.77 802.508 1289.33 817.991C1294.21 831.617 1297.48 845.713 1300.64 859.341C1302.5 867.404 1304.27 875.015 1306.29 882.246L1368.4 1103.77L1368.19 1103.77Z" fill="#FFE492"/>
<path d="M1373.23 1092.41C1359.33 1032.68 1346.36 983.249 1332.41 936.828C1325.65 914.289 1318.44 891.78 1311 869.937C1308.75 863.332 1306.68 856.494 1304.5 849.256C1299.01 831.065 1293.33 812.255 1284.05 795.37C1279.07 786.294 1273.61 778.703 1267.37 772.164C1248.24 752.031 1218.58 740.92 1179.21 739.135C1158.84 738.199 1139.23 739.193 1122.73 740.288C1105.27 741.448 1087.47 743.574 1070.26 745.628C1045.52 748.582 1019.94 751.636 994.111 752.03C978.381 752.291 962.922 751.713 948.162 750.313C918.631 747.514 888.473 741.843 858.525 733.46C840.048 728.234 822.068 721.968 805.09 714.834C790.46 708.68 776.224 701.784 762.777 694.337C742.651 683.192 724.029 670.626 707.43 656.984C689.779 642.478 674.29 626.647 661.396 609.929C649.898 595.021 640.163 578.99 631.637 560.917C615.742 527.254 606.866 493.818 600.911 468.448C598.006 455.948 595.374 443.391 592.828 431.246C585.5 396.273 578.577 363.241 565.379 329.758C554.557 302.554 539.685 275.884 521.174 250.483C506.95 230.963 490.158 212.021 471.267 194.182C466.766 189.935 462.118 185.714 457.454 181.644C437.37 164.126 413.543 146.513 386.637 129.295C359.528 111.906 334.772 99.1168 310.957 90.2022C297.502 85.1466 283.762 81.4689 270.115 79.2675C221.932 71.4968 181.994 82.093 163.279 107.614L163.051 107.46C168.04 100.657 174.506 94.8511 182.269 90.2022C189.645 85.7871 198.238 82.3834 207.81 80.085C225.894 75.7459 247.436 75.3841 270.106 79.0405C283.775 81.2445 297.537 84.9287 311.012 89.9923C334.852 98.9171 359.628 111.716 386.759 129.12C413.68 146.347 437.518 163.97 457.616 181.499C462.285 185.575 466.935 189.796 471.438 194.047C490.345 211.899 507.151 230.857 521.386 250.393C539.91 275.811 554.793 302.504 565.62 329.724C578.825 363.227 585.749 396.268 593.081 431.251C595.626 443.394 598.259 455.951 601.162 468.448C607.114 493.805 615.986 527.227 631.874 560.869C640.39 578.922 650.114 594.938 661.599 609.827C686.836 642.545 720.91 670.915 762.876 694.148C776.312 701.589 790.538 708.479 805.155 714.628C822.123 721.756 840.089 728.019 858.55 733.239C888.481 741.618 918.62 747.285 948.132 750.083C962.884 751.482 978.332 752.059 994.049 751.798C1019.86 751.404 1045.44 748.35 1070.17 745.397C1087.38 743.342 1105.18 741.215 1122.66 740.056C1139.16 738.959 1158.79 737.966 1179.17 738.903C1196.7 739.7 1212.55 742.407 1226.29 746.955C1243.16 752.545 1257.05 760.987 1267.55 772.042C1273.81 778.599 1279.28 786.207 1284.27 795.303C1293.57 812.218 1299.25 831.039 1304.75 849.243C1306.93 856.479 1309 863.318 1311.25 869.92C1318.69 891.764 1325.9 914.274 1332.67 936.821C1346.61 983.245 1359.58 1032.68 1373.48 1092.41L1373.23 1092.41Z" fill="#FFE492"/>
<path d="M1378.26 1081.03C1367.38 1022.18 1354.85 970.959 1339.96 924.442C1332.71 901.729 1324.61 879.249 1315.91 857.628C1313.59 851.886 1311.41 846.054 1309.09 839.872C1302.18 821.375 1295.01 802.242 1284.21 785.63C1278.76 777.225 1272.95 770.207 1266.44 764.17C1241.48 741.04 1205.14 736.579 1179.06 736.909C1160.58 737.118 1142.69 739.081 1124.47 741.249C1108.51 743.146 1092.85 746.056 1076.28 749.135C1051.67 753.707 1026.23 758.434 999.888 759.531C984.236 760.221 968.656 759.635 953.578 757.79C925.493 754.355 896.501 747.539 864.944 736.957C847.283 731.034 829.775 723.97 812.904 715.958C798.677 709.184 784.876 701.731 771.884 693.799C752.552 682.005 734.619 668.806 718.582 654.568C701.739 639.614 686.816 623.357 674.23 606.249C663.202 591.262 653.582 575.011 644.816 556.57C628.883 523.104 617.882 489.849 610.081 464.617C607.193 455.277 604.424 445.958 601.747 436.943C591.083 401.045 581.013 367.137 564.23 333.78C551.687 308.849 535.484 284.537 516.071 261.521C501.383 244.105 484.612 227.729 464.804 211.455C460.232 207.702 455.525 203.979 450.815 200.393C430.118 184.657 406.9 169.819 378.7 152.056C358.396 139.211 331.5 122.943 303.497 111.064C290.251 105.41 276.782 101.095 263.464 98.2346C216.572 88.1684 176.892 94.9693 157.319 116.429L157.058 116.229C162.248 110.538 168.832 105.819 176.621 102.197C184.046 98.7473 192.611 96.2752 202.081 94.8436C220.076 92.1274 241.304 93.2063 263.472 97.9662C276.816 100.831 290.309 105.155 303.578 110.818C331.608 122.707 358.524 138.988 378.842 151.841C407.052 169.61 430.277 184.452 450.988 200.198C455.701 203.788 460.412 207.513 464.991 211.27C484.816 227.559 501.603 243.952 516.308 261.386C535.741 284.426 551.959 308.759 564.514 333.714C581.309 367.095 591.385 401.015 602.051 436.926C604.727 445.938 607.495 455.257 610.385 464.596C618.186 489.82 629.182 523.061 645.104 556.51C653.859 574.931 663.469 591.164 674.484 606.135C699.233 639.772 732.052 669.195 772.023 693.581C785.004 701.505 798.792 708.952 813.005 715.717C829.86 723.722 847.353 730.781 864.998 736.697C896.528 747.272 925.496 754.082 953.557 757.515C968.615 759.357 984.176 759.943 999.81 759.251C1026.13 758.155 1051.56 753.431 1076.15 748.862C1092.74 745.781 1108.4 742.871 1124.36 740.974C1142.6 738.803 1160.5 736.84 1178.99 736.63C1195.91 736.419 1211.43 738.206 1225.14 741.939C1241.78 746.47 1255.74 753.896 1266.64 763.998C1273.19 770.062 1279.02 777.104 1284.47 785.532C1295.29 802.173 1302.46 821.321 1309.4 839.842C1311.71 846.018 1313.9 851.853 1316.2 857.584C1324.92 879.219 1333.01 901.703 1340.26 924.421C1355.16 970.956 1367.7 1022.19 1378.57 1081.05L1378.26 1081.03Z" fill="#FFE492"/>
<path d="M1383.3 1069.67C1375.26 1010.87 1363.55 959.308 1347.51 912.05C1339.77 889.172 1330.79 866.717 1320.81 845.312C1318.69 840.738 1316.53 835.946 1314.45 831.312C1305.88 812.183 1297 792.398 1284.38 775.896C1278.46 768.125 1272.29 761.673 1265.51 756.168C1239.48 735.05 1204.04 732.826 1178.9 734.681C1161.88 735.904 1145.27 738.839 1129.21 741.678L1126.2 742.21C1111.62 744.78 1097.19 748.501 1081.91 752.44C1057.58 758.712 1032.42 765.197 1005.67 767.029C990.072 768.15 974.368 767.557 958.994 765.265C932.187 761.268 904.339 753.381 871.358 740.449C854.305 733.762 837.268 725.899 820.718 717.075C806.895 709.682 793.528 701.67 780.987 693.255C743.013 667.795 711.412 637.283 687.062 602.565C676.537 587.557 667.028 571.09 657.998 552.22C642.694 520.324 630.465 489.561 619.254 460.785C617.75 456.928 616.267 453.103 614.796 449.306C599.526 409.93 585.105 372.737 563.086 337.807C548.712 315.003 531.176 293.051 510.968 272.559C496.132 257.515 478.917 243.177 458.345 228.729C453.708 225.476 448.942 222.251 444.179 219.143C432.19 211.337 419.131 203.654 405.304 195.519C394.198 188.986 382.715 182.23 370.762 174.816C347.712 160.433 321.589 144.134 296.032 131.926C282.846 125.628 269.65 120.675 256.809 117.203C211.236 104.886 171.813 107.894 151.352 125.25L151.069 124.995C156.464 120.417 163.162 116.783 170.978 114.19C178.451 111.711 186.988 110.165 196.353 109.599C214.263 108.516 235.18 111.041 256.84 116.895C269.71 120.373 282.933 125.336 296.145 131.647C321.727 143.868 347.863 160.176 370.922 174.564C382.869 181.973 394.351 188.73 405.453 195.261C419.286 203.399 432.349 211.085 444.348 218.899C449.114 222.01 453.885 225.238 458.527 228.494C479.125 242.959 496.36 257.314 511.216 272.38C531.448 292.895 549.004 314.872 563.394 337.702C585.432 372.662 599.86 409.874 615.136 449.267C616.608 453.063 618.092 456.888 619.594 460.746C630.803 489.516 643.027 520.27 658.326 552.157C667.348 571.005 676.846 587.456 687.36 602.446C711.676 637.119 743.237 667.59 781.162 693.019C793.688 701.422 807.042 709.426 820.851 716.812C837.383 725.625 854.404 733.481 871.439 740.161C904.386 753.08 932.201 760.957 958.972 764.95C974.315 767.236 989.988 767.828 1005.56 766.71C1032.27 764.879 1057.42 758.397 1081.74 752.129C1097.03 748.187 1111.46 744.467 1126.06 741.894L1129.06 741.362C1145.13 738.523 1161.75 735.585 1178.79 734.361C1204.01 732.5 1239.57 734.739 1265.72 755.958C1272.53 761.483 1278.73 767.962 1284.67 775.762C1297.32 792.304 1306.2 812.106 1314.78 831.257C1316.87 835.891 1319.01 840.678 1321.14 845.25C1331.12 866.666 1340.11 889.133 1347.85 912.024C1363.9 959.303 1375.61 1010.88 1383.65 1069.7L1383.3 1069.67Z" fill="#FFE492"/>
<path d="M1388.33 1058.29C1383.23 1000.37 1372.03 946.997 1355.06 899.66C1346.83 876.614 1336.96 854.188 1325.72 833.005C1324.1 829.943 1322.45 826.791 1320.86 823.737C1310.31 803.577 1299.42 782.73 1284.56 766.17C1278.18 759.029 1271.66 753.149 1264.59 748.178C1237.47 729.119 1202.94 729.108 1178.75 732.455C1163.76 734.492 1149.25 738.01 1135.22 741.414C1132.79 742.004 1130.36 742.591 1127.94 743.17C1114.63 746.355 1101.32 750.819 1087.23 755.543C1063.28 763.575 1038.52 771.88 1011.45 774.531C995.551 776.086 980.166 775.501 964.405 772.743C931.441 766.972 902.112 754.946 877.769 743.947C861.306 736.505 844.739 727.844 828.528 718.198C815.116 710.189 802.182 701.616 790.087 692.718C754.22 666.347 723.875 634.778 699.895 598.887C689.917 583.955 680.524 567.271 671.176 547.877C661.719 528.314 653.092 509.762 644.747 491.819C639.078 479.624 633.721 468.105 628.428 456.965C608.418 414.854 589.603 377.123 561.946 341.843C545.745 321.178 526.878 301.582 505.869 283.602C490.81 270.713 473.658 258.768 451.891 246.006C447.192 243.258 442.366 240.529 437.547 237.896C430.221 233.908 422.532 229.974 414.392 225.811C398.773 217.822 381.067 208.764 362.821 197.577C355.873 193.317 348.827 188.897 342.013 184.62C324.485 173.622 306.361 162.25 288.564 152.787C275.495 145.839 262.568 140.247 250.148 136.169C205.931 121.657 166.765 120.874 145.375 134.074L145.088 133.757C150.689 130.3 157.501 127.752 165.336 126.18C172.86 124.671 181.37 124.055 190.623 124.349C208.455 124.915 229.058 128.883 250.21 135.826C262.659 139.912 275.615 145.515 288.714 152.48C306.53 161.953 324.661 173.331 342.198 184.334C349.011 188.609 356.057 193.029 363.003 197.289C381.232 208.466 398.924 217.517 414.535 225.503C422.678 229.667 430.37 233.603 437.703 237.595C442.528 240.231 447.358 242.963 452.063 245.715C473.86 258.492 491.038 270.458 506.121 283.366C527.156 301.37 546.05 320.99 562.27 341.682C574.763 357.618 586.465 375.426 598.046 396.122C608.414 414.649 617.84 433.814 628.806 456.89C634.098 468.032 639.455 479.551 645.126 491.747C653.47 509.687 662.098 528.239 671.551 547.8C680.889 567.173 690.272 583.841 700.239 598.755C724.184 634.598 754.487 666.123 790.304 692.457C802.384 701.343 815.302 709.905 828.7 717.906C844.891 727.542 861.44 736.193 877.885 743.624C902.196 754.612 931.487 766.621 964.393 772.382C980.109 775.133 995.455 775.717 1011.31 774.164C1038.33 771.518 1063.08 763.22 1087.01 755.195C1101.1 750.468 1114.42 746.002 1127.75 742.813C1130.17 742.234 1132.6 741.646 1135.02 741.058C1149.06 737.652 1163.58 734.13 1178.6 732.091C1194.34 729.914 1209.24 729.851 1222.87 731.896C1239.02 734.321 1253.13 739.709 1264.79 747.909C1271.89 752.904 1278.46 758.815 1284.85 765.981C1299.75 782.588 1310.67 803.463 1321.22 823.647C1322.82 826.7 1324.46 829.852 1326.09 832.913C1337.33 854.11 1347.21 876.558 1355.45 899.623C1364.46 924.758 1371.9 951.764 1377.57 979.89C1382.58 1004.75 1386.33 1031.15 1388.73 1058.34L1388.33 1058.29Z" fill="#FFE492"/>
<path d="M1393.36 1046.91C1391.1 989.056 1380.75 935.344 1362.61 887.276C1353.89 864.062 1343.13 841.661 1330.64 820.698C1330.04 819.702 1329.45 818.706 1328.85 817.705C1315.87 795.892 1302.45 773.339 1284.73 756.445C1277.87 749.904 1270.98 744.584 1263.68 740.195C1235.49 723.257 1201.86 725.428 1178.61 730.232C1164.96 733.012 1151.88 737.146 1139.23 741.144C1136.1 742.134 1132.86 743.155 1129.69 744.135C1117.59 747.87 1105.38 753.008 1092.45 758.451C1068.94 768.349 1044.63 778.585 1017.23 782.036C1001.38 784.032 985.874 783.44 969.82 780.225C938.195 773.89 909.97 760.726 884.181 747.444C868.279 739.254 852.182 729.791 836.339 719.321C823.34 710.696 810.842 701.564 799.189 692.179C765.494 665.06 736.402 632.434 712.73 595.211C703.25 580.305 694.234 563.885 684.361 543.538C665.564 504.926 651.145 477.049 637.612 453.153C610.696 405.624 587.729 373.546 560.822 345.891C542.808 327.378 522.61 310.141 500.787 294.655C485.645 283.912 468.579 274.238 445.451 263.293C440.71 261.056 435.825 258.823 430.931 256.659C426.304 254.623 421.568 252.616 416.554 250.489C398.038 242.64 377.052 233.742 354.888 220.344C343.206 213.283 331.508 205.664 320.197 198.295C307.34 189.921 294.047 181.262 281.098 173.652C268.114 166.022 255.457 159.791 243.487 155.141C200.674 138.502 161.758 133.93 139.391 142.909L139.124 142.526C144.934 140.192 151.862 138.73 159.712 138.177C167.291 137.643 175.766 137.955 184.908 139.103C202.665 141.332 222.959 146.748 243.592 154.766C255.594 159.432 268.279 165.674 281.293 173.322C294.254 180.939 307.555 189.603 320.416 197.981C331.724 205.347 343.415 212.964 355.088 220.02C377.213 233.393 398.177 242.281 416.671 250.122C421.688 252.249 426.427 254.26 431.057 256.295C435.957 258.463 440.845 260.697 445.592 262.936C468.754 273.899 485.85 283.588 501.023 294.356C522.878 309.862 543.104 327.124 561.143 345.665C588.088 373.356 611.078 405.468 638.018 453.037C651.557 476.942 665.98 504.828 684.782 543.451C694.649 563.783 703.654 580.185 713.124 595.075C736.765 632.246 765.812 664.824 799.458 691.903C811.095 701.275 823.579 710.395 836.558 719.01C852.385 729.467 868.46 738.918 884.342 747.099C910.092 760.36 938.269 773.504 969.821 779.824C985.815 783.028 1001.27 783.617 1017.06 781.628C1044.4 778.184 1068.69 767.959 1092.18 758.072C1105.11 752.627 1117.33 747.483 1129.44 743.744C1132.62 742.764 1135.86 741.743 1138.98 740.753C1151.64 736.752 1164.73 732.615 1178.41 729.83C1193.58 726.694 1208.16 725.701 1221.74 726.884C1237.66 728.266 1251.83 732.637 1263.87 739.873C1271.22 744.288 1278.15 749.632 1285.04 756.208C1302.81 773.155 1316.26 795.742 1329.26 817.585C1329.85 818.583 1330.45 819.585 1331.04 820.579C1343.55 841.569 1354.31 863.99 1363.05 887.233C1381.2 935.341 1391.56 989.096 1393.82 1047L1393.36 1046.91Z" fill="#FFE492"/>
<path d="M893.743 752.76C892.675 752.143 891.622 751.535 890.589 750.932C875.225 741.995 859.598 731.734 844.146 720.435C831.567 711.197 819.505 701.506 808.291 691.633C792.264 677.534 777.091 661.807 763.186 644.891C749.759 628.553 737.102 610.601 725.567 591.529C714.263 572.842 704.653 553.745 697.544 539.194C680.881 505.198 663.806 474.966 646.795 449.337C619.245 407.829 591.571 376.243 559.702 349.937C540.478 334.067 518.724 318.992 496.73 306.294C496.389 306.097 496.051 305.901 495.709 305.706C476.786 294.848 457.278 287.209 439.018 280.575C434.263 278.852 429.317 277.116 424.319 275.415C421.577 274.489 418.822 273.574 415.908 272.607C395.349 265.791 372.048 258.062 346.954 243.106C331.672 233.995 316.649 223.675 302.122 213.693C292.742 207.248 283.043 200.586 273.631 194.508C260.691 186.156 248.31 179.29 236.825 174.104C195.469 155.423 156.804 147.062 133.392 151.738L133.175 151.288C145.182 148.891 160.665 149.752 179.194 153.845C196.889 157.757 216.869 164.623 236.974 173.704C248.488 178.906 260.904 185.787 273.872 194.161C283.295 200.243 292.998 206.911 302.382 213.358C316.9 223.334 331.912 233.649 347.174 242.746C372.203 257.665 395.465 265.379 415.99 272.184C418.907 273.151 421.661 274.065 424.405 274.993C429.408 276.696 434.358 278.434 439.117 280.157C457.408 286.804 476.948 294.457 495.918 305.339C518.297 318.179 540.456 333.497 560.01 349.638C576.456 363.217 591.513 377.918 606.037 394.581C620.023 410.63 633.498 428.489 647.228 449.177C664.252 474.827 681.339 505.082 698.013 539.099C705.114 553.64 714.717 572.724 726.01 591.39C749.418 630.09 777.21 663.72 808.612 691.349C819.81 701.209 831.858 710.887 844.419 720.112C859.851 731.397 875.456 741.644 890.8 750.568C914.809 764.532 943.102 780.03 975.249 787.259C991.521 790.918 1007.08 791.515 1022.82 789.085C1050.46 784.817 1074.21 772.575 1097.19 760.737C1109.01 754.647 1120.17 748.895 1131.14 744.669C1134.65 743.314 1138.23 741.894 1141.69 740.52C1153.37 735.879 1165.45 731.081 1178.21 727.565C1192.83 723.484 1207.09 721.563 1220.61 721.857C1236.28 722.203 1250.52 725.551 1262.93 731.821C1270.6 735.688 1277.89 740.464 1285.22 746.424C1304.81 762.347 1320.41 784.75 1335.98 808.238C1349.56 828.72 1361.54 851.745 1370.65 874.835C1380.78 900.432 1388.3 927.946 1393 956.605C1397.19 982.141 1399.18 1008.74 1398.91 1035.65L1398.39 1035.54C1398.97 977.746 1389.47 923.696 1370.15 874.892C1361.07 851.842 1349.1 828.85 1335.55 808.404C1320 784.955 1304.44 762.596 1284.91 746.73C1277.62 740.803 1270.37 736.055 1262.76 732.209C1239.95 720.696 1210 719.199 1178.46 728.007C1165.73 731.518 1153.66 736.312 1141.98 740.947C1138.52 742.323 1134.94 743.743 1131.43 745.097C1120.48 749.316 1109.33 755.064 1097.52 761.149C1086.25 766.957 1074.59 772.964 1062.24 778.079C1048.24 783.877 1035.41 787.626 1023.01 789.54C1007.21 791.98 991.577 791.381 975.23 787.705C960.811 784.464 946.226 779.402 930.638 772.233C917.44 766.157 904.733 759.105 893.743 752.76Z" fill="#FFE492"/>
<path d="M923.847 771.127C914.139 765.522 905.073 759.69 896.992 754.419C882.135 744.728 866.978 733.668 851.947 721.546C839.795 711.703 828.165 701.455 817.383 691.084C787.849 662.705 762.011 628.934 738.395 587.843C728.094 569.924 719.075 551.835 710.723 534.848C694.202 501.361 675.786 471.309 655.98 445.522C626.851 407.598 595.905 378.51 558.591 353.983C537.329 340.008 513.832 327.136 490.637 316.756C471.223 308.066 451.316 302.654 432.587 297.851C427.899 296.656 422.893 295.417 417.711 294.168C416.415 293.858 415.106 293.549 413.781 293.233C391.998 288.071 367.35 282.23 340.38 266.658C339.925 266.396 339.473 266.132 339.016 265.863C320.852 255.185 303.387 242.413 286.496 230.058C279.799 225.16 272.873 220.096 266.159 215.357C253.042 206.101 241.267 198.805 230.155 193.055C189.742 172.139 152.279 160.29 127.372 160.551L127.241 160.045C139.554 159.916 155.546 162.867 173.486 168.574C191.131 174.188 210.797 182.507 230.357 192.631C241.5 198.398 253.306 205.711 266.451 214.987C273.173 219.731 280.1 224.797 286.799 229.695C303.675 242.036 321.124 254.797 339.254 265.455C366.66 281.569 391.711 287.505 413.808 292.741C415.133 293.055 416.443 293.365 417.74 293.674C422.926 294.923 427.934 296.163 432.627 297.361C451.387 302.171 471.33 307.595 490.797 316.307C514.028 326.704 537.563 339.597 558.86 353.595C577.352 365.749 594.082 378.899 610.005 393.792C626.405 409.131 641.591 425.979 656.43 445.301C676.259 471.121 694.701 501.21 711.24 534.731C719.587 551.713 728.601 569.791 738.893 587.692C762.478 628.728 788.276 662.449 817.763 690.783C828.53 701.136 840.143 711.371 852.278 721.202C867.288 733.307 882.422 744.352 897.259 754.027C922.225 770.308 949.23 786.858 980.678 794.682C997.226 798.798 1012.89 799.404 1028.57 796.53C1056.5 791.414 1080.7 776.415 1102.06 763.182C1112.8 756.523 1122.95 750.234 1132.83 745.581C1136.39 743.902 1140.02 742.136 1143.53 740.43C1154.52 735.087 1165.88 729.563 1178.01 725.287C1192.1 720.272 1206.05 717.427 1219.48 716.824C1234.9 716.131 1249.21 718.465 1262 723.759C1269.99 727.063 1277.65 731.277 1285.39 736.621C1307.04 751.564 1324.88 773.932 1340.93 795.885C1355.75 816.152 1368.65 839.156 1378.24 862.419C1388.94 888.253 1396.5 916.02 1400.72 944.949C1404.49 970.818 1405.59 997.509 1404 1024.29L1403.42 1024.15C1406.82 967.237 1397.92 911.333 1377.71 862.496C1368.14 839.278 1355.27 816.315 1340.47 796.085C1324.45 774.186 1306.67 751.874 1285.11 736.994C1277.41 731.677 1269.81 727.499 1261.86 724.206C1238.25 714.435 1208.58 714.984 1178.33 725.762C1166.21 730.028 1154.87 735.548 1143.89 740.885C1140.38 742.593 1136.75 744.359 1133.18 746.039C1123.33 750.681 1113.19 756.964 1102.45 763.615C1081.06 776.868 1056.82 791.891 1028.8 797.025C1013.04 799.913 997.284 799.306 980.642 795.167C966.2 791.574 951.65 785.92 936.156 777.877C931.961 775.711 927.85 773.438 923.847 771.127Z" fill="#FFE492"/>
<path d="M942.088 783.785C941.95 783.705 941.812 783.626 941.674 783.546C927.97 775.598 915.25 766.521 903.395 757.904C889.01 747.448 874.327 735.589 859.751 722.657C848.028 712.211 836.835 701.402 826.481 690.536C799.024 661.737 775.112 627.937 751.229 584.16C742.626 568.398 734.593 552.134 726.822 536.407C725.852 534.439 724.879 532.472 723.905 530.504C707.243 496.942 687.481 467.068 665.171 441.714C634.621 406.998 599.398 379.625 557.489 358.034C534.509 346.194 509.642 335.743 485.576 327.808C466.587 321.548 448.215 318.486 426.167 315.132C421.694 314.459 416.91 313.756 411.11 312.923L410.785 312.877C399.583 311.295 386.885 309.501 373.51 305.988C358.148 301.954 344.268 296.268 331.08 288.627C310.52 276.703 291.227 261.61 272.572 247.012C268.001 243.436 263.272 239.737 258.683 236.211C245.519 226.1 234.005 218.186 223.482 212.014C184.735 189.29 147.503 173.745 121.337 169.365L121.319 168.824C134.137 170.969 150.204 175.98 167.783 183.315C185.394 190.662 204.746 200.435 223.742 211.576C234.295 217.766 245.839 225.7 259.031 235.832C263.624 239.36 268.353 243.059 272.926 246.637C291.559 261.216 310.827 276.29 331.338 288.185C331.429 288.238 331.522 288.292 331.614 288.345C360.985 305.302 388.57 309.2 410.75 312.333L411.075 312.38C416.878 313.212 421.663 313.915 426.137 314.589C448.222 317.95 466.627 321.017 485.675 327.297C509.782 335.244 534.69 345.714 557.709 357.573C578.217 368.14 596.619 379.736 613.973 393.028C632.672 407.353 649.571 423.188 665.633 441.442C687.987 466.845 707.782 496.768 724.471 530.386C725.445 532.353 726.418 534.322 727.388 536.289C735.155 552.011 743.185 568.268 751.78 584.019C775.633 627.739 799.508 661.491 826.92 690.242C837.258 701.095 848.437 711.887 860.142 722.318C874.698 735.233 889.36 747.075 903.723 757.513C929.447 776.213 955.107 793.698 986.109 802.13C1002.93 806.706 1018.7 807.319 1034.32 803.999C1062.53 798.005 1086.04 780.703 1106.79 765.437C1116.5 758.29 1125.67 751.538 1134.52 746.522C1137.92 744.591 1141.39 742.565 1144.74 740.602C1155.23 734.471 1166.07 728.131 1177.82 723.036C1191.38 717.092 1205.02 713.315 1218.35 711.807C1233.53 710.086 1247.91 711.405 1261.06 715.717C1269.21 718.392 1277.06 721.935 1285.05 726.545C1285.22 726.645 1285.39 726.745 1285.56 726.846C1310.3 741.261 1330.79 764.72 1345.87 783.549C1361.94 803.604 1375.76 826.595 1385.85 850.031C1397.1 876.097 1404.7 904.116 1408.43 933.313C1411.78 959.513 1412 986.308 1409.08 1012.95L1408.46 1012.78C1412.8 973.14 1412.31 912.744 1385.26 850.121C1375.21 826.74 1361.42 803.805 1345.38 783.794C1330.35 765.021 1309.92 741.632 1285.31 727.288C1277.2 722.556 1269.24 718.946 1260.96 716.234C1236.6 708.24 1207.2 710.835 1178.18 723.54C1166.46 728.625 1155.63 734.958 1145.16 741.082C1141.81 743.045 1138.34 745.072 1134.93 747.004C1126.11 752.008 1116.94 758.751 1107.24 765.891C1086.46 781.185 1062.91 798.52 1034.59 804.538C1018.87 807.879 1002.99 807.262 986.052 802.654C971.698 798.748 957.311 792.574 942.088 783.785Z" fill="#FFE492"/>
<path d="M956.127 794.657C953.172 792.951 950.196 791.134 947.189 789.201C934.028 780.744 921.991 771.218 909.796 761.386C895.66 749.989 881.843 737.684 867.554 723.766C856.266 712.724 845.508 701.36 835.577 689.984C810.377 661.141 788.321 627.367 764.063 580.476C758.037 568.831 752.189 556.889 746.533 545.339C743.453 539.053 740.272 532.552 737.09 526.161C720.176 492.291 699.074 462.599 674.369 437.907C641.726 405.281 603.138 380.479 556.395 362.081C531.7 352.361 505.463 344.33 480.524 338.857C460.49 334.46 441.382 333.497 421.152 332.478L419.754 332.408C416.592 332.253 413.393 332.1 410.154 331.944C408.29 331.856 406.411 331.767 404.517 331.675C392.692 331.131 380.02 330.37 366.559 327.643C350.929 324.477 336.732 319.161 323.149 311.39C300.539 298.45 279.871 281.104 259.887 264.327C257.035 261.931 254.084 259.455 251.212 257.064C237.751 245.852 226.821 237.562 216.812 230.971C179.877 206.645 142.88 187.399 115.301 178.167L115.409 177.613C143.061 186.869 180.137 206.152 217.135 230.52C227.171 237.131 238.129 245.442 251.617 256.675C254.49 259.068 257.442 261.545 260.295 263.941C280.034 280.512 300.439 297.642 322.701 310.495C322.941 310.633 323.181 310.772 323.424 310.91C352.283 327.422 378.198 329.872 404.406 331.08C406.3 331.171 408.178 331.261 410.043 331.35C413.282 331.504 416.479 331.657 419.644 331.812L421.043 331.882C441.307 332.904 460.447 333.867 480.546 338.278C505.53 343.76 531.813 351.805 556.552 361.542C603.413 379.986 642.103 404.857 674.835 437.57C699.6 462.325 720.752 492.084 737.704 526.029C740.885 532.422 744.069 538.922 747.147 545.211C752.801 556.756 758.648 568.697 764.67 580.334C788.899 627.171 810.925 660.897 836.079 689.69C845.997 701.049 856.739 712.398 868.011 723.422C882.278 737.321 896.076 749.609 910.192 760.987C931.62 778.263 958.286 799.764 991.546 809.564C1008.65 814.602 1024.52 815.222 1040.08 811.455C1068.57 804.556 1091.31 784.847 1111.38 767.461C1120.1 759.907 1128.33 752.772 1136.21 747.452C1139.28 745.378 1142.4 743.209 1145.43 741.109C1155.58 734.068 1166.07 726.789 1177.62 720.773C1190.7 713.905 1204.02 709.197 1217.21 706.775C1232.18 704.037 1246.61 704.338 1260.11 707.668C1268.79 709.807 1277.16 712.877 1285.73 717.055C1297.2 722.648 1308.47 730.253 1320.16 740.288C1330.05 748.785 1340.08 758.895 1350.82 771.2C1368.14 791.047 1382.88 814.017 1393.45 837.627C1405.26 863.923 1412.91 892.203 1416.15 921.667C1419.07 948.2 1418.41 975.092 1414.18 1001.6L1413.5 1001.39C1422.44 945.429 1415.1 887.307 1392.82 837.733C1382.27 814.183 1367.57 791.279 1350.31 771.495C1327.18 744.982 1306.59 727.845 1285.51 717.563C1277 713.415 1268.68 710.366 1260.07 708.241C1227.93 700.311 1197.73 710.968 1178.05 721.303C1166.53 727.304 1156.05 734.575 1145.91 741.608C1142.89 743.708 1139.76 745.879 1136.69 747.954C1128.84 753.258 1120.61 760.385 1111.91 767.929C1091.8 785.355 1069 805.104 1040.38 812.034C1024.7 815.83 1008.7 815.207 991.464 810.127C979.782 806.685 968.142 801.594 956.127 794.657Z" fill="#FFE492"/>
<path d="M967.955 804.659C947.822 793.035 930.776 777.855 916.195 764.868C902.476 752.651 889.116 739.568 875.352 724.874C864.503 713.245 854.179 701.321 844.669 689.433C816.152 653.813 795.241 614.245 776.892 576.792C773.145 569.146 769.41 561.335 765.798 553.785C760.784 543.299 755.598 532.456 750.271 521.819C733.051 487.535 710.609 458.022 683.569 434.103C648.588 403.161 606.633 380.926 555.304 366.126C528.876 358.505 501.272 352.897 475.473 349.905C455.577 347.596 437.087 348.51 417.513 349.476C416.125 349.544 414.735 349.615 413.339 349.681L412.58 349.718C407.821 349.956 402.899 350.2 397.923 350.425C385.987 350.989 373.059 351.235 359.416 349.249C343.579 346.943 329.122 342.006 315.213 334.154C290.8 320.37 269.106 300.799 248.129 281.874C246.659 280.547 245.195 279.226 243.736 277.914C229.892 265.453 219.528 256.819 210.137 249.924C175.234 224.297 138.465 201.346 109.258 186.958L109.498 186.411C138.754 200.82 175.576 223.804 210.526 249.466C219.944 256.381 230.329 265.033 244.199 277.517C245.657 278.83 247.121 280.15 248.593 281.479C269.53 300.369 291.184 319.898 315.502 333.632C345.706 350.685 373.782 350.91 397.727 349.781C402.703 349.556 407.624 349.311 412.383 349.076L413.141 349.037C414.538 348.97 415.928 348.902 417.315 348.834C436.924 347.865 455.445 346.949 475.408 349.266C501.254 352.263 528.91 357.884 555.384 365.518C579.717 372.535 601.472 381.034 621.888 391.5C644.662 403.176 665.567 417.375 684.023 433.701C711.149 457.696 733.659 487.293 750.929 521.673C756.26 532.318 761.446 543.163 766.462 553.651C770.073 561.202 773.807 569.008 777.553 576.652C795.883 614.065 816.766 653.588 845.233 689.143C854.729 701.014 865.038 712.92 875.872 724.533C889.615 739.205 902.953 752.268 916.652 764.467C937.685 783.199 963.862 806.512 996.971 817C1014.35 822.502 1030.32 823.127 1045.82 818.913C1074.6 811.08 1096.5 788.866 1115.83 769.264C1123.59 761.388 1130.93 753.95 1137.89 748.383C1140.46 746.324 1143.09 744.179 1145.63 742.104C1155.58 733.988 1165.88 725.596 1177.41 718.511C1190.01 710.716 1203.02 705.074 1216.07 701.745C1230.8 697.983 1245.3 697.27 1259.16 699.619C1268.16 701.145 1276.9 703.646 1285.89 707.267C1297.99 712.145 1310.37 719.363 1322.69 728.724C1333.48 736.921 1344.6 747.056 1355.75 758.848C1374.31 778.481 1389.97 801.433 1401.03 825.217C1413.42 851.756 1421.09 880.283 1423.86 910.019C1426.35 936.881 1424.8 963.878 1419.25 990.253L1418.54 990.01C1430.3 934.122 1423.84 875.642 1400.37 825.345C1389.33 801.634 1373.73 778.761 1355.23 759.195C1331.25 733.83 1308.52 717.033 1285.71 707.845C1276.8 704.251 1268.12 701.767 1259.18 700.25C1226.19 694.66 1196.78 707.395 1177.91 719.065C1166.4 726.131 1156.13 734.511 1146.19 742.618C1143.65 744.692 1141.01 746.838 1138.44 748.9C1131.5 754.449 1124.18 761.877 1116.42 769.743C1107.12 779.172 1096.59 789.86 1085.02 798.908C1071.78 809.275 1059.06 816.02 1046.16 819.533C1038.71 821.562 1030.95 822.479 1023.12 822.255C1014.69 822.015 1005.86 820.451 996.867 817.602C986.579 814.345 976.957 809.856 967.955 804.659Z" fill="#FFE492"/>
<path d="M978.347 814.139C971.691 810.297 965.007 805.769 958.218 800.515C944.849 790.168 933.027 778.574 922.594 768.347C909.444 755.455 896.174 741.199 883.153 725.978C872.748 713.772 862.858 701.289 853.763 688.877C827.648 653.265 809.31 615.376 789.724 573.104C787.983 569.347 786.221 565.523 784.518 561.824C777.809 547.261 770.874 532.203 763.453 517.474C745.896 482.71 722.115 453.381 692.77 430.298C655.753 401.18 609.136 380.948 554.214 370.168C526.032 364.636 497.058 361.446 470.426 360.946C450.374 360.57 432.141 363.25 412.837 366.087C410.876 366.375 408.908 366.663 406.928 366.952C402.002 367.673 396.7 368.439 391.334 369.172C380.071 370.728 366.62 372.147 352.278 370.85C336.222 369.399 321.502 364.842 307.283 356.916C281.25 342.411 258.802 320.63 237.092 299.566L236.265 298.764C225.635 288.452 214.303 277.692 203.467 268.875C170.437 242 134.837 216.028 103.228 195.744L103.59 195.218C135.233 215.523 170.866 241.518 203.924 268.417C214.791 277.26 226.143 288.038 236.79 298.365L237.617 299.167C259.28 320.184 281.684 341.919 307.589 356.354C337.506 373.026 365.386 372.038 391.057 368.486C396.422 367.756 401.72 366.987 406.645 366.267C408.624 365.981 410.594 365.691 412.554 365.404C431.89 362.562 450.156 359.879 470.274 360.255C496.957 360.755 525.985 363.951 554.22 369.493C579.987 374.552 604.089 381.703 625.853 390.745C650.719 401.079 673.384 414.228 693.218 429.828C722.675 452.999 746.545 482.434 764.161 517.317C771.587 532.059 778.526 547.123 785.238 561.694C786.942 565.391 788.704 569.216 790.444 572.972C810.011 615.203 828.329 653.052 854.398 688.6C863.481 700.994 873.355 713.458 883.745 725.648C896.748 740.847 909.996 755.08 923.126 767.952C943.706 788.133 969.32 813.245 1002.41 824.44C1020.06 830.411 1036.14 831.044 1051.57 826.375C1080.64 817.578 1102.54 791.667 1120.14 770.848C1127 762.738 1133.47 755.077 1139.58 749.324C1141.5 747.51 1143.47 745.634 1145.37 743.819C1155.26 734.385 1165.49 724.632 1177.21 716.26C1195.4 703.196 1224.21 688.309 1258.21 691.58C1267.6 692.483 1276.7 694.414 1286.05 697.486C1310.53 705.457 1335.65 721.953 1360.69 746.506C1380.49 765.925 1397.08 788.859 1408.63 812.822C1421.58 839.591 1429.31 868.377 1431.58 898.383C1432.62 912.143 1432.49 926.126 1431.2 939.943C1429.95 953.135 1427.65 966.248 1424.34 978.916L1423.57 978.626C1438.16 922.815 1432.61 863.982 1407.92 812.961C1396.4 789.087 1379.89 766.246 1360.16 746.899C1335.24 722.46 1310.26 706.049 1285.92 698.123C1276.65 695.077 1267.61 693.157 1258.29 692.26C1224.53 689.013 1195.88 703.83 1177.78 716.831C1166.09 725.18 1155.88 734.921 1146 744.34C1144.09 746.156 1142.13 748.034 1140.2 749.85C1134.12 755.583 1127.65 763.232 1120.81 771.331C1111.95 781.807 1101.91 793.682 1090.61 803.835C1077.63 815.502 1064.99 823.091 1051.96 827.033C1044.53 829.281 1036.76 830.311 1028.87 830.093C1020.38 829.86 1011.43 828.173 1002.28 825.076C994.25 822.362 986.317 818.741 978.347 814.139Z" fill="#FFE492"/>
<path d="M987.721 823.228C979.744 818.622 971.792 812.965 963.733 806.171C950.673 795.165 939.154 782.764 928.991 771.822C916.198 758.048 903.399 742.995 890.954 727.081C880.993 714.304 871.54 701.263 862.857 688.32C838.959 652.715 822.532 615.126 805.141 575.332C804.28 573.363 803.42 571.392 802.556 569.419C794.462 550.925 786.094 531.8 776.636 513.133C758.723 477.851 733.603 448.702 701.975 426.495C662.249 398.6 612.169 381.009 553.126 374.207C523.593 370.803 492.43 370.016 465.379 371.987C444.953 373.475 426.713 377.886 407.401 382.559C405.115 383.111 402.821 383.667 400.515 384.218C395.906 385.325 390.429 386.63 384.741 387.916C374.198 390.314 360.169 392.997 345.146 392.434C328.873 391.826 313.891 387.657 299.347 379.682C287.412 373.095 275.2 364.163 262.013 352.374C250.691 342.253 240.267 331.549 228.785 319.612C218.329 308.672 207.247 297.209 196.784 287.823C165.795 260.022 132.285 231.997 97.1932 204.527L97.664 204.027C132.779 231.512 166.306 259.554 197.313 287.369C207.803 296.781 218.901 308.262 229.37 319.214C248.616 339.222 272.565 364.127 299.667 379.08C330.699 396.093 358.72 393.037 384.377 387.198C390.06 385.914 395.535 384.609 400.141 383.503C402.447 382.951 404.741 382.397 407.024 381.844C426.368 377.165 444.641 372.746 465.133 371.253C492.239 369.279 523.462 370.068 553.051 373.478C612.273 380.301 662.522 397.959 702.401 425.96C717.691 436.697 731.602 449.16 743.746 463.003C756.776 477.855 768.094 494.667 777.387 512.967C786.855 531.655 795.229 550.791 803.327 569.297C804.19 571.271 805.053 573.241 805.914 575.21C823.288 614.969 839.702 652.524 863.552 688.06C872.223 700.983 881.662 714.007 891.609 726.764C904.037 742.654 916.816 757.685 929.591 771.439C949.67 793.055 974.66 819.958 1007.84 831.881C1025.82 838.34 1042 838.981 1057.31 833.839C1086.71 824.106 1107.55 795.341 1124.3 772.23C1130.29 763.965 1135.95 756.158 1141.25 750.267C1142.35 749.052 1143.45 747.83 1144.55 746.599C1154.53 735.492 1164.84 724.004 1177.01 714.01C1194.46 699.604 1222.54 682.623 1257.25 683.542C1266.93 683.796 1276.4 685.158 1286.2 687.706C1299.84 691.22 1313.82 697.243 1327.75 705.598C1340.48 713.234 1353.22 722.844 1365.62 734.162C1386.67 753.365 1404.17 776.276 1416.22 800.418C1429.74 827.422 1437.5 856.465 1439.28 886.737C1440.11 900.632 1439.64 914.705 1437.88 928.566C1436.21 941.846 1433.36 954.972 1429.42 967.577L1428.61 967.243C1445.78 912.316 1441 851.571 1415.47 800.581C1403.46 776.54 1386.04 753.729 1365.09 734.607C1339.25 711.027 1311.95 695.053 1286.13 688.404C1276.41 685.878 1267.01 684.522 1257.41 684.272C1222.94 683.361 1195.01 700.258 1177.64 714.593C1165.51 724.561 1155.21 736.032 1145.25 747.126C1144.15 748.355 1143.05 749.579 1141.95 750.794C1136.66 756.662 1131.01 764.46 1125.03 772.713C1108.24 795.891 1087.33 824.738 1057.75 834.534C1050.37 837.012 1042.59 838.161 1034.63 837.949C1026.07 837.718 1017 835.904 1007.68 832.557C1000.96 830.136 994.331 827.044 987.721 823.228Z" fill="#FFE492"/>
<path d="M996.369 832.046C987.279 826.798 978.307 820.101 969.248 811.824C956.432 800.114 945.25 786.927 935.387 775.295C922.922 760.594 910.596 744.742 898.75 728.181C889.235 714.845 880.22 701.245 871.947 687.76C851.573 654.559 837.599 620.227 822.805 583.878C820.387 577.936 817.885 571.792 815.385 565.728C806.594 544.417 798.88 526.578 789.816 508.787C771.533 472.962 745.078 443.994 711.181 422.686C668.589 395.912 615.043 380.957 552.033 378.237C520.731 376.886 488.163 378.582 460.328 383.016C439.357 386.355 420.913 392.521 401.385 399.047C398.966 399.856 396.538 400.667 394.099 401.474C389.753 402.918 384.01 404.81 378.148 406.648C353.459 414.422 323.844 420.003 291.412 402.438C290.401 401.888 289.395 401.323 288.397 400.747C263.464 386.352 242.42 364.015 221.304 340.45L219.988 338.974C209.55 327.265 199.69 316.203 190.103 306.761C153.975 271.178 118.25 238.123 91.1633 213.301L91.7338 212.827C118.827 237.656 154.562 270.719 190.703 306.315C200.316 315.783 210.186 326.857 220.638 338.582L221.953 340.056C243.842 364.484 265.651 387.593 291.743 401.797C323.816 419.166 353.191 413.62 377.696 405.906C383.554 404.069 389.292 402.177 393.638 400.736C396.077 399.927 398.502 399.116 400.92 398.308C420.479 391.771 438.953 385.595 459.991 382.245C487.882 377.801 520.516 376.102 551.881 377.455C580.991 378.711 608.544 382.679 633.778 389.247C662.731 396.781 688.908 407.83 711.581 422.082C745.653 443.499 772.244 472.611 790.612 508.604C799.689 526.421 807.409 544.279 816.21 565.609C818.712 571.674 821.213 577.819 823.633 583.762C838.413 620.075 852.372 654.374 872.708 687.51C880.967 700.978 889.971 714.557 899.471 727.872C911.3 744.411 923.607 760.238 936.054 774.918C955.593 797.962 979.911 826.639 1013.28 839.313C1031.51 846.24 1047.8 846.888 1063.06 841.292C1092.76 830.516 1112.47 798.809 1128.32 773.33C1133.49 765.017 1138.37 757.166 1142.94 751.201L1143.04 751.065C1153.26 737.71 1163.83 723.903 1176.8 711.747C1188.09 701.128 1200.14 692.683 1212.63 686.644C1226.72 679.836 1241.41 676.085 1256.29 675.488C1266.25 675.088 1276.08 675.884 1286.35 677.911C1314.12 683.352 1343.24 698.531 1370.55 721.803C1381.55 731.172 1391.7 741.607 1400.74 752.821C1409.82 764.101 1417.59 775.939 1423.82 788.007C1437.9 815.247 1445.71 844.549 1447 875.092C1448.16 902.545 1443.84 930.605 1434.5 956.227L1433.65 955.851C1453.63 901.002 1449.77 839.897 1423.03 788.194C1410.53 763.995 1392.2 741.209 1370.02 722.311C1342.86 699.172 1313.92 684.085 1286.34 678.679C1276.15 676.665 1266.4 675.879 1256.52 676.273C1228.73 677.385 1201.41 689.861 1177.51 712.348C1164.57 724.473 1154.01 738.262 1143.81 751.596L1143.7 751.734C1139.16 757.675 1134.28 765.516 1129.12 773.817C1113.22 799.372 1093.44 831.175 1063.54 842.027C1056.18 844.726 1048.39 845.989 1040.38 845.783C1031.74 845.56 1022.56 843.623 1013.08 840.026C1007.44 837.882 1001.88 835.231 996.369 832.046Z" fill="#FFE492"/>
<path d="M280.131 423.342C268.982 416.905 257.812 408.213 246.093 396.868C234.448 385.595 223.704 373.11 213.826 361.298C212.04 359.154 210.27 357.022 208.513 354.905C199.763 344.364 191.499 334.408 183.426 325.707C151.232 291.022 120.166 258.616 90.1213 227.279L85.1428 222.086L85.8027 221.639L90.7798 226.833C120.826 258.174 151.897 290.582 184.097 325.275C192.192 333.998 200.467 343.966 209.227 354.521C210.982 356.638 212.752 358.77 214.537 360.91C234.815 385.158 256.866 410.041 283.826 424.523C316.996 442.274 347.85 433.9 371.022 424.624C376.953 422.254 382.752 419.827 387.14 417.977C389.561 416.959 391.97 415.937 394.374 414.918C414.307 406.467 433.134 398.484 454.855 393.249C483.525 386.342 517.568 382.148 550.716 381.445C581.469 380.792 610.756 383.156 637.767 388.475C668.749 394.575 696.673 404.581 720.764 418.213C757.075 438.623 785.031 467.575 803.842 504.251C814.262 524.595 822.456 544.826 829.099 561.934C832.713 571.244 836.249 580.689 839.67 589.823C851.774 622.161 864.292 655.598 881.867 686.972C889.716 700.99 898.286 715.128 907.338 728.992C918.55 746.132 930.386 762.757 942.522 778.408C961.491 802.871 985.097 833.314 1018.71 846.754C1037.21 854.152 1053.6 854.806 1068.8 848.755C1098.82 836.895 1117.32 802.128 1132.19 774.191C1136.59 765.931 1140.75 758.126 1144.62 752.149C1153.35 738.674 1163.75 723.155 1176.6 709.498C1187.47 697.915 1199.21 688.534 1211.49 681.616C1225.37 673.789 1240.13 669.026 1255.33 667.45C1265.41 666.409 1275.9 666.641 1286.5 668.136C1301.64 670.254 1317.22 675.08 1332.79 682.484C1347.38 689.418 1361.75 698.495 1375.49 709.456C1387.08 718.703 1397.76 729.074 1407.26 740.296C1416.82 751.584 1424.95 763.466 1431.41 775.607C1438.88 789.598 1444.64 804.358 1448.55 819.484C1452.25 833.813 1454.32 848.605 1454.71 863.453C1455.44 891.231 1450.21 919.393 1439.58 944.894L1438.69 944.465C1461.5 889.701 1458.55 828.234 1430.58 775.814C1417.78 751.796 1398.02 728.424 1374.95 710.013C1346.41 687.244 1315.85 673.05 1286.56 668.955C1276.04 667.467 1265.64 667.24 1255.64 668.275C1226.98 671.236 1200.65 685.308 1177.37 710.103C1164.55 723.722 1154.18 739.215 1145.46 752.669C1141.6 758.625 1137.45 766.417 1133.06 774.668C1125.72 788.45 1117.41 804.071 1107.09 817.857C1095.12 833.856 1082.77 844.214 1069.33 849.523C1062 852.442 1054.19 853.821 1046.13 853.622C1037.42 853.408 1028.12 851.347 1018.49 847.497C1013.64 845.555 1008.99 843.262 1004.53 840.691C977.866 825.294 958.117 799.823 941.787 778.764C929.634 763.089 917.779 746.44 906.553 729.276C897.487 715.392 888.905 701.233 881.045 687.196C863.433 655.756 850.903 622.285 838.786 589.917C835.367 580.785 831.831 571.342 828.22 562.038C821.586 544.951 813.404 524.749 803.003 504.443C784.293 467.963 756.502 439.181 720.396 418.881C663.784 386.849 597.001 381.29 550.946 382.269C517.865 382.972 483.891 387.154 455.281 394.049C433.626 399.269 414.826 407.238 394.924 415.675C392.52 416.695 390.108 417.717 387.687 418.736C383.296 420.586 377.494 423.014 371.558 425.387C361.831 429.282 347.031 434.581 330.873 435.631C323.027 436.14 315.285 435.631 307.86 434.117C299.582 432.429 291.378 429.43 283.481 425.203C282.361 424.606 281.245 423.985 280.131 423.342Z" fill="#FFE492"/>
<path d="M271.863 445.929C260.701 439.485 249.631 430.678 238.135 419.111C226.233 407.137 215.388 393.702 206.351 382.138C203.576 378.582 200.82 375.009 198.154 371.554C190.703 361.896 183.664 352.771 176.75 344.649C151.924 315.476 127.149 286.684 103.188 258.839C95.2616 249.628 87.0673 240.105 79.129 230.869L79.8708 230.446C87.809 239.682 96.0034 249.205 103.929 258.416C127.89 286.262 152.669 315.056 177.496 344.232C184.428 352.377 191.476 361.511 198.935 371.182C201.599 374.636 204.356 378.207 207.127 381.76C225.872 405.74 248.192 432.553 275.907 447.244C309.952 465.252 341.055 454.614 364.35 443.337C370.32 440.449 376.195 437.481 380.645 435.216C382.93 434.055 385.206 432.891 387.478 431.73C407.906 421.285 427.201 411.42 449.723 404.253C479.016 394.929 514.471 388.248 549.553 385.434C598.35 381.619 669.257 383.539 729.946 414.345C768.573 433.883 797.888 462.668 817.072 499.9C825.689 516.633 833.372 534.629 841.986 558.261C846.34 570.203 850.48 582.366 854.484 594.125C864.902 624.721 875.672 656.359 891.024 686.44C898.46 701.014 906.595 715.709 915.203 730.117C925.632 747.555 937 764.979 948.988 781.905C967.442 807.833 990.409 840.105 1024.14 854.2C1042.61 861.975 1059.57 862.654 1074.54 856.224C1104.89 843.235 1122.83 803.676 1135.92 774.791C1139.6 766.685 1143.07 759.028 1146.3 753.103C1153.49 739.934 1163.4 722.822 1176.39 707.256C1198.88 680.273 1225.12 664.178 1254.38 659.424C1264.64 657.725 1275.5 657.37 1286.65 658.364C1302.51 659.77 1318.88 664.004 1335.3 670.957C1350.77 677.505 1365.94 686.304 1380.42 697.116C1392.6 706.27 1403.83 716.591 1413.77 727.785C1423.82 739.095 1432.31 751.012 1439.01 763.211C1446.76 777.311 1452.68 792.2 1456.6 807.466C1460.31 821.933 1462.27 836.855 1462.42 851.819C1462.7 879.914 1456.57 908.183 1444.66 933.563L1443.73 933.088C1469.37 878.406 1467.33 816.575 1438.14 763.444C1424.9 739.346 1404.21 716.006 1379.88 697.729C1349.83 675.279 1317.64 661.971 1286.77 659.235C1275.72 658.253 1264.94 658.602 1254.76 660.286C1225.7 665.01 1199.61 681.018 1177.24 707.869C1164.28 723.392 1154.39 740.471 1147.22 753.615C1143.99 759.52 1140.53 767.166 1136.86 775.261C1130.09 790.192 1122.41 807.116 1112.49 822.233C1100.92 839.833 1088.7 851.216 1075.12 857.029C1067.81 860.171 1059.99 861.669 1051.87 861.482C1043.08 861.28 1033.66 859.091 1023.89 854.98C1008.72 848.638 994.456 838.23 980.289 823.157C967.975 810.055 957.458 795.28 948.181 782.247C936.174 765.297 924.792 747.849 914.348 730.385C905.726 715.957 897.58 701.241 890.133 686.646C874.748 656.503 863.966 624.832 853.538 594.204C849.536 582.448 845.395 570.291 841.046 558.36C832.446 534.769 824.776 516.806 816.18 500.112C797.112 463.097 767.986 434.492 729.605 415.078C669.175 384.405 598.5 382.498 549.849 386.302C514.837 389.109 479.456 395.778 450.225 405.081C427.766 412.228 408.499 422.08 388.102 432.509C385.83 433.671 383.552 434.836 381.268 435.997C376.814 438.263 370.936 441.235 364.959 444.124C341.458 455.503 310.056 466.225 275.543 447.967C274.317 447.316 273.088 446.636 271.863 445.929Z" fill="#FFE492"/>
<path d="M263.666 468.561C233.166 450.952 209.537 417.972 188.591 388.734C182.154 379.75 176.075 371.264 170.072 363.59L73.1138 239.652L73.9307 239.253L170.889 363.19C176.908 370.884 182.995 379.38 189.44 388.377C211.195 418.744 235.856 453.165 267.987 469.967C302.874 488.213 334.245 475.321 357.677 462.054C365.34 457.715 372.937 453.184 380.285 448.802C400.381 436.819 421.16 424.427 444.588 415.254C463.192 407.971 484.791 401.54 507.049 396.657C531.469 391.299 556.324 387.799 580.919 386.252C608.037 384.548 634.185 385.283 658.635 388.438C685.679 391.928 710.575 398.388 732.64 407.638C776.841 426.17 809.699 455.744 830.297 495.54C847.416 528.61 858.083 563.441 868.399 597.126C877.379 626.446 886.665 656.762 900.178 685.898C915.789 719.549 934.386 753.023 955.453 785.391C973.204 812.662 995.296 846.604 1029.58 861.636C1058.54 874.332 1082.41 869.319 1102.57 846.305C1119.71 826.73 1130.68 798.1 1139.5 775.097C1142.5 767.257 1145.34 759.854 1147.99 754.048C1162.57 722.043 1178.88 698.089 1197.85 680.82C1209.69 670.045 1222.7 661.86 1236.52 656.494C1251.97 650.5 1268.88 647.838 1286.8 648.581C1302.31 649.225 1318.34 652.449 1334.46 658.16C1349.8 663.6 1364.89 671.165 1379.32 680.655C1407.67 699.305 1431.57 724.217 1446.6 750.8C1454.63 765.007 1460.7 780.023 1464.64 795.434C1468.37 810.036 1470.22 825.089 1470.14 840.174C1469.97 868.586 1462.92 896.959 1449.73 922.215L1448.77 921.69C1476.83 867.899 1475.68 804.111 1445.68 751.053C1413.83 694.709 1347.08 651.996 1286.98 649.498C1227.44 647.025 1182.3 681.383 1148.96 754.539C1146.33 760.326 1143.49 767.722 1140.49 775.552C1131.66 798.604 1120.67 827.296 1103.44 846.959C1094.06 857.669 1083.63 864.605 1072.43 867.579C1066.14 869.249 1059.44 869.719 1052.53 868.972C1045.17 868.176 1037.36 865.98 1029.29 862.444C1026 860.999 1022.75 859.353 1019.54 857.503C1007.86 850.761 996.747 841.294 985.793 828.793C973.452 814.711 962.984 798.627 954.572 785.705C933.476 753.293 914.853 719.773 899.22 686.073C885.674 656.874 876.38 626.524 867.391 597.172C857.087 563.53 846.434 528.742 829.357 495.756C808.896 456.23 776.265 426.856 732.369 408.452C643.575 371.225 521.248 386.324 445.167 416.107C421.803 425.253 401.051 437.628 380.981 449.596C373.63 453.98 366.029 458.514 358.359 462.857C342.802 471.664 329.53 476.74 316.592 478.826C308.517 480.128 300.522 480.213 292.83 479.08C284.277 477.82 275.79 475.011 267.605 470.731C266.284 470.037 264.968 469.313 263.666 468.561Z" fill="#FFE492"/>
</g>
</svg>
