<svg width="514" height="38" viewBox="0 0 514 38" fill="none" xmlns="http://www.w3.org/2000/svg">
<path d="M482.818 18.9788C482.116 19.0114 481.406 19.0346 480.718 19.0824C480.272 19.1124 480.079 19.029 479.78 18.9861C479.68 18.9711 479.573 18.9409 479.481 18.945C478.786 18.9776 478.091 19.014 477.395 19.0505C477.184 19.1255 477.05 19.2251 476.724 19.2623C476.405 19.2976 476.029 19.2987 475.674 19.3169C475.206 19.3393 474.738 19.3617 474.27 19.3822C474.036 19.3925 473.844 19.4293 473.767 19.4982C473.753 19.5096 473.91 19.5378 473.995 19.5547C474.28 19.611 474.558 19.675 474.871 19.718C475.17 19.759 475.538 19.6893 475.858 19.7417C476.577 19.8597 476.584 19.8578 477.131 19.8332C477.599 19.8108 478.067 19.7866 478.535 19.7699C478.627 19.7658 478.734 19.7941 478.834 19.809C479.133 19.8501 479.326 19.9449 479.766 19.9073C480.099 19.8777 480.468 19.8709 480.815 19.8546C481.107 19.909 481.378 19.9711 481.691 20.014C481.983 20.0551 482.068 20.0873 481.913 20.1431C481.772 20.195 481.573 20.2166 481.311 20.2212C481.077 20.2238 480.843 20.2416 480.608 20.2519C480.488 20.258 480.374 20.2621 480.261 20.2682C479.814 20.2905 479.814 20.2905 478.996 20.1709C478.675 20.1242 478.315 20.192 478.009 20.1472C477.802 20.1173 477.624 20.0721 477.425 20.0402C477.339 20.0272 477.204 20.0256 477.098 20.0298C476.743 20.0442 476.388 20.0548 476.048 20.0806C475.807 20.0985 475.666 20.1523 475.695 20.2057C475.702 20.2266 475.873 20.2566 475.973 20.2582C476.2 20.2614 476.441 20.2339 476.661 20.2466C476.874 20.2593 477.095 20.2968 477.252 20.3383C477.573 20.425 477.933 20.3458 478.239 20.3677C478.559 20.3916 478.823 20.4671 479.129 20.5119C479.207 20.5231 479.356 20.5036 479.476 20.4975C479.824 20.4831 480.172 20.4706 480.519 20.4562C480.811 20.5107 481.124 20.5593 481.388 20.6215C481.865 20.7345 482.377 20.7768 482.994 20.7196C483.341 20.688 483.682 20.6985 483.96 20.772C484.245 20.8474 484.572 20.8388 484.934 20.8225C485.267 20.8062 485.607 20.7632 485.949 20.8156C486.689 20.9316 486.696 20.9373 487.568 20.8889C487.831 20.8748 488.03 20.8704 488.229 20.9136C488.414 20.9531 488.614 20.9869 488.806 21.0244C489.153 21.01 489.508 20.9956 489.856 20.9793C490.303 20.957 490.552 20.9829 490.66 21.0894C490.725 21.1541 490.754 21.2131 490.911 21.2565C491.096 21.3093 491.295 21.3068 491.564 21.2907C491.82 21.2766 492.004 21.2551 492.109 21.1861C492.152 21.1574 492.236 21.1304 492.314 21.1073C492.378 21.0899 492.477 21.063 492.534 21.0666C492.64 21.0739 492.782 21.0944 492.818 21.1191C493.17 21.3488 493.17 21.3508 493.526 21.4164C493.917 21.4896 494.323 21.5552 494.679 21.638C495 21.7114 495.319 21.6781 495.667 21.677C495.929 21.6762 496.1 21.7253 496.08 21.775C496.066 21.8036 495.967 21.8458 495.882 21.8499C495.187 21.8901 494.485 21.9247 493.782 21.9535C493.697 21.9576 493.59 21.9236 493.491 21.9067C493.291 21.873 493.113 21.8201 492.9 21.8093C492.687 21.7985 492.439 21.8279 492.205 21.8381C491.971 21.8483 491.722 21.8739 491.509 21.8593C491.296 21.8447 491.125 21.7899 490.925 21.7542C490.833 21.7373 490.705 21.7129 490.627 21.7189C490.109 21.7662 489.725 21.7044 489.355 21.6216C489.276 21.6047 489.141 21.5937 489.042 21.5978C488.219 21.6327 487.403 21.6733 486.58 21.712C486.247 21.7283 485.976 21.6623 485.903 21.55C485.867 21.4872 485.795 21.4245 485.794 21.3615C485.792 21.2471 485.401 21.1853 485.117 21.1996C484.649 21.22 484.173 21.2367 483.712 21.2667C483.336 21.2907 483.016 21.2688 482.76 21.2009C482.461 21.1236 482.12 21.1399 481.78 21.1619C481.524 21.178 481.454 21.2411 481.471 21.3994C481.487 21.5271 481.367 21.5675 480.906 21.5899C480.324 21.6183 479.735 21.6468 479.146 21.6696C479.054 21.6736 478.947 21.6415 478.855 21.6247C478.655 21.5909 478.477 21.5361 478.264 21.5253C478.051 21.5126 477.803 21.542 477.568 21.5541C477.334 21.5644 477.086 21.5918 476.873 21.5791C476.66 21.5664 476.482 21.5098 476.289 21.4741C476.197 21.4572 476.083 21.4327 475.991 21.4368C475.522 21.4535 475.054 21.4778 474.586 21.5002C474.061 21.5247 474.061 21.5247 473.314 21.4087C472.972 21.3563 472.632 21.3993 472.299 21.4155C471.944 21.4319 471.61 21.4405 471.332 21.365C471.147 21.316 470.941 21.2861 470.721 21.2963C470.132 21.321 469.55 21.3513 468.961 21.376C468.862 21.3801 468.727 21.371 468.649 21.3541C468.271 21.2751 467.901 21.2133 467.376 21.2549C466.923 21.2906 466.433 21.294 465.979 21.3278C465.731 21.3457 465.618 21.4071 465.668 21.4546C465.697 21.4793 465.847 21.5075 465.946 21.5072C466.173 21.5084 466.421 21.479 466.635 21.4898C467.075 21.5114 467.298 21.6709 467.872 21.6253C468.212 21.5976 468.567 21.587 468.922 21.5783C469.014 21.5761 469.114 21.612 469.214 21.6308C469.498 21.6814 469.748 21.7474 470.159 21.7119C470.5 21.6841 470.861 21.6754 471.209 21.6591C471.762 21.6327 471.762 21.6346 472.481 21.7488C472.823 21.803 473.163 21.7582 473.496 21.7438C473.745 21.7335 473.979 21.7137 474.178 21.7398C474.484 21.779 474.705 21.8698 475.081 21.863C475.436 21.8562 475.784 21.8284 476.138 21.8178C476.358 21.8115 476.565 21.8413 476.743 21.8923C476.928 21.9432 477.127 21.9655 477.369 21.9534C477.716 21.937 478.071 21.9169 478.426 21.9063C478.525 21.9041 478.639 21.9209 478.732 21.9359C478.931 21.9696 479.123 22.0091 479.315 22.0448C479.663 22.0323 480.018 22.0274 480.358 22.0035C480.621 21.9855 480.805 21.9926 481.019 22.0301C481.29 22.0808 481.511 22.1717 481.951 22.1265C482.17 22.1048 482.426 22.1098 482.646 22.09C482.915 22.0644 483.1 22.0734 483.292 22.1301C483.656 22.2377 484.11 22.2382 484.578 22.1948C485.089 22.1475 485.473 22.1998 485.858 22.2825C486.264 22.3691 486.264 22.3671 486.579 22.5779C486.672 22.6386 486.935 22.6665 487.155 22.6544C487.524 22.6342 487.844 22.6427 488.115 22.7144C488.4 22.7917 488.74 22.7812 489.088 22.7592C489.549 22.7292 490.01 22.703 490.388 22.8125C490.573 22.8653 490.772 22.878 491.021 22.8639C491.723 22.8275 492.432 22.8044 493.12 22.7604C493.539 22.7324 493.781 22.7927 494.066 22.8433C494.45 22.9127 494.87 22.9744 494.872 23.1251C494.873 23.1499 494.973 23.1782 495.058 23.197C495.243 23.2365 495.443 23.2702 495.635 23.3078C495.92 23.3641 496.197 23.411 496.587 23.3793C496.928 23.3535 497.289 23.3448 497.637 23.3265C497.985 23.3083 498.304 23.2978 498.617 23.3694C498.981 23.4503 499.365 23.5273 499.778 23.5871C500.07 23.6301 500.452 23.5546 500.765 23.6128C500.957 23.6484 501.143 23.6898 501.349 23.7197C501.434 23.7328 501.569 23.7228 501.683 23.7187C501.917 23.7104 502.158 23.7039 502.385 23.6842C502.647 23.6624 502.846 23.6656 503.046 23.7089C503.231 23.7484 503.416 23.8031 503.629 23.8139C503.949 23.8301 504.303 23.7528 504.624 23.8395C504.788 23.8829 504.994 23.9242 505.207 23.937C505.42 23.9497 505.668 23.9203 505.896 23.9215C505.995 23.9212 506.116 23.9514 506.173 23.976C506.209 23.9892 506.16 24.0256 506.111 24.0448C506.047 24.0679 505.955 24.0987 505.863 24.1028C505.161 24.1393 504.458 24.17 503.756 24.2045C503.337 24.2249 503.337 24.2249 502.491 24.1073C502.292 24.0792 502.072 24.0856 501.823 24.0997C501.49 24.1179 501.15 24.1513 500.801 24.1181C500.345 23.9898 499.784 23.98 499.188 24.0314C498.94 24.0531 498.713 24.0538 498.528 24.0181C498.136 23.9468 497.724 23.8813 497.374 23.7965C497.104 23.7306 496.976 23.7253 496.864 23.8171C496.829 23.8459 496.794 23.8765 496.801 23.9031C496.845 23.9984 496.925 24.0916 496.969 24.1868C496.983 24.2135 496.927 24.2442 496.892 24.2729C496.78 24.3533 496.63 24.348 496.381 24.282C496.131 24.216 495.833 24.1731 495.436 24.2048C495.095 24.2325 494.726 24.2298 494.386 24.2595C493.861 24.303 493.491 24.2431 493.113 24.1622C493.035 24.1453 492.9 24.1361 492.801 24.1403C491.744 24.1873 490.694 24.2401 489.637 24.2871C489.41 24.2973 489.203 24.2693 489.025 24.2184C488.84 24.1674 488.633 24.1414 488.406 24.1516C487.47 24.1945 486.533 24.2335 485.597 24.2859C485.214 24.3081 484.908 24.2842 484.645 24.2182C484.445 24.1692 484.26 24.1545 484.012 24.161C483.742 24.1675 483.551 24.1872 483.417 24.2429C483.29 24.2967 483.383 24.3288 483.667 24.3699C483.973 24.4148 484.258 24.4731 484.55 24.5256C484.784 24.5172 485.018 24.5013 485.245 24.5025C485.345 24.5022 485.438 24.5362 485.537 24.555C485.822 24.6095 486.086 24.664 486.49 24.6323C486.83 24.6045 487.192 24.5977 487.54 24.5795C488.022 24.5571 488.022 24.5571 488.805 24.6749C489.004 24.7048 489.217 24.7022 489.472 24.6843C489.692 24.6703 489.92 24.6963 490.077 24.753C490.141 24.7757 490.12 24.814 489.987 24.9402C489.989 25.0337 490.137 24.9913 490.186 24.9301C490.263 24.8421 490.113 24.814 489.83 24.8625C489.632 24.8974 489.533 24.9473 489.583 24.9872C489.612 25.0081 489.747 25.0344 489.987 24.9402C490.61 24.8239 491.086 24.8091 491.54 24.7772C491.809 24.7593 491.98 24.7664 492.193 24.8153C492.45 24.8737 492.706 24.9359 493.125 24.9041C493.579 24.8684 494.061 24.8631 494.522 24.8331C494.948 24.8051 495.169 24.8884 495.44 24.9372C495.767 24.9953 496.128 24.9275 496.427 24.9609C496.74 24.9943 496.961 25.0775 497.323 25.0917C497.848 25.0386 498.183 25.133 498.581 25.1947C498.894 25.2414 499.263 25.1984 499.596 25.1764C499.972 25.1524 500.285 25.1724 500.549 25.2403C500.848 25.3176 501.181 25.2994 501.522 25.2812C502.316 25.2407 502.345 25.2349 502.808 25.3384C503.142 25.4136 503.462 25.3784 503.795 25.3678C504.087 25.4184 504.372 25.4729 504.678 25.5177C504.756 25.5289 504.905 25.5094 505.025 25.5033C505.373 25.487 505.728 25.4707 506.075 25.4544C506.309 25.4442 506.557 25.4148 506.77 25.4256C506.984 25.4383 507.162 25.4931 507.354 25.5288C507.546 25.5644 507.746 25.6 507.931 25.6376C508.216 25.694 508.486 25.7409 508.883 25.7111C509.224 25.6852 509.579 25.6765 509.933 25.6583C510.38 25.636 510.366 25.6417 511.198 25.7537C511.647 25.8153 512.107 25.7376 512.561 25.7286C512.788 25.7241 513.009 25.7444 513.166 25.7992C513.23 25.8219 513.209 25.8601 513.231 25.8925C512.06 25.9475 510.883 25.9949 509.726 26.0613C509.279 26.0875 509.044 26.0195 508.802 25.963C508.403 25.8727 507.88 26.0078 507.502 25.8907C507.273 25.8208 506.946 25.7817 506.556 25.8172C506.329 25.837 506.088 25.8358 505.854 25.8537C505.258 25.8974 504.712 25.901 504.234 25.7708C504.07 25.7256 503.836 25.7015 503.665 25.6581C503.465 25.611 503.273 25.5849 503.039 25.5951C501.982 25.6441 500.932 25.693 499.882 25.7458C499.79 25.7499 499.698 25.7788 499.62 25.8C499.422 25.854 499.487 25.8958 499.807 25.9291C499.913 25.9402 499.999 25.9648 500.099 25.9835C500.291 26.0192 500.469 26.0759 500.682 26.0886C500.895 26.1013 501.144 26.0739 501.378 26.0636C501.612 26.0534 501.86 26.024 502.073 26.0348C502.286 26.0475 502.464 26.1023 502.664 26.136C502.756 26.1529 502.87 26.1812 502.963 26.179C503.431 26.1661 503.892 26.1438 504.36 26.1252C504.652 26.1758 504.902 26.2494 505.25 26.2656C505.47 26.2763 505.704 26.2546 505.931 26.2578C506.031 26.2594 506.159 26.2876 506.209 26.3123C506.238 26.3274 506.146 26.3659 506.075 26.3851C505.807 26.4584 505.437 26.4462 505.104 26.4701C504.742 26.4959 504.416 26.4893 504.138 26.4158C503.952 26.3667 503.746 26.3407 503.519 26.3509C502.93 26.3775 502.348 26.4078 501.759 26.4306C501.66 26.4347 501.539 26.4179 501.447 26.4048C500.7 26.2907 500.699 26.2869 500.174 26.3133C499.401 26.3518 499.401 26.3518 498.882 26.2523C498.782 26.2335 498.675 26.1976 498.59 26.1998C497.767 26.2328 496.951 26.2658 496.135 26.3121C495.865 26.3262 495.681 26.3268 495.481 26.2778C495.31 26.2364 495.111 26.1893 494.898 26.1785C494.677 26.1677 494.436 26.1971 494.202 26.2073C493.968 26.2175 493.72 26.2431 493.514 26.2284C493.301 26.2138 493.115 26.161 492.93 26.1234C492.738 26.0839 492.532 26.0864 492.27 26.1025C491.461 26.1488 491.454 26.1431 490.65 26.0273C490.557 26.0142 490.437 25.9993 490.337 26.0034C489.748 26.0281 489.167 26.0584 488.578 26.0831C488.351 26.0933 488.13 26.0692 487.973 26.0144C487.909 25.9917 487.93 25.9534 487.886 25.8792C487.836 25.8622 487.893 25.8925 487.908 25.9211C488.014 25.917 488.142 25.9204 488.22 25.9049C488.418 25.8681 488.517 25.8201 488.467 25.7802C488.438 25.7593 488.303 25.733 488.218 25.7332C488.061 25.7337 487.927 25.7761 487.886 25.8792C487.44 25.9435 486.964 25.9583 486.503 25.9902C486.234 26.0101 486.063 26.001 485.85 25.9521C485.593 25.8918 485.33 25.8335 484.911 25.8653C484.457 25.901 483.975 25.9082 483.507 25.9363C482.968 25.9684 482.731 25.7975 482.276 25.8026C481.808 25.8079 481.34 25.8417 480.872 25.866C480.46 25.8863 480.46 25.8863 479.606 25.7649C479.293 25.7201 478.925 25.7879 478.619 25.7412C478.413 25.7113 478.235 25.6661 478.035 25.6342C477.95 25.6211 477.815 25.6215 477.709 25.6257C477.12 25.6503 476.524 25.6674 475.957 25.7111C475.311 25.7626 474.821 25.7107 474.358 25.5995C473.776 25.6223 473.187 25.6355 472.612 25.6735C472.194 25.7014 471.951 25.6392 471.667 25.5886C471.567 25.5717 471.481 25.5434 471.375 25.536C471.268 25.5287 471.141 25.5444 471.027 25.5504C470.559 25.5728 470.076 25.5838 469.622 25.6195C469.062 25.6651 468.847 25.5093 468.414 25.4916C468.124 25.5859 467.97 25.7141 467.395 25.7254C466.927 25.7344 466.458 25.7664 465.99 25.7888C465.756 25.799 465.522 25.8112 465.288 25.8214C464.912 25.8397 464.736 25.9146 464.815 26.0288C464.859 26.0916 464.895 26.1544 464.932 26.2173C465.005 26.3296 464.829 26.4255 464.531 26.4397C463.708 26.4784 462.892 26.519 462.069 26.5539C461.849 26.5641 461.635 26.5323 461.457 26.4814C461.272 26.4304 461.066 26.4082 460.839 26.4184C460.016 26.4571 459.2 26.4977 458.377 26.5326C458.285 26.5367 458.164 26.518 458.071 26.503C457.872 26.4693 457.68 26.4298 457.487 26.3942C457.019 26.4128 456.558 26.4256 456.097 26.4498C455.352 26.4864 455.352 26.4883 454.804 26.3851C454.704 26.3663 454.604 26.3304 454.512 26.3326C454.157 26.3413 453.809 26.3614 453.455 26.3796C452.412 26.4324 452.412 26.4323 452.106 26.376C451.828 26.3235 451.579 26.2594 451.16 26.2912C450.706 26.3269 450.224 26.3398 449.756 26.3602C449.408 26.3746 449.06 26.391 448.713 26.3958C448.62 26.398 448.52 26.3621 448.421 26.3433C448.136 26.285 447.858 26.2382 447.468 26.2718C447.241 26.2915 447 26.2961 446.766 26.3063C446.156 26.3349 446.156 26.3348 445.153 26.2234C445.054 26.2123 444.933 26.1993 444.833 26.2053C444.01 26.2421 443.195 26.2827 442.372 26.3176C442.272 26.3218 442.152 26.3107 442.052 26.3014C440.929 26.1942 440.929 26.1942 439.737 26.2512C439.283 26.2716 439.269 26.2793 438.791 26.1797C438.578 26.1364 438.4 26.116 438.152 26.1301C437.215 26.1787 436.272 26.212 435.343 26.2683C434.924 26.2924 434.682 26.2359 434.397 26.1853C434.297 26.1684 434.19 26.1306 434.105 26.1328C433.169 26.1718 432.232 26.2185 431.296 26.2576C431.211 26.2616 431.104 26.2238 431.004 26.2069C430.812 26.1732 430.626 26.1222 430.413 26.1114C430.193 26.1007 429.952 26.13 429.711 26.1403C429.122 26.1668 429.122 26.1649 428.439 26.0545C428.346 26.0395 428.225 26.0189 428.133 26.023C427.196 26.0639 426.253 26.0992 425.324 26.1573C424.792 26.1894 424.429 26.1352 424.051 26.0562C423.973 26.0393 423.838 26.0321 423.739 26.0362C422.682 26.0832 421.632 26.136 420.575 26.183C420.355 26.1932 420.141 26.1615 419.963 26.1124C419.678 26.0351 419.344 26.0456 418.99 26.0638C418.174 26.1063 418.167 26.1045 417.683 26.0144C417.583 25.9956 417.497 25.9711 417.391 25.9619C417.291 25.9526 417.164 25.9587 417.057 25.9629C416.589 25.9833 416.121 26.0057 415.652 26.0281C415.184 26.0505 414.709 26.0634 414.248 26.0972C413.68 26.139 413.409 26.0158 413.01 25.9598C412.429 25.9863 411.833 26.0034 411.258 26.0452C410.818 26.077 410.611 25.9937 410.32 25.9507C410.22 25.9358 410.113 25.9037 410.021 25.9078C408.964 25.9529 407.907 26.0019 406.857 26.0565C406.601 26.0687 406.431 26.054 406.217 26.0089C405.74 25.9073 405.719 25.9112 404.924 25.9517C404.576 25.9699 404.243 25.9862 403.944 25.9089C403.68 25.8391 403.36 25.8229 402.984 25.8469C402.523 25.8769 402.048 25.8936 401.58 25.9141C401.112 25.9365 400.643 25.9665 400.175 25.9775C399.799 25.9881 399.57 25.8992 399.272 25.8543C399.179 25.8413 399.051 25.8397 398.945 25.8439C398.477 25.8624 397.994 25.8772 397.54 25.911C396.987 25.9527 396.68 25.8488 396.289 25.7889C396.203 25.7758 396.061 25.7839 395.955 25.7899C395.132 25.8267 394.316 25.8673 393.493 25.906C393.202 25.8554 392.903 25.8068 392.611 25.7561C392.143 25.7766 391.674 25.799 391.206 25.8195C390.851 25.8358 390.489 25.8426 390.156 25.8722C389.724 25.9117 389.509 25.8227 389.218 25.7797C389.118 25.7647 389.011 25.7326 388.919 25.7367C388.33 25.7595 387.741 25.7842 387.159 25.8183C386.606 25.8524 386.384 25.6814 385.929 25.6847C385.461 25.688 384.978 25.7143 384.525 25.75C384 25.7916 383.63 25.7317 383.252 25.6508C383.174 25.6339 383.039 25.6248 382.94 25.6289C382.351 25.6535 381.769 25.6839 381.18 25.7085C381.081 25.7127 380.96 25.7035 380.86 25.6924C379.737 25.5832 379.737 25.5813 379.248 25.6057C378.9 25.622 378.545 25.6421 378.191 25.6527C378.091 25.6568 377.97 25.64 377.878 25.625C377.138 25.5109 377.137 25.509 376.605 25.5335C376.137 25.5559 375.669 25.5783 375.201 25.6007C374.909 25.5501 374.61 25.5014 374.318 25.4508C373.736 25.4773 373.14 25.4982 372.566 25.5342C372.296 25.5503 372.119 25.5451 371.912 25.4981C371.656 25.4416 371.399 25.3756 370.974 25.4093C370.52 25.445 370.037 25.4503 369.576 25.4803C369.023 25.5163 368.793 25.3434 368.346 25.3467C367.878 25.35 367.395 25.3762 366.941 25.4119C366.417 25.4536 366.047 25.3937 365.669 25.3128C365.591 25.2959 365.456 25.2867 365.356 25.2909C364.065 25.3501 362.781 25.4092 361.49 25.4722C360.696 25.5109 360.696 25.5128 359.182 25.4124C359.075 25.4051 358.961 25.3979 358.855 25.402C358.387 25.4206 357.904 25.4354 357.45 25.4691C356.897 25.5109 356.59 25.4088 356.199 25.347C356.114 25.3339 355.979 25.342 355.865 25.3461C355.511 25.3605 355.163 25.3788 354.808 25.3951C354.34 25.4175 353.872 25.4399 353.404 25.4623C353.112 25.4136 352.813 25.363 352.521 25.3143C351.939 25.3408 351.343 25.3559 350.769 25.3977C350.329 25.4296 350.122 25.3501 349.83 25.3052C349.731 25.2902 349.624 25.2581 349.531 25.2603C348.474 25.3055 347.417 25.3525 346.367 25.4091C345.935 25.4333 345.735 25.348 345.443 25.305C345.343 25.292 345.229 25.2676 345.137 25.2717C344.435 25.3005 343.732 25.335 343.03 25.3695C342.633 25.3898 342.633 25.3898 341.765 25.2742C341.665 25.2611 341.552 25.2481 341.452 25.2522C339.225 25.3543 337.004 25.4621 334.777 25.5642C334.549 25.5744 334.343 25.5464 334.165 25.4954C333.98 25.4445 333.773 25.4184 333.546 25.4286C332.61 25.4715 331.666 25.5106 330.737 25.563C330.354 25.5851 330.048 25.5612 329.785 25.4953C329.585 25.4463 329.4 25.4278 329.152 25.44C328.684 25.4643 328.216 25.4847 327.747 25.5071C327.279 25.5295 326.811 25.5519 326.343 25.5743C325.875 25.5967 325.399 25.6096 324.938 25.6434C324.371 25.6851 324.092 25.5677 323.701 25.5098C322.998 25.5405 322.296 25.5712 321.601 25.6038C320.664 25.6467 319.728 25.6934 318.791 25.7344C318.706 25.7384 318.599 25.7044 318.5 25.6876C318.208 25.6408 317.994 25.5747 317.561 25.5969C315.461 25.7043 313.347 25.7965 311.24 25.9021C310.8 25.9244 310.607 25.8429 310.309 25.8C310.209 25.7869 310.095 25.7606 310.003 25.7647C308.832 25.8159 307.662 25.8728 306.491 25.9278C306.016 25.9502 306.016 25.9502 305.219 25.8344C305.127 25.8213 305.005 25.8045 304.906 25.8086C303.381 25.878 301.863 25.9513 300.337 26.0226C300.11 26.0329 299.904 26.0068 299.719 25.9558C299.541 25.9049 299.327 25.8769 299.107 25.8871C297.703 25.9524 296.291 26.0157 294.893 26.0867C294.517 26.1069 294.205 26.0907 293.934 26.0229C293.741 25.9738 293.549 25.9534 293.308 25.9656C291.201 26.0654 289.094 26.1614 286.987 26.2669C286.583 26.2872 286.298 26.2518 286.042 26.1897C285.835 26.1407 285.658 26.1317 285.402 26.1401C285.133 26.1504 284.97 26.1719 284.821 26.2296C284.631 26.3045 284.512 26.3983 284.057 26.4054C283.589 26.4126 283.114 26.4369 282.653 26.4707C282.213 26.5045 282.006 26.4192 281.728 26.3686C281.522 26.333 281.33 26.3278 281.068 26.3458C280.827 26.3618 280.678 26.3946 280.537 26.4561C280.227 26.5867 280.198 26.5868 279.814 26.5059C279.607 26.4627 279.422 26.4289 279.195 26.4372C278.258 26.4782 277.322 26.523 276.385 26.5697C275.846 26.5961 275.839 26.5999 275.433 26.5058C275.234 26.4587 275.042 26.4364 274.808 26.4485C272.232 26.5707 269.657 26.6891 267.082 26.817C266.685 26.8373 266.414 26.7981 266.13 26.7417C266.037 26.7229 265.944 26.6965 265.838 26.6892C265.731 26.6819 265.611 26.6899 265.497 26.694C263.624 26.7817 261.744 26.8655 259.878 26.9627C259.453 26.985 259.225 26.9246 258.933 26.8759C258.833 26.8591 258.748 26.8326 258.641 26.8253C258.534 26.8199 258.407 26.8336 258.293 26.8397C256.42 26.9273 254.54 27.0112 252.675 27.1084C252.228 27.1307 252.035 27.0512 251.743 27.0101C251.644 26.9951 251.537 26.9668 251.445 26.9709C250.856 26.9937 250.274 27.0241 249.685 27.0506C248.28 27.1178 246.876 27.1812 245.471 27.2502C244.932 27.2767 244.695 27.1076 244.241 27.1166C243.652 27.1279 243.07 27.1678 242.481 27.1963C242.013 27.2187 241.545 27.2392 241.077 27.2635C240.616 27.2858 240.616 27.2858 239.464 27.1787C239.364 27.1694 239.244 27.1565 239.144 27.1606C237.505 27.2361 235.86 27.3116 234.228 27.3928C233.852 27.4111 233.539 27.4025 233.269 27.3328C233.076 27.2838 232.877 27.2596 232.643 27.2717C230.181 27.3878 227.727 27.504 225.265 27.6182C225.173 27.6223 225.052 27.6035 224.959 27.5886C224.76 27.5548 224.567 27.5154 224.375 27.4797C224.234 27.524 224.05 27.5646 223.959 27.6145C223.832 27.6816 223.662 27.7012 223.392 27.7134C223.123 27.7257 222.952 27.7224 222.738 27.6735C222.482 27.6132 222.218 27.5663 221.8 27.5866C219.225 27.7145 216.649 27.831 214.074 27.957C213.649 27.9774 213.449 27.8941 213.15 27.8511C213.05 27.838 212.936 27.8174 212.844 27.8215C211.787 27.8686 210.737 27.9194 209.68 27.9684C206.75 28.1069 203.82 28.2397 200.897 28.3858C200.365 28.4122 200.003 28.3656 199.625 28.2847C199.547 28.2678 199.412 28.2587 199.312 28.2628C195.212 28.4544 191.111 28.648 187.018 28.8415C186.798 28.8517 186.585 28.8218 186.406 28.7727C186.221 28.7218 186.015 28.6976 185.788 28.7079C183.915 28.7955 182.042 28.8832 180.169 28.9727C179.701 28.9951 179.694 28.997 179.21 28.9069C179.11 28.8882 179.003 28.8523 178.925 28.8563C178.762 28.8664 178.606 28.9145 178.494 28.9797C178.381 29.0487 178.204 29.0683 177.942 29.0824C177.672 29.0966 177.495 29.0914 177.288 29.0463C177.024 28.9898 176.782 28.9353 176.357 28.9556C170.972 29.216 165.587 29.4667 160.203 29.7252C159.77 29.7456 159.57 29.6661 159.271 29.6231C159.172 29.6101 159.072 29.5913 158.966 29.5878C158.852 29.5843 158.732 29.5961 158.618 29.6022C149.835 30.0158 141.053 30.4313 132.27 30.845C131.745 30.8694 131.752 30.8694 131.18 31.0466C131.109 31.0678 131.017 31.0967 130.918 31.1008C128.229 31.2309 125.533 31.3573 122.838 31.4837C121.667 31.5387 120.497 31.5956 119.326 31.6488C118.907 31.6672 118.907 31.6672 117.91 31.8762C117.825 31.8936 117.726 31.9168 117.626 31.9209C112.944 32.1429 108.262 32.3649 103.572 32.5831C103.204 32.5994 102.906 32.6347 102.737 32.7267C102.617 32.7919 102.462 32.8305 102.228 32.8427C98.9501 32.9975 95.6727 33.1542 92.388 33.3053C91.9978 33.3236 91.7642 33.3777 91.5738 33.4584C91.5103 33.4853 91.4539 33.516 91.3619 33.5353C91.277 33.5527 91.1494 33.5588 91.0429 33.5649C88.2336 33.6973 85.4244 33.8336 82.6079 33.9603C82.1894 33.9787 82.02 34.0498 81.8152 34.1248C81.7446 34.1498 81.6954 34.1843 81.6034 34.2017C81.5113 34.2173 81.3765 34.2177 81.2629 34.2218C78.9218 34.3319 76.5808 34.4438 74.2397 34.5539C73.7852 34.5457 73.6875 34.6566 73.4684 34.724C73.3907 34.7472 73.3345 34.7778 73.2424 34.7934C73.1433 34.8089 73.0153 34.8074 72.8947 34.8116C71.0218 34.8992 69.149 34.9926 67.269 35.0746C66.8362 35.093 66.7524 35.1905 66.5192 35.258C66.4414 35.2792 66.3639 35.3119 66.2717 35.3179C65.1012 35.3767 63.9307 35.4317 62.7601 35.4848C62.3699 35.5032 62.3699 35.5013 61.6842 35.6922C61.6064 35.7134 61.5144 35.7366 61.4151 35.7426C59.6628 35.828 57.9035 35.9095 56.1441 35.993C55.9171 36.0033 55.7617 36.0495 55.6491 36.1147C55.5365 36.1799 55.3739 36.2223 55.1468 36.2325C53.7422 36.2997 52.3374 36.3688 50.9327 36.4302C50.5425 36.4467 50.2877 36.4951 50.1187 36.5814C49.9919 36.6467 49.8362 36.6796 49.5879 36.6917C48.1832 36.757 46.7787 36.828 45.3668 36.8857C44.9553 36.9022 44.7432 36.9676 44.574 37.0483C44.4402 37.1135 44.2843 37.1369 44.0218 37.1491C41.4466 37.2675 38.8643 37.3859 36.2963 37.5157C35.8636 37.5379 35.6424 37.4719 35.3577 37.425C34.9521 37.3595 34.5748 37.2882 34.5726 37.1394C34.5722 37.1165 34.4511 37.0902 34.3656 37.0714C33.7316 36.9302 33.7316 36.9302 33.6299 36.778C33.5717 36.6847 33.5063 36.5895 33.4552 36.4943C33.3605 36.3382 33.1326 36.2989 32.48 36.3294C32.2458 36.3397 32.0118 36.3537 31.7776 36.362C31.43 36.3764 31.1664 36.3143 31.1007 36.2001C31.0643 36.1372 31.0208 36.0744 30.9843 36.0116C31.3391 35.9953 31.3318 35.9934 31.953 35.7608C32.2142 35.6627 32.2143 35.6627 31.7088 35.5669C31.5166 35.5313 31.3313 35.4918 31.1249 35.4581C31.0324 35.4431 30.9116 35.4339 30.8123 35.438C30.2234 35.4627 29.6418 35.4912 29.06 35.5196C28.1236 35.5644 28.1235 35.5644 27.1693 35.3727C27.0909 35.3577 26.9698 35.3295 26.9838 35.3142C27.0608 35.2434 27.252 35.2123 27.4932 35.2039C27.848 35.1914 28.1955 35.1713 28.5432 35.155C28.7773 35.1447 29.0114 35.1326 29.2455 35.1224C29.4645 35.0492 29.6907 34.978 29.8954 34.903C30.2202 34.7876 30.22 34.7837 29.7716 34.705C29.4868 34.6524 29.1808 34.6057 28.889 34.557C28.5414 34.5733 28.1867 34.5915 27.8391 34.6059C27.3992 34.6244 27.2211 34.5887 27.1057 34.4651C27.0046 34.3567 27.1239 34.2629 27.4643 34.2389C27.8118 34.215 28.1382 34.1988 28.3142 34.101C28.4832 34.007 28.7807 33.9699 29.1498 33.9611C29.384 33.9547 29.618 33.9406 29.8521 33.9285C30.1571 33.9123 30.319 33.8146 30.2534 33.706C30.2168 33.6356 30.1449 33.5767 29.8678 33.5623C28.6387 33.4992 28.6244 33.5012 28.0119 33.3733C27.955 33.362 27.9119 33.3278 27.933 33.3106C27.968 33.2819 28.0455 33.2397 28.1306 33.2337C28.9464 33.1893 29.7621 33.1487 30.5781 33.1176C30.8477 33.1073 31.0463 33.0933 31.1375 33.0225C31.2638 32.9248 31.2056 32.8354 30.9562 32.7694C30.8777 32.7486 30.7494 32.7223 30.6643 32.7245C29.7277 32.7616 28.7985 32.8083 27.8619 32.8454C27.7768 32.8495 27.6202 32.8176 27.5843 32.7929C27.5126 32.7473 27.6181 32.686 27.8663 32.6643C28.1924 32.6347 28.526 32.6317 28.7446 32.5357C29.0478 32.3994 29.4221 32.2743 29.7609 32.1436C29.8173 32.1206 29.9091 32.0764 29.8877 32.0726C29.7096 32.0312 29.5032 31.9994 29.318 31.9599C29.0046 31.8941 29.0032 31.8007 29.0728 31.7108C29.1285 31.6382 29.341 31.6089 29.6037 31.6081C29.7172 31.6078 29.8592 31.6074 29.9512 31.5899C30.192 31.5472 30.2693 31.4936 30.148 31.4539C30.0766 31.4312 29.9484 31.3992 29.8633 31.4033C28.3451 31.4708 26.8196 31.5364 25.3087 31.6192C24.8618 31.6434 24.655 31.5715 24.3844 31.5209C24.1779 31.4814 23.9859 31.4667 23.7308 31.4961C23.4898 31.5236 23.2554 31.509 23.1053 31.4465C22.9839 31.3954 23.1961 31.3509 23.7704 31.2996C23.8767 31.2897 23.9973 31.2836 24.0751 31.2643C24.8954 31.0559 24.8954 31.054 25.4629 31.0256C26.0162 30.9991 26.0163 30.9972 26.3057 30.8857C26.4398 30.8338 26.588 30.7818 26.7149 30.7281C26.7643 30.7069 26.849 30.6685 26.8205 30.6572C26.6634 30.5985 26.4501 30.5858 26.2019 30.5999C25.6486 30.634 24.9952 30.6093 24.7069 30.7913C24.5944 30.8603 24.4172 30.8799 24.1618 30.8922C21.5936 31.0105 19.0255 31.1365 16.4502 31.2511C16.0316 31.2695 15.8411 31.3406 15.679 31.4193C15.538 31.4846 15.3821 31.5041 15.1125 31.5164C14.8429 31.5286 14.63 31.535 14.4728 31.4725C14.3799 31.4347 14.4572 31.381 14.6694 31.327C14.9735 31.2498 14.9152 31.1546 14.8145 31.0653C14.7426 31.0064 14.5219 30.9651 14.2877 30.9696C13.9399 30.9783 13.6067 31.0002 13.3144 30.9248C13.1434 30.8815 12.9299 30.8516 12.7377 30.814C12.3673 30.7369 11.9969 30.658 11.4795 30.711C11.1243 30.693 10.8747 30.6251 10.59 30.5726C10.113 30.4863 10.0702 30.473 10.4095 30.3786C10.7913 30.2725 10.491 30.1361 10.7023 30.0325C10.9278 29.9212 11.2388 29.823 11.5141 29.7192C11.5847 29.6923 11.6482 29.6673 11.7188 29.6403C11.5549 29.6027 11.4052 29.5555 11.2131 29.5293C10.9641 29.4958 10.8357 29.4542 10.8481 29.3359C10.7981 29.3189 10.8199 29.3627 10.8769 29.374C10.941 29.3852 11.0971 29.3752 11.175 29.3616C11.3732 29.3248 11.4718 29.2768 11.4215 29.2369C11.3927 29.216 11.2576 29.1897 11.1724 29.19C11.0162 29.1904 10.882 29.2328 10.8409 29.3359C10.047 29.4165 9.22401 29.4571 8.40099 29.4901C8.31586 29.4942 8.20886 29.4564 8.10918 29.4376C7.78163 29.3737 7.78162 29.3756 6.82296 29.3595C6.72354 29.3579 6.58832 29.3316 6.53822 29.305C6.33058 29.1893 6.33578 29.0615 6.2345 28.9378C6.41785 28.8572 6.60109 28.7784 6.79157 28.6997C7.1725 28.5402 7.66741 28.3995 7.96292 28.225C7.8976 28.1318 7.81098 28.0386 8.12217 27.9614C9.00809 27.8633 9.00105 27.8634 9.24102 27.7711C9.92566 27.5096 10.6031 27.2463 11.3162 26.9886C11.5069 26.9213 11.5064 26.885 11.1652 26.8575C11.0586 26.8501 10.9448 26.8486 10.8313 26.8527C10.4765 26.8671 10.1221 26.9025 9.77414 26.896C9.42621 26.8913 9.16936 26.8081 8.88461 26.7575C8.59274 26.705 8.30085 26.6506 8.00894 26.5961C7.67537 26.6029 7.3426 26.6573 7.00763 26.5724C6.75105 26.5065 6.43088 26.4597 6.13898 26.4053C6.35684 26.2597 6.76695 26.1478 7.08446 26.0191C7.37374 25.9019 7.38071 25.9038 8.16024 25.8118C8.52874 25.7687 8.65324 25.5528 8.33993 25.4908C7.96251 25.4157 7.56397 25.3463 7.17952 25.275C6.84595 25.2817 6.50605 25.3343 6.18529 25.2494C5.93583 25.1853 5.65114 25.1423 5.23978 25.1683C4.54471 25.2124 3.83515 25.2355 3.13287 25.2719C2.89168 25.2841 2.62882 25.2773 2.52135 25.2127C2.44966 25.1672 2.65458 25.1036 2.88865 25.0896C3.24331 25.0694 3.56238 25.0456 3.7384 24.9497C3.90732 24.8538 4.21921 24.8243 4.58815 24.8098C4.68748 24.8057 4.8008 24.7825 4.85014 24.7594C5.10402 24.648 5.38654 24.5518 5.93323 24.554C6.15981 24.5152 6.27969 24.4671 6.208 24.4216C6.16503 24.3969 6.01553 24.3649 5.9304 24.369C5.34148 24.3899 4.75257 24.4107 4.17807 24.4468C3.90854 24.4628 3.70262 24.4673 3.53137 24.4106C3.4101 24.3728 3.4732 24.3211 3.69952 24.2651C3.89757 24.2168 3.95358 24.1613 3.93839 24.0965C3.90059 23.946 3.68691 23.9028 3.00555 23.9144C2.51583 23.9235 2.39476 23.899 2.2863 23.7697C2.25744 23.7392 2.18593 23.6975 2.2353 23.6764C2.53858 23.5458 2.73492 23.385 3.30901 23.3222C3.53583 23.2986 3.7771 23.2979 3.91832 23.2479C4.05955 23.1979 4.18652 23.1403 4.33487 23.0921C4.51857 23.0344 4.64541 22.9806 4.55967 22.9446C4.4167 22.8802 4.18952 22.8752 3.92721 22.8989C3.70033 22.9186 3.459 22.9212 3.22491 22.9334C2.80638 22.9556 2.46495 22.9071 2.41397 22.8233C2.27572 22.6025 2.13034 22.3836 2.00628 22.1627C1.99168 22.1361 2.02655 22.1016 2.08299 22.0786C2.28054 21.9979 2.49243 21.9209 2.69711 21.8421C2.93711 21.7518 3.32078 21.7678 3.64707 21.7496C4.10813 21.7234 4.108 21.7253 4.72282 21.5404C4.96308 21.4672 5.38238 21.4946 5.62986 21.429C5.70763 21.4077 5.82779 21.373 5.8062 21.354C5.77742 21.3293 5.63523 21.3107 5.52857 21.2996C5.42901 21.2884 5.30826 21.2831 5.20187 21.2891C3.91069 21.3483 2.6267 21.4113 1.33549 21.4686C1.11557 21.4788 0.873554 21.4376 0.794562 21.3787C0.715628 21.3236 0.735837 21.2568 0.720678 21.1939C0.925355 21.1151 1.15843 21.0419 1.33462 20.9575C1.46851 20.8922 1.62428 20.8631 1.89399 20.8585C2.24885 20.8517 2.59639 20.8278 2.99367 20.8094C3.72772 20.5287 4.44732 20.2348 5.23816 19.9539C5.55589 19.8405 5.47618 19.7262 5.53824 19.6059C5.60044 19.4951 6.07631 19.5108 6.39527 19.4775C6.65043 19.45 6.73457 19.3887 6.63455 19.347C6.57738 19.3224 6.44923 19.2942 6.34984 19.2945C6.11557 19.2952 5.88157 19.3131 5.64745 19.3233C5.41333 19.3336 5.14349 19.3287 4.95231 19.3617C4.76821 19.3927 4.64844 19.4579 4.5286 19.5136C4.39465 19.575 4.21762 19.5965 3.94792 19.6012C3.60012 19.606 3.25255 19.6242 2.90491 19.6386C2.52042 19.5654 2.12169 19.4941 1.75134 19.4171C1.68012 19.402 1.66518 19.3582 1.67184 19.3296C1.6849 19.2552 1.57774 19.2097 1.34292 19.1742C1.14368 19.1442 0.979723 19.1009 0.794566 19.0633C0.935761 19.0114 1.09124 18.9613 1.20398 18.9057C1.45067 18.7886 1.76178 18.7037 2.30136 18.7059C2.5132 18.6309 2.68213 18.5388 2.9582 18.4865C3.22011 18.4361 3.66813 18.4844 3.86518 18.3712C3.96372 18.3156 4.11193 18.2523 4.30325 18.2288C4.60795 18.1916 5.00578 18.2095 5.18163 18.1022C5.28718 18.0408 5.44245 17.9851 5.64809 17.9692C5.8821 17.9513 6.12335 17.9468 6.29317 17.91C6.38517 17.8907 6.4841 17.8599 6.48369 17.8332C6.48343 17.816 6.34115 17.7897 6.24159 17.7786C6.1491 17.7655 6.02813 17.7563 5.92171 17.7605C5.56693 17.773 5.2194 17.795 4.86463 17.8075C4.7653 17.8116 4.65155 17.7986 4.54488 17.7875C4.23206 17.7579 4.25273 17.7197 4.50015 17.6503C4.7476 17.5828 4.92386 17.4965 5.12854 17.4176C5.3555 17.4036 5.63951 17.4085 5.79514 17.3718C6.0569 17.3119 6.24011 17.2255 6.45195 17.1505C6.68604 17.1383 6.92734 17.1338 7.14709 17.1121C7.23926 17.1042 7.28125 17.0621 7.35896 17.0371C7.50021 16.989 7.61994 16.92 7.81127 16.8965C8.1231 16.8613 8.50664 16.8734 8.68962 16.768C8.79517 16.7066 8.9574 16.6413 9.15611 16.6369C9.70972 16.6276 9.94239 16.522 10.2248 16.422C10.4367 16.3469 10.8916 16.3837 11.1247 16.3086C11.2802 16.2605 11.3929 16.201 11.5484 16.1548C11.612 16.1355 11.7467 16.1256 11.8531 16.1195C12.4348 16.0892 13.0237 16.0664 13.6053 16.0342C13.6975 16.0282 13.7823 15.9993 13.853 15.9762C14.0013 15.9262 14.0924 15.8572 14.2765 15.8242C14.4606 15.7913 14.7232 15.7905 14.9503 15.7803C15.681 15.7495 15.738 15.7569 16.0692 15.5938C16.3369 15.4614 16.9986 15.5528 17.2165 15.4072C17.343 15.3229 17.5761 15.2536 17.9948 15.2428C18.5838 15.2277 19.1654 15.1897 19.7542 15.1631C20.2792 15.1386 20.2721 15.1386 20.8373 14.9596C21.0917 14.8787 21.4682 14.889 21.8016 14.8728C22.1563 14.8564 22.4825 14.8326 22.6514 14.7367C22.8203 14.6427 23.1322 14.6113 23.494 14.5968C23.8275 14.5825 24.204 14.5909 24.4655 14.5138C25.1016 14.3288 25.0945 14.3269 25.5414 14.3065C26.2438 14.2738 26.9461 14.2412 27.6484 14.2067C28.1166 14.1843 28.6064 14.179 29.0459 14.1357C29.3648 14.1042 29.5052 13.997 29.7099 13.922C30.2916 13.8917 30.8732 13.8613 31.4549 13.8328C32.2707 13.7922 33.0937 13.7554 33.9166 13.7167C34.2705 13.6432 34.3178 13.4828 34.914 13.4734C35.2689 13.4685 35.6164 13.4427 35.9711 13.4264C36.5599 13.3979 37.1415 13.3618 37.7305 13.3467C38.1776 13.3358 38.254 13.2326 38.4873 13.167C38.565 13.1439 38.6356 13.1113 38.7278 13.1053C39.6498 13.0491 40.6009 13.0348 41.5013 12.9539C41.5934 12.946 41.678 12.9056 41.6989 12.877C41.7128 12.8617 41.5917 12.8334 41.5134 12.8203C41.4209 12.8054 41.3 12.7905 41.2007 12.7946C38.2708 12.9312 35.3409 13.0697 32.411 13.2063C31.9995 13.2266 31.9995 13.2247 31.0017 13.4375C30.9168 13.4549 30.8176 13.4743 30.7112 13.4803C30.243 13.5046 29.7676 13.5194 29.3066 13.5494C28.9307 13.5734 28.6181 13.5515 28.3473 13.4836C28.1549 13.4346 27.9557 13.42 27.7144 13.4245C27.4448 13.4311 27.2677 13.4526 27.1123 13.5045C26.9075 13.5757 26.8024 13.6676 26.3697 13.688C24.3761 13.776 22.3825 13.8735 20.3961 13.9672C20.1189 13.9414 19.9834 13.9017 20.0537 13.8538C20.0958 13.8251 20.1805 13.7867 20.2656 13.7826C21.0814 13.7401 21.9043 13.7033 22.7201 13.6627C22.8336 13.6567 22.9898 13.66 23.0534 13.6407C23.3645 13.554 23.476 13.4144 24.0651 13.4031C24.4058 13.3963 24.7532 13.3667 25.0793 13.339C25.1715 13.3311 25.2561 13.2908 25.2769 13.2621C25.2838 13.2468 25.1698 13.2186 25.0844 13.2055C24.7712 13.1511 24.4102 13.219 24.0973 13.1818C23.9906 13.1687 23.8411 13.1501 23.8195 13.1273C23.805 13.1063 23.9251 13.0716 24.01 13.0504C24.0878 13.0311 24.194 13.0136 24.3003 13.0076C25.2368 12.9609 26.1733 12.9123 27.1098 12.8751C27.493 12.8606 27.7619 12.8121 27.931 12.7239C28.0578 12.6587 28.2134 12.6239 28.4546 12.6136C30.0934 12.5381 31.7321 12.455 33.3781 12.3852C33.7896 12.3687 34.0017 12.3051 34.1708 12.2226C34.3047 12.1573 34.4605 12.134 34.723 12.1218C37.0713 12.0155 39.4051 11.8979 41.7534 11.7954C42.1862 11.777 42.3128 11.6946 42.5318 11.6233C42.6095 11.5983 42.6586 11.5676 42.7578 11.5521C42.8569 11.5365 42.9847 11.538 43.1053 11.5339C44.9782 11.4462 46.8512 11.3528 48.7312 11.2709C49.1711 11.2524 49.2547 11.1568 49.4809 11.0893C49.5586 11.0681 49.6292 11.0336 49.7214 11.0276C51.126 10.9585 52.5306 10.8933 53.9353 10.8261C54.8717 10.7813 55.8081 10.7365 56.7446 10.6937C57.2057 10.6732 57.2057 10.6713 57.8276 10.4882C57.8983 10.467 57.9974 10.4419 58.0896 10.4359C60.7854 10.3057 63.4741 10.1813 66.1699 10.053C66.3969 10.0428 66.5595 9.99845 66.6721 9.93326C66.7846 9.86808 66.9474 9.82372 67.1673 9.81352C69.2743 9.71181 71.3812 9.61202 73.4953 9.51601C73.8785 9.4996 74.1475 9.45301 74.3165 9.36668C74.4433 9.30145 74.599 9.26666 74.8402 9.2564C76.9472 9.1585 79.0542 9.05487 81.1684 8.96077C81.5728 8.94239 81.7705 8.87696 81.9681 8.80007C82.0387 8.77316 82.0948 8.72912 82.18 8.72505C83.2298 8.66848 84.2725 8.61003 85.3297 8.57061C85.7696 8.55403 85.9175 8.47347 86.0938 8.39665C86.2349 8.33519 86.3979 8.31373 86.6675 8.30529C87.2565 8.28635 87.8381 8.25219 88.4126 8.21803C88.4977 8.21206 88.6036 8.16977 88.6103 8.14305C88.6237 8.09343 88.4598 8.05958 88.1898 8.04323C85.3805 8.17566 82.5641 8.30811 79.7548 8.44054C79.2937 8.46291 79.2937 8.46292 78.6717 8.64598C78.6011 8.66717 78.502 8.69227 78.4027 8.69829C75.7069 8.82657 73.0182 8.95292 70.3224 9.08119C70.0954 9.09141 69.9328 9.13577 69.8202 9.20095C69.7076 9.26614 69.5449 9.31049 69.325 9.32069C66.7498 9.44288 64.1747 9.56699 61.5923 9.68348C61.2092 9.69989 60.9401 9.74455 60.7711 9.83279C60.6443 9.89802 60.4886 9.93283 60.2474 9.94309C57.7857 10.0573 55.331 10.1772 52.8621 10.2876C52.6138 10.2979 52.4285 10.2432 52.4419 10.1916C52.4486 10.1649 52.5543 10.1208 52.6394 10.1167C53.9234 10.0499 55.2003 9.98118 56.4916 9.92961C56.9244 9.91305 57.0508 9.82875 57.2698 9.75752C57.3404 9.73251 57.3968 9.69992 57.4889 9.68629C57.588 9.67073 57.7158 9.67226 57.8364 9.66809C60.8799 9.5235 63.9233 9.37702 66.974 9.24005C67.4138 9.21965 67.4974 9.12593 67.7236 9.0585C67.8013 9.03538 67.8719 9.00084 67.9641 8.99675C68.9005 8.94816 69.8369 8.90528 70.7734 8.86241C72.4121 8.78499 74.0509 8.70758 75.6967 8.63015C76.172 8.60774 76.1721 8.60773 76.7798 8.42662C76.8505 8.40542 76.9496 8.37844 77.0418 8.37435C81.3764 8.16866 85.711 7.96297 90.0456 7.75919C90.2726 7.74897 90.4352 7.70462 90.5478 7.63943C90.6604 7.57615 90.8229 7.52989 91.0428 7.51778C96.9027 7.24075 102.755 6.96372 108.615 6.6905C108.998 6.67218 109.267 6.63132 109.437 6.54117C109.556 6.47596 109.719 6.44115 109.96 6.42898C116.402 6.1254 122.843 5.82182 129.292 5.51631C133.627 5.31253 137.961 5.10494 142.296 4.90497C142.693 4.88661 142.905 4.82683 143.103 4.74804C143.166 4.72115 143.229 4.67709 143.314 4.67302C144.244 4.62254 145.173 4.57588 146.102 4.52921C146.394 4.57983 146.686 4.62855 146.978 4.67917C147.197 4.60603 147.409 4.53101 147.628 4.45787C149.032 4.39833 150.415 4.30834 151.835 4.27736C151.927 4.27518 152.027 4.31112 152.127 4.32989C152.789 4.44805 153.165 4.43738 153.581 4.27592C153.729 4.21826 153.856 4.16638 154.083 4.15616C154.786 4.11971 155.495 4.09469 156.19 4.05254C156.566 4.03043 156.879 4.04855 157.15 4.1164C157.342 4.16541 157.541 4.1858 157.775 4.17365C159.067 4.11254 160.351 4.05336 161.642 3.98844C161.734 3.98435 161.819 3.95166 161.889 3.92856C162.038 3.87852 162.165 3.82475 162.306 3.77283C162.498 3.80467 162.711 3.82883 162.868 3.87032C163.068 3.9193 163.252 3.91874 163.522 3.90457C168.672 3.65828 173.83 3.4177 178.98 3.1695C179.42 3.1491 179.613 3.22863 179.912 3.26969C180.011 3.28465 180.111 3.30341 180.217 3.30691C180.331 3.31038 180.452 3.29858 180.565 3.29252C184.431 3.10922 188.298 2.92782 192.164 2.74452C192.675 2.7201 192.675 2.7201 193.436 2.83605C193.529 2.85103 193.65 2.86783 193.749 2.86181C195.509 2.78213 197.268 2.69674 199.02 2.61517C199.247 2.60495 199.439 2.63488 199.646 2.67812C200.052 2.76273 200.08 2.76265 200.376 2.63588C200.517 2.57633 200.666 2.53963 200.9 2.52176C201.155 2.50192 201.361 2.50704 201.561 2.54077C201.845 2.58759 202.052 2.66706 202.485 2.64477C204.358 2.54949 206.238 2.46946 208.104 2.37229C208.529 2.35003 208.757 2.41418 209.042 2.461C209.142 2.47787 209.234 2.50429 209.341 2.50969C209.448 2.51509 209.575 2.50135 209.689 2.49528C212.03 2.38524 214.378 2.2771 216.712 2.15945C217.152 2.13715 217.345 2.21856 217.643 2.25962C217.743 2.27458 217.857 2.30095 217.949 2.29686C219.354 2.2335 220.766 2.16629 222.17 2.09912C222.674 2.07472 222.674 2.07663 223.442 2.19065C223.535 2.20563 223.656 2.22053 223.755 2.21642C225.394 2.14091 227.04 2.06348 228.679 1.98607C229.182 1.96166 229.182 1.96167 230.639 2.05646C230.746 2.06376 230.86 2.07488 230.966 2.07074C232.839 1.98309 234.719 1.89731 236.592 1.80394C236.968 1.78564 237.28 1.79995 237.551 1.8678C237.744 1.91681 237.943 1.9372 238.177 1.92505C240.284 1.82525 242.398 1.72924 244.498 1.62374C244.902 1.60345 245.165 1.6446 245.45 1.69905C245.543 1.71785 245.635 1.74427 245.742 1.75158C245.849 1.75889 245.969 1.75089 246.083 1.74483C248.19 1.64503 250.304 1.55093 252.404 1.44352C252.829 1.42126 253.057 1.48541 253.342 1.53224C253.442 1.5491 253.549 1.58311 253.634 1.58095C254.457 1.54605 255.28 1.51497 256.096 1.46483C256.535 1.43681 256.728 1.52394 257.027 1.565C257.127 1.57805 257.241 1.60633 257.333 1.60224C259.092 1.52256 260.852 1.43907 262.604 1.35368C262.852 1.34149 263.037 1.35808 263.237 1.40707C263.5 1.47303 263.806 1.49881 264.189 1.47668C265.005 1.43036 265.828 1.39737 266.651 1.35865C267.133 1.33622 267.133 1.33623 268.611 1.43095C268.718 1.43826 268.832 1.44935 268.938 1.44522C270.343 1.37995 271.754 1.31658 273.152 1.24562C273.528 1.22541 273.841 1.24163 274.111 1.30948C274.304 1.35848 274.496 1.3789 274.737 1.36673C276.028 1.30562 277.312 1.24453 278.603 1.18342C279.072 1.16103 279.54 1.12338 280.008 1.12197C280.349 1.12285 280.599 1.21364 280.905 1.25849C280.99 1.27158 281.132 1.25592 281.245 1.25176C282.884 1.17435 284.53 1.10263 286.162 1.01571C286.587 0.993444 286.815 1.0576 287.1 1.10442C287.2 1.12129 287.307 1.1553 287.392 1.15313C287.981 1.13038 288.562 1.10002 289.151 1.07345C289.854 1.04082 290.563 1.01579 291.258 0.97174C291.826 0.935701 292.041 1.10098 292.496 1.10533C292.843 1.11 293.198 1.07652 293.546 1.06021C294.248 1.02758 294.95 0.991139 295.653 0.962322C295.901 0.952038 296.092 0.920933 296.169 0.85204C296.183 0.838647 296.062 0.810416 295.984 0.793487C295.037 0.601801 295.037 0.601792 294.086 0.646615C293.497 0.67509 292.915 0.703548 292.327 0.728209C292.227 0.732323 292.113 0.717408 292.014 0.706265C291.729 0.674699 291.757 0.636474 291.997 0.56709C292.238 0.497705 292.421 0.413242 292.626 0.334429C292.918 0.383138 293.202 0.431851 293.494 0.48056C293.728 0.470318 293.962 0.458187 294.197 0.447945C295.367 0.394831 296.538 0.339806 297.708 0.290506C297.793 0.286435 297.9 0.324263 298 0.343035C298.285 0.397487 298.541 0.444383 298.953 0.422164C300.003 0.363692 301.06 0.320456 302.11 0.269612C302.571 0.247244 302.571 0.247246 303.382 0.363051C303.474 0.376123 303.595 0.391018 303.694 0.386904C304.752 0.339853 305.801 0.289016 306.859 0.240058C307.086 0.229838 307.306 0.253967 307.47 0.308782C307.534 0.331476 307.521 0.369654 307.795 0.681614C308.637 0.932741 309.212 0.904322 309.793 0.879683C310.042 0.869398 310.261 0.859191 310.424 0.820556C310.509 0.799321 310.615 0.768481 310.615 0.743688C310.614 0.724616 310.458 0.694567 310.358 0.691052C309.655 0.655026 308.989 0.737147 308.3 0.756386C307.981 0.764977 307.703 0.69906 307.645 0.590523C307.63 0.560052 307.608 0.527696 307.587 0.497246C307.565 0.466796 307.55 0.434419 307.528 0.403968C307.251 0.395267 307.089 0.430082 306.969 0.495288C306.87 0.548988 306.729 0.610444 306.538 0.639629C306.347 0.670721 306.084 0.665801 305.85 0.676042C305.623 0.686262 305.375 0.7118 305.162 0.699092C304.949 0.684476 304.777 0.629673 304.578 0.595943C304.485 0.579057 304.372 0.554615 304.279 0.558707C303.463 0.593588 302.655 0.628435 301.846 0.67283C301.42 0.696999 301.206 0.617552 300.936 0.568779C300.722 0.531278 300.509 0.541443 300.475 0.629279C300.386 0.839343 300.714 0.926083 301.437 0.883852C302.033 0.847727 302.573 0.840398 303.043 0.968673C303.107 0.985645 303.256 0.992822 303.349 0.98873C303.93 0.96409 304.505 0.933748 305.087 0.909109C305.193 0.904974 305.307 0.912248 305.407 0.919577C306.856 1.0182 306.856 1.02012 307.346 0.995757C307.58 0.983608 307.807 0.973388 307.781 0.683565C308.224 0.371353 308.933 0.34824 309.621 0.300394C310.068 0.270439 310.261 0.353781 310.553 0.396768C310.652 0.411726 310.759 0.441914 310.851 0.437822C312.377 0.370288 313.895 0.298953 315.413 0.223812C315.668 0.211599 315.853 0.222488 316.053 0.271476C316.309 0.333642 316.594 0.372845 316.998 0.34874C317.807 0.300531 318.63 0.269449 319.453 0.228826C319.871 0.208493 319.871 0.208473 320.718 0.324172C320.81 0.337244 320.931 0.352139 321.03 0.348025C321.853 0.313123 322.669 0.270625 323.485 0.233837C323.712 0.223617 323.918 0.249695 324.097 0.300653C324.275 0.351612 324.488 0.377667 324.708 0.367469C325.531 0.330659 326.347 0.29007 327.163 0.253282C327.262 0.249168 327.383 0.262154 327.476 0.275226C328.344 0.39086 328.344 0.390841 328.741 0.370572C329.322 0.340211 329.919 0.32508 330.493 0.285205C331.053 0.245372 331.346 0.355101 331.73 0.414975C332.78 0.367946 333.837 0.328533 334.88 0.27199C335.306 0.247821 335.534 0.310067 335.819 0.358797C335.918 0.375662 336.018 0.411602 336.11 0.409417C336.465 0.40072 336.813 0.378696 337.161 0.362391C337.508 0.346086 337.863 0.329762 338.21 0.313457C338.609 0.367567 338.874 0.49646 339.441 0.450885C339.781 0.423158 340.143 0.416346 340.491 0.400041C340.838 0.383736 341.193 0.367412 341.541 0.351107C341.775 0.340865 342.016 0.334409 342.243 0.31656C342.661 0.286691 342.869 0.379532 343.167 0.420591C343.267 0.433642 343.381 0.456171 343.473 0.452079C344.176 0.423262 344.885 0.398239 345.573 0.352301C346.105 0.316368 346.468 0.3725 346.845 0.451466C346.924 0.468396 347.059 0.477524 347.158 0.473411C347.981 0.438508 348.797 0.395988 349.613 0.3592C349.833 0.349002 350.046 0.378873 350.224 0.427925C350.41 0.478862 350.616 0.503053 350.843 0.492833C351.659 0.456046 352.482 0.41541 353.298 0.378623C353.397 0.374509 353.518 0.389406 353.61 0.404385C354.407 0.520233 354.407 0.522142 354.875 0.497845C354.989 0.491781 355.11 0.487589 355.223 0.481525C355.805 0.453071 356.408 0.441731 356.975 0.394249C357.628 0.340789 358.104 0.404202 358.567 0.511519C359.149 0.48688 359.745 0.471731 360.313 0.431877C360.738 0.401987 360.966 0.473771 361.251 0.520594C361.351 0.537459 361.458 0.571467 361.543 0.567396C362.366 0.532494 363.189 0.501417 363.997 0.4513C364.437 0.423274 364.63 0.508503 364.929 0.551469C365.029 0.566427 365.135 0.59282 365.228 0.588728C365.696 0.572059 366.164 0.547751 366.632 0.525361C367.179 0.498921 367.179 0.500827 367.904 0.614982C368.246 0.669263 368.586 0.62437 368.92 0.610015C369.274 0.593688 369.608 0.581244 369.893 0.658582C370.071 0.707633 370.285 0.737507 370.505 0.729215C370.973 0.71064 371.448 0.692051 371.909 0.662054C372.278 0.638056 372.598 0.652343 372.869 0.722095C373.061 0.771103 373.26 0.795312 373.494 0.783164C374.544 0.734227 375.601 0.683345 376.651 0.636316C376.744 0.632223 376.871 0.649009 376.957 0.665917C377.156 0.699647 377.349 0.737204 377.541 0.77477C378.002 0.756215 378.477 0.747174 378.931 0.719105C379.414 0.690951 379.854 0.680087 380.232 0.783846C380.31 0.806497 380.424 0.838559 380.516 0.836374C380.871 0.827676 381.219 0.807562 381.566 0.791257C381.914 0.774952 382.269 0.758628 382.616 0.742323C383.022 0.788783 383.279 0.925325 383.847 0.87975C384.187 0.852024 384.549 0.845212 384.897 0.828907C385.244 0.812602 385.599 0.79437 385.947 0.779972C386.06 0.775816 386.188 0.765889 386.287 0.773219C386.394 0.780527 386.486 0.806954 386.579 0.825748C386.864 0.8802 387.127 0.934722 387.532 0.901082C387.872 0.873355 388.234 0.866542 388.581 0.848329C389.057 0.825918 389.057 0.825922 389.847 0.943698C390.167 0.992322 390.528 0.926391 390.834 0.967429C391.04 0.995416 391.218 1.04255 391.418 1.07437C391.503 1.08747 391.638 1.09277 391.737 1.08866C392.205 1.07008 392.681 1.0515 393.142 1.0215C393.518 0.997479 393.83 1.01942 394.094 1.08729C394.287 1.1363 394.479 1.15671 394.72 1.14454C395.89 1.08761 397.061 1.03829 398.224 0.975666C398.622 0.95349 398.941 0.984958 399.163 1.05295C399.541 1.17006 400.071 1.02924 400.463 1.12342C400.705 1.18182 400.948 1.24975 401.387 1.21982C402.196 1.16779 403.019 1.1386 403.835 1.10181C404.127 1.15243 404.418 1.20305 404.717 1.25365C405.186 1.23126 405.654 1.20885 406.122 1.18837C406.47 1.17207 406.824 1.15384 407.172 1.13944C407.285 1.13528 407.406 1.12729 407.513 1.1365C407.619 1.14572 407.705 1.17026 407.805 1.18903C408.296 1.28101 408.296 1.28292 409.105 1.24234C409.452 1.22413 409.786 1.21168 410.078 1.28709C410.349 1.35684 410.668 1.36922 411.037 1.34713C411.732 1.30689 412.435 1.27617 413.144 1.24733C413.364 1.23713 413.57 1.26894 413.756 1.31797C414.034 1.39532 414.375 1.38667 414.722 1.36464C415.183 1.33656 415.637 1.30849 416.029 1.41412C416.107 1.43677 416.229 1.46881 416.314 1.46664C416.896 1.44963 417.485 1.43642 418.052 1.39848C418.62 1.36053 418.898 1.47794 419.29 1.53397C419.871 1.50743 420.46 1.48086 421.042 1.45431C421.155 1.44825 421.29 1.43069 421.389 1.43992C421.809 1.47871 422.052 1.62102 422.627 1.57542C422.96 1.54962 423.322 1.54091 423.67 1.53414C423.762 1.53196 423.883 1.564 423.948 1.5886C423.983 1.60184 423.948 1.63818 423.906 1.65738C423.779 1.71117 423.624 1.76124 423.511 1.81689C423.497 1.82456 423.632 1.85847 423.71 1.87349C423.903 1.90724 424.123 1.90087 424.378 1.88484C424.598 1.87083 424.825 1.89685 424.983 1.95359C425.047 1.97628 425.026 2.01449 424.893 2.14077C424.894 2.23422 425.043 2.1918 425.092 2.13062C425.168 2.04266 425.019 2.0145 424.736 2.06304C424.537 2.09796 424.439 2.14785 424.489 2.18775C424.518 2.20865 424.653 2.23494 424.893 2.14077C425.516 2.02445 425.984 2.00207 426.453 1.97968C426.573 1.9736 426.715 1.95409 426.8 1.96527C427.106 2.01013 427.391 2.06459 427.69 2.11518C428.03 2.10271 428.349 2.07313 428.684 2.1465C429.154 2.24999 429.176 2.24039 429.63 2.21804C429.864 2.20589 430.098 2.19567 430.332 2.18543C430.566 2.17519 430.751 2.20323 430.957 2.24647C431.378 2.33485 431.413 2.33473 431.688 2.21184C431.85 2.13697 431.964 2.11184 432.17 2.14555C432.853 2.25983 432.86 2.26743 433.442 2.23135C433.924 2.20129 434.379 2.19229 434.735 2.29993C434.978 2.37549 435.056 2.3581 435.246 2.27742C435.754 2.06418 435.988 2.06729 436.949 2.21697C437.397 2.2881 437.858 2.20852 438.312 2.19762C438.695 2.18883 438.965 2.23378 438.996 2.35385C439.018 2.42816 439.083 2.48138 439.339 2.5054C439.438 2.51464 439.559 2.52762 439.658 2.52351C440.247 2.49885 440.829 2.47039 441.418 2.44191C441.716 2.42767 441.878 2.33755 441.819 2.21948C441.753 2.0938 441.866 2.04767 442.292 2.01015C442.547 1.98841 442.753 1.99162 442.959 2.02532C443.187 2.06278 443.124 2.0973 442.926 2.16656C442.453 2.33582 442.511 2.43862 443.123 2.55311C443.337 2.59252 443.508 2.62826 443.558 2.68723C443.587 2.71766 443.56 2.7578 443.624 2.78049C443.974 2.90722 444.458 2.98778 444.998 3.04719C445.515 2.99413 445.872 3.07887 446.27 3.14633C446.584 3.19879 446.952 3.15192 447.285 3.13184C447.661 3.10973 447.974 3.12404 448.245 3.19379C448.437 3.2428 448.636 3.26508 448.87 3.25484C449.339 3.23245 449.814 3.21767 450.275 3.18577C450.672 3.15787 450.971 3.19512 451.22 3.25921C451.534 3.34028 451.881 3.28391 452.208 3.29437C452.648 3.3064 452.871 3.47546 453.445 3.42796C453.785 3.40023 454.14 3.38963 454.495 3.38094C454.587 3.37875 454.701 3.41084 454.78 3.43349C455.158 3.53725 455.598 3.5302 456.08 3.49823C456.413 3.47624 456.74 3.4562 457.067 3.52768C457.609 3.64812 458.207 3.75313 458.776 3.86394C458.856 3.95143 458.8 4.05457 459.206 4.10484C459.419 4.1309 459.619 4.17037 459.783 4.21374C459.982 4.26464 460.167 4.27743 460.422 4.26331C460.883 4.23522 461.366 4.22803 461.82 4.19233C462.238 4.16056 462.502 4.22272 462.758 4.28107C462.965 4.32813 463.157 4.35043 463.405 4.31535C463.66 4.28216 463.845 4.30258 464.051 4.35345C464.344 4.42314 464.365 4.41546 465.331 4.43353C465.43 4.43513 465.551 4.46336 465.608 4.48798C465.637 4.50125 465.574 4.53961 465.524 4.55883C465.461 4.5819 465.362 4.60889 465.269 4.61489C464.219 4.66764 463.162 4.71469 462.112 4.76744C462.006 4.77348 461.893 4.78719 461.815 4.80649C461.73 4.82773 461.624 4.85664 461.624 4.88334C461.625 4.90241 461.767 4.92488 461.867 4.93793C462.18 4.98085 462.548 4.91299 462.854 4.96166C463.06 4.99346 463.231 5.03871 463.437 5.0686C463.523 5.0817 463.658 5.07939 463.764 5.07525C464.119 5.06083 464.467 5.04072 464.821 5.02821C464.921 5.026 465.035 5.04474 465.127 5.05972C465.81 5.17209 465.81 5.17209 466.399 5.14552C466.633 5.13528 466.881 5.10592 467.102 5.1167C467.315 5.1275 467.5 5.17844 467.692 5.21028C468.091 5.27774 468.468 5.34336 468.499 5.49203C468.514 5.5492 468.749 5.59807 468.983 5.60118C469.21 5.60431 469.451 5.58262 469.686 5.57048C470.239 5.54592 470.239 5.54592 470.958 5.6601C471.157 5.69192 471.37 5.69509 471.625 5.67524C471.725 5.66732 471.845 5.67459 471.952 5.68381C472.3 5.71136 472.301 5.74759 472.075 5.81693C471.757 5.91897 471.785 5.92843 472.681 6.01156C473.022 6.04295 473.286 6.10319 473.571 6.15574C474.033 6.24017 474.026 6.24018 473.723 6.35362C473.652 6.37862 473.589 6.40552 473.518 6.43244C473.313 6.50744 473.151 6.58802 472.726 6.59694C472.257 6.60597 471.789 6.63791 471.321 6.6603C470.867 6.68265 470.747 6.72877 470.791 6.85832C470.843 7.01456 470.936 7.03145 471.752 7.02709C471.987 7.02638 472.193 7.04101 472.371 7.09197C472.287 7.15326 472.131 7.20141 471.904 7.21353C471.323 7.24389 470.734 7.27047 470.152 7.29701C469.684 7.3194 469.216 7.34179 468.747 7.36418C468.457 7.3784 468.274 7.47814 468.353 7.58852C468.397 7.65133 468.433 7.71415 468.47 7.77698C468.55 7.90262 468.699 7.9346 469.175 7.92745C469.295 7.92518 469.409 7.90956 469.522 7.91303C469.984 7.925 470.207 8.08262 470.76 8.04853C471.221 8.02044 471.704 8.01327 472.157 7.97757C472.576 7.9458 472.811 8.01377 473.103 8.06438C473.203 8.08125 473.31 8.11714 473.395 8.11498C473.984 8.09223 474.573 8.06949 475.147 8.03152C475.417 8.01545 475.58 8.0264 475.794 8.07153C476.307 8.1806 476.321 8.17484 477.08 8.13822C477.633 8.10985 477.64 8.11364 478.352 8.22784C478.551 8.25966 478.764 8.25902 479.019 8.24299C479.353 8.22291 479.7 8.19135 480.048 8.21891C480.155 8.22622 480.29 8.24871 480.326 8.27339C480.348 8.29049 480.249 8.33275 480.164 8.34636C479.541 8.44741 478.809 8.43245 478.128 8.47456C477.916 8.48664 477.702 8.45104 477.524 8.40008C477.338 8.34915 477.139 8.32877 476.898 8.33904C476.43 8.36143 475.955 8.3762 475.494 8.40811C475.096 8.43601 474.819 8.39297 474.541 8.33468C474.449 8.31589 474.342 8.27997 474.249 8.28215C473.199 8.32346 472.142 8.3648 471.099 8.42134C470.681 8.44549 470.438 8.38519 470.154 8.33456C470.054 8.31769 469.954 8.28175 469.862 8.28394C469.507 8.29263 469.16 8.31466 468.805 8.33098C467.514 8.39209 466.23 8.45318 464.938 8.51047C464.853 8.51454 464.746 8.47481 464.647 8.45794C464.454 8.42419 464.255 8.39236 464.056 8.36054C463.701 8.37687 463.353 8.39698 462.999 8.4095C462.743 8.41789 462.516 8.44529 462.482 8.51787C462.462 8.56561 462.697 8.60876 462.945 8.6042C463.186 8.59966 463.427 8.57604 463.626 8.60024C464.615 8.71932 464.615 8.72123 465.232 8.69458C465.771 8.67007 465.714 8.65116 466.192 8.75462C466.398 8.79977 466.583 8.82593 466.817 8.81378C467.399 8.78533 467.988 8.75685 468.577 8.73219C468.669 8.72809 468.79 8.74681 468.882 8.76179C469.58 8.87412 469.58 8.87793 470.154 8.84759C470.906 8.811 470.935 8.80137 471.441 8.91619C471.79 8.99525 472.108 8.93897 472.442 8.93415C472.826 9.00738 473.246 9.07288 473.595 9.15574C474.009 9.25367 474.441 9.23519 474.909 9.20517C475.257 9.18314 475.598 9.17449 475.883 9.25183C476.154 9.32349 476.48 9.33014 476.849 9.30996C477.182 9.29179 477.523 9.25452 477.871 9.29543C477.964 9.30659 478.106 9.33478 478.099 9.35197C478.093 9.37869 478.001 9.41711 477.909 9.42884C477.257 9.509 476.54 9.50924 475.852 9.54755C475.76 9.55355 475.639 9.53293 475.546 9.51795C475.347 9.48422 475.154 9.44476 474.962 9.4091C474.615 9.42159 474.26 9.42646 473.919 9.45037C473.657 9.46833 473.458 9.46704 473.266 9.42184C473.087 9.38042 472.895 9.3295 472.682 9.31679C472.469 9.30408 472.221 9.33344 471.987 9.34558C471.753 9.35773 471.483 9.35281 471.299 9.38388C471.115 9.41495 471.002 9.48205 470.882 9.53582C470.748 9.59535 470.564 9.61499 470.294 9.62152C470.046 9.62799 469.847 9.62095 469.661 9.56811C469.583 9.54546 469.476 9.52861 469.369 9.51367C469.27 9.50062 469.156 9.47998 469.064 9.48407C468.007 9.53112 466.957 9.58198 465.9 9.63094C465.375 9.65541 465.382 9.65537 464.287 9.54614C464.187 9.5369 464.066 9.52392 463.967 9.52803C463.378 9.55269 462.797 9.58115 462.208 9.60963C461.612 9.63812 461.619 9.63429 460.602 9.51719C460.417 9.49486 460.148 9.52619 459.928 9.52304C459.466 9.5149 459.236 9.35538 458.697 9.38752C458.236 9.41561 457.753 9.42279 457.293 9.4585C456.874 9.49028 456.632 9.42426 456.347 9.37363C456.248 9.35676 456.14 9.31894 456.055 9.32301C454.998 9.36815 453.948 9.41899 452.543 9.42895C452.195 9.43 452.352 9.46958 452.579 9.48225C452.906 9.50224 453.012 9.46187 452.833 9.38612C452.705 9.3331 452.52 9.30694 452.371 9.32074C452.293 9.32861 452.194 9.36515 452.543 9.42895C452.913 9.50031 452.892 9.54042 452.957 9.56311C453.114 9.61795 453.334 9.64017 453.561 9.63185C453.916 9.61744 454.263 9.59732 454.618 9.58481C454.718 9.58069 454.838 9.59368 454.931 9.60866C455.714 9.72455 455.721 9.73217 456.551 9.68389C456.813 9.66975 457.005 9.66917 457.211 9.70479C457.496 9.75352 457.703 9.8368 458.136 9.8088C458.71 9.77083 459.299 9.74809 459.888 9.72534C459.98 9.72125 460.08 9.75527 460.187 9.77021C460.479 9.81511 460.693 9.90029 461.125 9.86275C461.459 9.83313 461.821 9.8244 462.175 9.81761C462.268 9.81542 462.41 9.84551 462.453 9.87018C462.539 9.91379 462.433 9.96561 462.192 10.0026C462.093 10.0181 461.958 10.0147 461.845 10.0208C461.377 10.0432 460.908 10.0675 460.44 10.086C460.192 10.0963 459.958 10.1256 459.931 10.1963C459.91 10.244 460.166 10.2852 460.408 10.2807C460.762 10.2739 461.117 10.2576 461.458 10.2317C462.06 10.188 462.586 10.1978 463.078 10.3165C463.427 10.3994 463.405 10.3689 463.778 10.6157C463.871 10.6784 464.148 10.6833 464.389 10.6787C464.971 10.6674 465.242 10.6953 465.193 10.7545C465.13 10.8272 464.924 10.8507 464.662 10.861C464.194 10.8777 463.725 10.9039 463.257 10.9263C463.144 10.9323 463.016 10.9442 462.91 10.9407C462.803 10.9372 462.703 10.9146 462.611 10.8977C462.411 10.8621 462.24 10.8073 462.027 10.7946C461.814 10.7818 461.566 10.8112 461.332 10.8234C461.098 10.8336 460.85 10.863 460.636 10.8502C460.423 10.8375 460.245 10.7809 460.053 10.7471C459.96 10.7302 459.846 10.7039 459.754 10.706C459.286 10.7227 458.817 10.7489 458.349 10.7694C457.775 10.7959 457.775 10.7959 457.077 10.6798C456.878 10.6461 456.672 10.6486 456.41 10.6646C455.842 10.6969 455.835 10.6912 454.797 10.5837C454.697 10.5725 454.576 10.5595 454.477 10.5656C453.42 10.6126 452.37 10.6634 451.32 10.7124C450.419 10.7551 450.419 10.7552 449.925 10.9474C449.558 11.0896 449.551 11.0896 449.914 11.1534C450.206 11.2059 450.47 11.2833 450.789 11.3109C451.088 11.3367 451.456 11.2498 451.784 11.3366C451.948 11.3799 452.161 11.427 452.367 11.434C452.694 11.4425 453.041 11.3862 453.355 11.4691C453.512 11.5106 453.747 11.5538 453.945 11.5551C454.293 11.5579 454.648 11.5263 454.996 11.5119C455.102 11.5077 455.223 11.5074 455.322 11.5166C455.429 11.5277 455.521 11.5504 455.614 11.5692C455.899 11.6331 456.205 11.6627 456.573 11.6292C457.176 11.574 457.716 11.5991 458.186 11.7197C458.25 11.7367 458.407 11.7381 458.506 11.7302C458.761 11.7104 458.981 11.7078 459.173 11.7434C459.252 11.7585 459.366 11.7848 459.352 11.802C459.331 11.8307 459.246 11.8691 459.154 11.8789C458.488 11.9457 457.771 11.9555 457.083 11.9919C456.991 11.996 456.877 11.9716 456.784 11.9547C456.585 11.921 456.414 11.8643 456.2 11.8516C455.987 11.8389 455.739 11.8644 455.505 11.8746C455.271 11.8849 455.023 11.9142 454.81 11.9034C454.597 11.8907 454.397 11.8436 454.226 11.8022C454.027 11.7551 453.835 11.75 453.572 11.7698C453.232 11.7957 452.877 11.8005 452.53 11.8149C452.337 11.7793 452.145 11.7398 451.946 11.7061C451.853 11.6892 451.739 11.6686 451.64 11.6708C451.172 11.6874 450.703 11.7117 450.235 11.7341C449.767 11.7565 449.767 11.7565 448.97 11.6407C448.878 11.6276 448.757 11.6127 448.657 11.6168C448.068 11.6415 447.487 11.6718 446.898 11.6965C446.671 11.7067 446.465 11.6806 446.279 11.6297C446.101 11.5787 445.888 11.5508 445.668 11.561C444.731 11.6038 443.795 11.6448 442.858 11.6953C442.482 11.7155 442.163 11.6993 441.906 11.6314C441.607 11.5541 441.273 11.5742 440.926 11.5905C440.138 11.631 440.131 11.6291 439.626 11.5334C439.526 11.5146 439.426 11.4787 439.334 11.4809C438.518 11.5119 437.695 11.5411 436.886 11.5893C436.461 11.6154 436.232 11.5493 435.948 11.5006C435.848 11.4837 435.741 11.4478 435.656 11.4519C435.067 11.4746 434.478 11.4955 433.904 11.5354C433.329 11.5752 433.106 11.3986 432.673 11.4018C432.084 11.4054 431.503 11.4511 430.921 11.4795C430.453 11.5019 429.985 11.5243 429.516 11.5467C429.048 11.5691 428.58 11.5876 428.112 11.6138C427.863 11.6279 427.679 11.6113 427.472 11.5643C427.208 11.5021 426.895 11.4535 426.611 11.3971C426.176 11.3164 426.176 11.3164 425.651 11.3409C425.538 11.347 425.417 11.3511 425.304 11.3572C424.445 11.4017 424.445 11.3979 423.35 11.2811C423.3 11.2755 423.173 11.2969 423.123 11.3123C422.975 11.3623 422.841 11.4161 422.707 11.468C422.515 11.4381 422.28 11.4216 422.152 11.3781C421.788 11.2553 421.223 11.4267 420.851 11.3058C420.716 11.2604 420.481 11.2211 420.268 11.2102C420.048 11.1995 419.8 11.2269 419.573 11.239C418.984 11.2694 418.984 11.2675 418.482 11.4388C418.228 11.5235 417.859 11.5093 417.525 11.5294C417.178 11.5514 416.844 11.5639 416.552 11.4865C416.288 11.4168 415.969 11.4006 415.593 11.4246C415.132 11.4546 414.656 11.4732 414.188 11.4918C414.089 11.4959 413.968 11.4867 413.868 11.4756C412.78 11.3663 412.78 11.3644 412.255 11.3908C412.021 11.4029 411.78 11.4075 411.553 11.4253C411.17 11.457 410.879 11.4178 410.601 11.3576C410.508 11.3388 410.401 11.3029 410.309 11.3051C409.84 11.3161 409.379 11.3346 408.918 11.3532C408.563 11.3676 408.209 11.3763 407.868 11.404C407.301 11.4496 407.022 11.3264 406.631 11.2704C406.049 11.2969 405.46 11.3159 404.879 11.352C404.609 11.368 404.432 11.3629 404.225 11.3177C403.962 11.2613 403.719 11.1972 403.294 11.2271C402.726 11.2669 402.13 11.2821 401.548 11.3067C401.157 11.2488 400.871 11.1294 400.311 11.175C399.971 11.2027 399.609 11.2095 399.261 11.2258C398.793 11.2482 398.325 11.2687 397.857 11.293C397.353 11.3174 397.36 11.3117 396.584 11.2015C396.136 11.1361 395.676 11.2119 395.222 11.2247C394.867 11.2353 394.691 11.3235 394.778 11.4358C394.864 11.5481 394.674 11.6364 394.348 11.6526C393.532 11.6913 392.709 11.7319 391.893 11.7668C391.794 11.7709 391.673 11.7579 391.58 11.7449C390.705 11.6273 390.705 11.6293 390.315 11.6476C389.734 11.678 389.138 11.695 388.563 11.733C388.166 11.759 387.874 11.7198 387.618 11.6557C387.418 11.6067 387.233 11.5959 386.978 11.6081C384.169 11.7443 381.359 11.871 378.557 12.0111C378.139 12.0314 377.896 11.9768 377.612 11.9262C377.512 11.9093 377.419 11.8734 377.32 11.8737C377.085 11.8744 376.851 11.8922 376.617 11.9044C375.567 11.9533 374.518 12.0118 373.46 12.0493C373.013 12.0659 372.894 12.154 372.703 12.2271C372.555 12.2828 372.385 12.3062 372.123 12.3146C371.867 12.323 371.683 12.314 371.483 12.265C371.226 12.201 370.935 12.1618 370.538 12.1897C370.077 12.2216 369.608 12.2364 369.133 12.2588C368.892 12.269 368.708 12.3039 368.631 12.3728C368.617 12.3843 368.766 12.4125 368.852 12.4294C369.137 12.4857 369.407 12.5517 369.727 12.5908C370.054 12.6298 370.409 12.583 370.749 12.5705C370.87 12.5663 370.983 12.5545 371.097 12.5561C371.203 12.5577 371.331 12.5669 371.41 12.5838C371.78 12.6685 372.172 12.7264 372.682 12.6734C373.122 12.6969 373.352 12.8545 373.912 12.8108C374.253 12.785 374.607 12.7725 374.962 12.7619C375.055 12.7597 375.154 12.7937 375.254 12.8106C375.539 12.8574 375.767 12.933 376.193 12.8993C376.646 12.8636 377.129 12.8565 377.59 12.8284C377.845 12.8123 378.03 12.8251 378.23 12.8741C378.486 12.9363 378.778 12.9831 379.175 12.9514C379.515 12.9236 379.877 12.9168 380.225 12.8986C380.679 12.8763 380.679 12.8782 381.49 12.994C381.583 13.007 381.703 13.0219 381.803 13.0178C382.392 12.9932 382.973 12.9628 383.562 12.9381C383.789 12.9279 384.01 12.9521 384.167 13.0069C384.231 13.0296 384.21 13.0678 384.232 13.1002C383.061 13.1552 381.891 13.2026 380.727 13.269C380.288 13.2951 380.088 13.2175 379.796 13.1746C379.696 13.1596 379.589 13.1275 379.497 13.1316C378.674 13.1665 377.858 13.2033 377.043 13.2477C376.787 13.2618 376.596 13.2548 376.403 13.2C375.911 13.0546 375.316 13.1365 374.762 13.1592C374.337 13.1757 374.203 13.2353 374.254 13.361C374.321 13.5096 374.577 13.5546 375.229 13.5259C375.464 13.5157 375.698 13.5016 375.932 13.4933C376.159 13.4849 376.365 13.5091 376.55 13.56C376.729 13.611 376.942 13.6371 377.162 13.6288C377.63 13.6102 378.106 13.5916 378.56 13.5616C378.935 13.5376 379.248 13.5557 379.512 13.6255C379.804 13.7028 380.145 13.6846 380.485 13.6664C381.28 13.6259 381.287 13.6278 381.785 13.7217C381.885 13.7404 381.985 13.7764 382.077 13.7742C382.893 13.7431 383.716 13.7158 384.518 13.6677C384.936 13.6435 385.178 13.7038 385.456 13.7526C385.556 13.7694 385.656 13.8073 385.748 13.8032C386.337 13.7804 386.926 13.7577 387.5 13.7197C387.77 13.7017 387.933 13.7127 388.154 13.7578C388.681 13.8687 388.695 13.8649 389.44 13.8264C389.667 13.8142 389.915 13.7925 390.128 13.8071C390.341 13.8218 390.513 13.8766 390.712 13.9103C390.804 13.9253 390.918 13.9459 391.018 13.9418C391.486 13.9251 391.954 13.9008 392.422 13.8784C392.862 13.8561 392.862 13.858 393.687 13.9738C394.022 14.0224 394.369 13.9794 394.703 13.9631C395.064 13.9449 395.391 13.9439 395.669 14.0174C395.947 14.091 396.281 14.0861 396.635 14.0698C396.969 14.0535 397.309 14.0106 397.65 14.061C398.433 14.1769 398.433 14.1788 398.915 14.1545C399.618 14.1199 400.313 14.0873 401.022 14.0566C401.115 14.0525 401.236 14.075 401.328 14.09C401.527 14.1237 401.699 14.1804 401.912 14.1931C402.125 14.2078 402.373 14.1841 402.6 14.172C403.331 14.1336 403.38 14.1201 403.872 14.2445C404.285 14.3462 404.794 14.1959 405.18 14.313C405.401 14.3791 405.699 14.4316 406.111 14.3979C406.451 14.3702 406.806 14.3615 407.161 14.3452C407.721 14.3187 407.721 14.3206 408.433 14.4329C408.525 14.4479 408.646 14.4666 408.738 14.4625C409.207 14.4458 409.682 14.431 410.136 14.3953C410.668 14.3537 411.01 14.4251 411.408 14.4945C411.721 14.5489 412.09 14.502 412.423 14.4819C412.785 14.4617 413.112 14.4665 413.383 14.54C413.668 14.6155 414.001 14.6049 414.356 14.5886C414.689 14.5742 415.03 14.5294 415.371 14.5817C416.104 14.6978 416.104 14.6978 416.636 14.6733C417.104 14.6509 417.573 14.6266 418.041 14.6099C418.133 14.6058 418.247 14.6303 418.34 14.6472C418.539 14.6809 418.71 14.7376 418.923 14.7503C419.137 14.763 419.385 14.7375 419.619 14.7272C419.853 14.717 420.101 14.6876 420.314 14.6984C420.527 14.7093 420.727 14.7563 420.898 14.7978C421.097 14.8468 421.282 14.8519 421.551 14.832C421.892 14.8062 422.247 14.7994 422.594 14.785C422.786 14.8207 422.986 14.8563 423.171 14.8958C423.363 14.9372 423.569 14.9328 423.831 14.9186C424.704 14.8702 424.711 14.8759 425.444 14.992C425.779 15.0444 426.126 14.9994 426.459 14.9851C426.814 14.9688 427.148 14.9601 427.426 15.0356C427.696 15.1072 428.03 15.1158 428.385 15.0918C428.612 15.0759 428.853 15.0656 429.087 15.0592C429.194 15.057 429.322 15.0642 429.4 15.0792C429.777 15.1582 430.148 15.2296 430.665 15.1765C431.12 15.1904 431.349 15.3461 431.895 15.3139C432.356 15.2858 432.839 15.2787 433.293 15.243C433.711 15.2112 434.01 15.2637 434.224 15.3298C434.609 15.4469 435.147 15.2851 435.532 15.4003C435.753 15.4663 436.037 15.5189 436.463 15.489C436.931 15.4571 437.081 15.4967 437.217 15.6164C437.297 15.6848 437.283 15.7402 437.142 15.794C437.001 15.8497 436.845 15.8407 436.617 15.7784C436.353 15.7087 436.04 15.6962 435.664 15.7126C435.295 15.729 435.067 15.6305 434.761 15.5933C434.455 15.5542 434.094 15.622 433.774 15.5715C433.019 15.4536 433.019 15.4536 432.508 15.478C432.161 15.4943 431.799 15.503 431.459 15.5308C431.054 15.5644 430.791 15.5061 430.513 15.4535C430.413 15.4347 430.313 15.3988 430.228 15.401C429.412 15.432 428.589 15.4612 427.781 15.5113C427.355 15.5374 427.127 15.4694 426.842 15.4226C426.743 15.4057 426.636 15.3717 426.55 15.3758C425.848 15.4046 425.153 15.441 424.451 15.4756C424.317 15.5275 424.168 15.5775 424.041 15.6332C423.907 15.6908 423.723 15.7162 423.453 15.7151C423.006 15.7164 422.567 15.7979 422.118 15.6981C421.655 15.5965 421.62 15.6024 421.173 15.6285C420.606 15.6626 420.002 15.6568 419.471 15.7328C419.379 15.7464 419.28 15.783 419.28 15.8097C419.273 15.8268 419.423 15.8512 419.515 15.8662C419.829 15.911 420.189 15.8432 420.503 15.8899C420.709 15.9198 420.88 15.965 421.086 15.9968C421.172 16.0099 421.3 16.0077 421.413 16.0054C421.534 16.0031 421.647 15.9895 421.761 15.991C421.867 15.9926 421.981 16.0037 422.067 16.0206C422.458 16.0919 422.871 16.1574 423.22 16.2422C423.562 16.3251 423.88 16.2669 424.221 16.2621C425.586 16.3915 425.586 16.3934 426.502 16.3486C426.729 16.3384 426.963 16.3263 427.197 16.3275C427.296 16.3272 427.389 16.3612 427.489 16.38C427.774 16.4363 428.044 16.487 428.441 16.4553C428.782 16.4276 429.144 16.4208 429.491 16.4026C429.959 16.3802 429.959 16.3802 430.756 16.4979C430.956 16.5279 431.168 16.5234 431.424 16.5074C431.644 16.4934 431.871 16.5213 432.028 16.5761C432.092 16.5988 432.072 16.637 432.094 16.6694C431.391 16.702 430.682 16.7251 430.001 16.773C429.561 16.8029 429.361 16.7215 429.069 16.6785C428.97 16.6635 428.863 16.6314 428.771 16.6355C428.075 16.6662 427.38 16.7007 426.685 16.741C426.6 16.745 426.494 16.7892 426.487 16.8159C426.474 16.8656 426.652 16.9127 426.908 16.91C427.248 16.9071 427.582 16.8737 427.888 16.951C428.145 17.0188 428.464 17.0484 428.84 17.0168C429.067 16.9989 429.309 16.9982 429.536 16.9822C430.138 16.9347 430.685 16.9425 431.141 17.0709C431.49 17.1041 431.83 17.0707 432.163 17.0525C432.412 17.0384 432.653 17.0243 432.831 17.06C433.208 17.1352 433.579 17.2104 434.096 17.1573C434.658 17.209 435.085 17.3203 435.555 17.4104C435.776 17.4536 435.947 17.4779 436.202 17.4485C436.308 17.4368 436.436 17.4363 436.549 17.4303C436.784 17.42 437.032 17.3907 437.245 17.4015C437.458 17.4142 437.636 17.469 437.828 17.5027C437.921 17.5196 438.028 17.5479 438.12 17.5457C438.475 17.5351 438.822 17.515 439.17 17.4987C439.518 17.4843 439.865 17.4699 440.213 17.4555C440.505 17.5042 440.804 17.5529 441.095 17.6016C441.564 17.5792 442.032 17.5568 442.493 17.5364C443.011 17.5119 443.011 17.5138 443.758 17.6298C444.093 17.6822 444.447 17.6468 444.766 17.6211C445.298 17.5794 445.654 17.6508 446.032 17.726C446.11 17.741 446.252 17.7501 446.344 17.7422C446.713 17.7144 447.033 17.7344 447.303 17.8041C447.496 17.8531 447.688 17.8755 447.922 17.8652C448.738 17.8265 449.554 17.7859 450.37 17.751C450.469 17.7469 450.583 17.7638 450.675 17.7787C451.401 17.8929 451.408 17.8986 451.94 17.8665C452.416 17.8383 452.856 17.8256 453.233 17.9293C453.312 17.952 453.433 17.984 453.518 17.9819C454.1 17.961 454.689 17.9383 455.263 17.9041C455.526 17.8881 455.711 17.8933 455.917 17.9365C456.181 17.991 456.416 18.0571 456.849 18.031C458.047 17.9568 458.054 17.9682 459.476 18.0955C459.576 18.1047 459.71 18.0891 459.824 18.0811C460.065 18.0613 460.243 18.0875 460.456 18.1307C460.934 18.2285 460.948 18.2227 461.402 18.2003C461.749 18.1821 462.111 18.1772 462.452 18.1476C462.976 18.104 463.325 18.1774 463.717 18.2468C464.03 18.3011 464.391 18.2543 464.725 18.2361C465.087 18.2159 465.413 18.2207 465.684 18.2923C465.869 18.3414 466.069 18.3675 466.303 18.3572C467.119 18.3204 467.934 18.2798 468.75 18.243C468.85 18.2389 468.971 18.2538 469.063 18.2669C469.874 18.3827 469.874 18.3884 470.676 18.3422C470.931 18.328 471.144 18.3236 471.336 18.363C471.521 18.4006 471.721 18.4363 471.913 18.4719C472.261 18.4575 472.616 18.4526 472.956 18.4287C473.218 18.4108 473.403 18.4179 473.609 18.4573C473.88 18.508 474.109 18.5969 474.534 18.5518C474.754 18.5301 475.009 18.5351 475.229 18.5153C475.491 18.4898 475.669 18.5045 475.876 18.5534C476.132 18.6118 476.396 18.672 476.807 18.6403C477.261 18.6046 477.743 18.5974 478.204 18.5693C478.46 18.5533 478.638 18.568 478.844 18.617C479.101 18.6791 479.392 18.7183 479.79 18.6923C480.598 18.6422 480.605 18.6517 481.395 18.7695C481.594 18.7994 481.807 18.795 482.063 18.7789C482.283 18.7649 482.51 18.7928 482.667 18.8477C482.817 18.9083 482.803 18.9464 482.818 18.9788ZM419.296 1.96881C419.062 1.97905 418.828 1.9912 418.485 1.8263C418.463 1.79776 418.477 1.76339 418.427 1.73875C418.312 1.6876 418.134 1.6519 417.921 1.64682C417.538 1.64035 417.077 1.70657 417.085 1.75613C417.093 1.79807 417.214 1.83393 417.449 1.86756C417.548 1.88061 417.627 1.90326 417.719 1.91824C417.99 1.96129 418.204 2.04649 418.594 2.00145C418.521 1.88342 418.557 1.94243 418.594 2.00145C418.559 2.07403 418.667 2.1252 418.923 2.14541C418.994 2.15092 419.1 2.14677 419.157 2.13516C419.376 2.09254 419.411 2.03523 419.245 1.88506C419.217 1.90993 419.239 1.95372 419.303 1.96497C419.367 1.97622 419.523 1.96623 419.601 1.95264C419.799 1.91581 419.898 1.86782 419.848 1.82792C419.819 1.80703 419.684 1.78074 419.599 1.78099C419.449 1.78144 419.315 1.8238 419.296 1.96881ZM477.037 23.9131C476.519 23.9509 475.922 23.9393 475.405 24.0153C475.313 24.0289 475.221 24.0635 475.215 24.0902C475.208 24.1074 475.35 24.1318 475.436 24.1449C475.628 24.1748 475.841 24.1646 476.089 24.1543C476.465 24.1399 476.686 24.2269 476.978 24.2699C477.071 24.283 477.191 24.2922 477.291 24.288C477.865 24.2634 478.433 24.2369 479.008 24.2085C479.107 24.2025 479.213 24.1888 479.298 24.1714C479.581 24.1152 479.552 24.0791 479.275 24.038C478.969 23.9931 478.726 23.9175 478.413 23.8822C477.965 23.8321 477.512 23.9021 477.037 23.9131ZM436.743 25.4268C436.395 25.4431 436.054 25.4593 435.707 25.4756C435.593 25.4817 435.473 25.484 435.366 25.4919C435.146 25.5059 434.984 25.5465 434.878 25.6097C435.042 25.6588 435.241 25.6868 435.461 25.6804C435.809 25.668 436.149 25.6421 436.497 25.6354C436.873 25.6266 437.095 25.7118 437.386 25.7548C437.479 25.7678 437.592 25.7694 437.699 25.771C438.224 25.777 438.542 25.6769 438.441 25.538C438.368 25.4295 438.098 25.3655 437.771 25.3798C437.431 25.3942 437.083 25.4105 436.743 25.4268ZM479.421 21.087C479.506 21.0543 479.598 21.0312 479.64 21.0024C479.767 20.9048 479.716 20.8325 479.48 20.7569C479.195 20.6643 478.848 20.7283 478.529 20.7388C478.451 20.7409 478.366 20.7812 478.324 20.8061C478.296 20.8234 478.296 20.8596 478.339 20.869C478.688 20.9443 479.058 21.0137 479.421 21.087ZM417.751 15.6388C417.411 15.6551 417.063 15.6676 416.723 15.6896C416.638 15.6956 416.56 15.732 416.511 15.757C416.419 15.803 416.519 15.8657 416.811 15.8705C417.144 15.8771 417.492 15.8437 417.839 15.8274C418.279 15.807 418.541 15.7356 418.377 15.6751C418.219 15.6164 418.006 15.6056 417.751 15.6388ZM44.0033 12.6889C44.2303 12.6786 44.4645 12.6703 44.6914 12.6563C44.9042 12.6423 45.0669 12.5998 45.1725 12.5366C44.9942 12.4875 44.795 12.4614 44.575 12.4678C44.2273 12.4803 43.8868 12.4966 43.5464 12.5167C43.3336 12.5288 43.1284 12.5713 43.0797 12.6363C43.0308 12.6861 43.5067 12.7132 44.0033 12.6889ZM387.663 11.36C387.755 11.3768 387.848 11.4109 387.94 11.4106C388.168 11.4099 388.402 11.3978 388.614 11.3781C388.707 11.3702 388.777 11.3356 388.819 11.3088C388.847 11.2915 388.84 11.2611 388.797 11.2459C388.59 11.155 387.767 11.1899 387.633 11.2952C387.62 11.3143 387.655 11.339 387.663 11.36ZM365.106 0.983882C365.128 1.01433 365.135 1.04482 365.164 1.07525C365.222 1.13229 365.379 1.17379 365.606 1.20171C365.783 1.1535 365.874 1.09983 365.866 1.04264C365.859 1.01214 365.837 0.981673 365.808 0.951244C365.751 0.894201 365.594 0.852729 365.366 0.824806C365.189 0.871112 365.105 0.924761 365.106 0.983882ZM495.897 25.5804C495.833 25.6054 495.77 25.6304 495.699 25.6535C495.891 25.7082 496.069 25.7249 496.204 25.6939C496.289 25.6746 496.338 25.6458 496.401 25.6209C496.209 25.5661 496.038 25.5514 495.897 25.5804ZM491.485 25.8531C491.578 25.87 491.663 25.8926 491.763 25.9038C491.926 25.9223 492.075 25.8895 492.187 25.8205C492.095 25.8036 492.009 25.7809 491.91 25.7698C491.746 25.7512 491.598 25.7841 491.485 25.8531ZM494.277 25.4957C494.228 25.5416 494.328 25.5794 494.591 25.6111C494.654 25.5861 494.739 25.5629 494.781 25.5361C494.852 25.492 494.73 25.4523 494.474 25.4226C494.404 25.4457 494.34 25.4707 494.277 25.4957ZM479.259 23.4849C479.21 23.5308 479.31 23.5687 479.573 23.6003C479.637 23.5753 479.722 23.5522 479.764 23.5253C479.834 23.4813 479.713 23.4416 479.457 23.4118C479.386 23.4349 479.323 23.4599 479.259 23.4849ZM458.636 10.0514C458.573 10.0764 458.509 10.1014 458.439 10.1245C458.631 10.1792 458.809 10.1958 458.943 10.1649C459.028 10.1456 459.078 10.1168 459.141 10.0919C458.949 10.0371 458.778 10.0224 458.636 10.0514ZM438.969 2.95089C439.14 2.96373 439.281 2.93661 439.401 2.86569C439.309 2.8488 439.223 2.82617 439.123 2.81502C438.96 2.79644 438.811 2.82932 438.699 2.89832C438.791 2.91712 438.884 2.93399 438.969 2.95089ZM428.577 2.534C428.513 2.55899 428.45 2.58397 428.379 2.60707C428.571 2.6618 428.749 2.67843 428.884 2.64751C428.968 2.62818 429.018 2.59942 429.081 2.57444C428.889 2.51971 428.718 2.50687 428.577 2.534ZM358.121 1.00301C358.057 1.028 357.994 1.05299 357.923 1.07609C358.115 1.13082 358.293 1.14744 358.428 1.11652C358.512 1.09719 358.562 1.06843 358.625 1.04345C358.433 0.988718 358.262 0.975887 358.121 1.00301ZM7.67241 17.5759C7.57986 17.559 7.48739 17.5421 7.40191 17.5233C7.19683 17.5754 7.13368 17.6233 7.24782 17.6592C7.31916 17.6819 7.42577 17.6949 7.51832 17.7118C7.7305 17.6597 7.77947 17.6137 7.67241 17.5759Z" fill="#FFE492"/>
</svg>
